<svg width="526" height="166" viewBox="0 0 526 166" fill="none" xmlns="http://www.w3.org/2000/svg">
<circle cx="2" cy="2" r="2" fill="#F0ECE3"/>
<circle cx="20" cy="2" r="2" fill="#F0ECE3"/>
<circle cx="38" cy="2" r="2" fill="#F0ECE3"/>
<circle cx="56" cy="2" r="2" fill="#F0ECE3"/>
<circle cx="74" cy="2" r="2" fill="#F0ECE3"/>
<circle cx="92" cy="2" r="2" fill="#F0ECE3"/>
<circle cx="110" cy="2" r="2" fill="#F0ECE3"/>
<circle cx="128" cy="2" r="2" fill="#F0ECE3"/>
<circle cx="146" cy="2" r="2" fill="#F0ECE3"/>
<circle cx="164" cy="2" r="2" fill="#F0ECE3"/>
<circle cx="182" cy="2" r="2" fill="#F0ECE3"/>
<circle cx="200" cy="2" r="2" fill="#F0ECE3"/>
<circle cx="218" cy="2" r="2" fill="#F0ECE3"/>
<circle cx="236" cy="2" r="2" fill="#F0ECE3"/>
<circle cx="254" cy="2" r="2" fill="#F0ECE3"/>
<circle cx="272" cy="2" r="2" fill="#F0ECE3"/>
<circle cx="290" cy="2" r="2" fill="#F0ECE3"/>
<circle cx="308" cy="2" r="2" fill="#F0ECE3"/>
<circle cx="326" cy="2" r="2" fill="#F0ECE3"/>
<circle cx="344" cy="2" r="2" fill="#F0ECE3"/>
<circle cx="362" cy="2" r="2" fill="#F0ECE3"/>
<circle cx="380" cy="2" r="2" fill="#F0ECE3"/>
<circle cx="398" cy="2" r="2" fill="#F0ECE3"/>
<circle cx="416" cy="2" r="2" fill="#F0ECE3"/>
<circle cx="434" cy="2" r="2" fill="#F0ECE3"/>
<circle cx="452" cy="2" r="2" fill="#F0ECE3"/>
<circle cx="470" cy="2" r="2" fill="#F0ECE3"/>
<circle cx="488" cy="2" r="2" fill="#F0ECE3"/>
<circle cx="506" cy="2" r="2" fill="#F0ECE3"/>
<circle cx="524" cy="2" r="2" fill="#F0ECE3"/>
<circle cx="2" cy="20" r="2" fill="#F0ECE3"/>
<circle cx="20" cy="20" r="2" fill="#F0ECE3"/>
<circle cx="38" cy="20" r="2" fill="#F0ECE3"/>
<circle cx="56" cy="20" r="2" fill="#F0ECE3"/>
<circle cx="74" cy="20" r="2" fill="#F0ECE3"/>
<circle cx="92" cy="20" r="2" fill="#F0ECE3"/>
<circle cx="110" cy="20" r="2" fill="#F0ECE3"/>
<circle cx="128" cy="20" r="2" fill="#F0ECE3"/>
<circle cx="146" cy="20" r="2" fill="#F0ECE3"/>
<circle cx="164" cy="20" r="2" fill="#F0ECE3"/>
<circle cx="182" cy="20" r="2" fill="#F0ECE3"/>
<circle cx="200" cy="20" r="2" fill="#F0ECE3"/>
<circle cx="218" cy="20" r="2" fill="#F0ECE3"/>
<circle cx="236" cy="20" r="2" fill="#F0ECE3"/>
<circle cx="254" cy="20" r="2" fill="#F0ECE3"/>
<circle cx="272" cy="20" r="2" fill="#F0ECE3"/>
<circle cx="290" cy="20" r="2" fill="#F0ECE3"/>
<circle cx="308" cy="20" r="2" fill="#F0ECE3"/>
<circle cx="326" cy="20" r="2" fill="#F0ECE3"/>
<circle cx="344" cy="20" r="2" fill="#F0ECE3"/>
<circle cx="362" cy="20" r="2" fill="#F0ECE3"/>
<circle cx="380" cy="20" r="2" fill="#F0ECE3"/>
<circle cx="398" cy="20" r="2" fill="#F0ECE3"/>
<circle cx="416" cy="20" r="2" fill="#F0ECE3"/>
<circle cx="434" cy="20" r="2" fill="#F0ECE3"/>
<circle cx="452" cy="20" r="2" fill="#F0ECE3"/>
<circle cx="470" cy="20" r="2" fill="#F0ECE3"/>
<circle cx="488" cy="20" r="2" fill="#F0ECE3"/>
<circle cx="506" cy="20" r="2" fill="#F0ECE3"/>
<circle cx="524" cy="20" r="2" fill="#F0ECE3"/>
<circle cx="2" cy="38" r="2" fill="#F0ECE3"/>
<circle cx="20" cy="38" r="2" fill="#F0ECE3"/>
<circle cx="38" cy="38" r="2" fill="#F0ECE3"/>
<circle cx="56" cy="38" r="2" fill="#F0ECE3"/>
<circle cx="74" cy="38" r="2" fill="#F0ECE3"/>
<circle cx="92" cy="38" r="2" fill="#F0ECE3"/>
<circle cx="110" cy="38" r="2" fill="#F0ECE3"/>
<circle cx="128" cy="38" r="2" fill="#F0ECE3"/>
<circle cx="146" cy="38" r="2" fill="#F0ECE3"/>
<circle cx="164" cy="38" r="2" fill="#F0ECE3"/>
<circle cx="182" cy="38" r="2" fill="#F0ECE3"/>
<circle cx="200" cy="38" r="2" fill="#F0ECE3"/>
<circle cx="218" cy="38" r="2" fill="#F0ECE3"/>
<circle cx="236" cy="38" r="2" fill="#F0ECE3"/>
<circle cx="254" cy="38" r="2" fill="#F0ECE3"/>
<circle cx="272" cy="38" r="2" fill="#F0ECE3"/>
<circle cx="290" cy="38" r="2" fill="#F0ECE3"/>
<circle cx="308" cy="38" r="2" fill="#F0ECE3"/>
<circle cx="326" cy="38" r="2" fill="#F0ECE3"/>
<circle cx="344" cy="38" r="2" fill="#F0ECE3"/>
<circle cx="362" cy="38" r="2" fill="#F0ECE3"/>
<circle cx="380" cy="38" r="2" fill="#F0ECE3"/>
<circle cx="398" cy="38" r="2" fill="#F0ECE3"/>
<circle cx="416" cy="38" r="2" fill="#F0ECE3"/>
<circle cx="434" cy="38" r="2" fill="#F0ECE3"/>
<circle cx="452" cy="38" r="2" fill="#F0ECE3"/>
<circle cx="470" cy="38" r="2" fill="#F0ECE3"/>
<circle cx="488" cy="38" r="2" fill="#F0ECE3"/>
<circle cx="506" cy="38" r="2" fill="#F0ECE3"/>
<circle cx="524" cy="38" r="2" fill="#F0ECE3"/>
<circle cx="2" cy="56" r="2" fill="#F0ECE3"/>
<circle cx="20" cy="56" r="2" fill="#F0ECE3"/>
<circle cx="38" cy="56" r="2" fill="#F0ECE3"/>
<circle cx="56" cy="56" r="2" fill="#F0ECE3"/>
<circle cx="74" cy="56" r="2" fill="#F0ECE3"/>
<circle cx="92" cy="56" r="2" fill="#F0ECE3"/>
<circle cx="110" cy="56" r="2" fill="#F0ECE3"/>
<circle cx="128" cy="56" r="2" fill="#F0ECE3"/>
<circle cx="146" cy="56" r="2" fill="#F0ECE3"/>
<circle cx="164" cy="56" r="2" fill="#F0ECE3"/>
<circle cx="182" cy="56" r="2" fill="#F0ECE3"/>
<circle cx="200" cy="56" r="2" fill="#F0ECE3"/>
<circle cx="218" cy="56" r="2" fill="#F0ECE3"/>
<circle cx="236" cy="56" r="2" fill="#F0ECE3"/>
<circle cx="254" cy="56" r="2" fill="#F0ECE3"/>
<circle cx="272" cy="56" r="2" fill="#F0ECE3"/>
<circle cx="290" cy="56" r="2" fill="#F0ECE3"/>
<circle cx="308" cy="56" r="2" fill="#F0ECE3"/>
<circle cx="326" cy="56" r="2" fill="#F0ECE3"/>
<circle cx="344" cy="56" r="2" fill="#F0ECE3"/>
<circle cx="362" cy="56" r="2" fill="#F0ECE3"/>
<circle cx="380" cy="56" r="2" fill="#F0ECE3"/>
<circle cx="398" cy="56" r="2" fill="#F0ECE3"/>
<circle cx="416" cy="56" r="2" fill="#F0ECE3"/>
<circle cx="434" cy="56" r="2" fill="#F0ECE3"/>
<circle cx="452" cy="56" r="2" fill="#F0ECE3"/>
<circle cx="470" cy="56" r="2" fill="#F0ECE3"/>
<circle cx="488" cy="56" r="2" fill="#F0ECE3"/>
<circle cx="506" cy="56" r="2" fill="#F0ECE3"/>
<circle cx="524" cy="56" r="2" fill="#F0ECE3"/>
<circle cx="2" cy="74" r="2" fill="#F0ECE3"/>
<circle cx="20" cy="74" r="2" fill="#F0ECE3"/>
<circle cx="38" cy="74" r="2" fill="#F0ECE3"/>
<circle cx="56" cy="74" r="2" fill="#F0ECE3"/>
<circle cx="74" cy="74" r="2" fill="#F0ECE3"/>
<circle cx="92" cy="74" r="2" fill="#F0ECE3"/>
<circle cx="110" cy="74" r="2" fill="#F0ECE3"/>
<circle cx="128" cy="74" r="2" fill="#F0ECE3"/>
<circle cx="146" cy="74" r="2" fill="#F0ECE3"/>
<circle cx="164" cy="74" r="2" fill="#F0ECE3"/>
<circle cx="182" cy="74" r="2" fill="#F0ECE3"/>
<circle cx="200" cy="74" r="2" fill="#F0ECE3"/>
<circle cx="218" cy="74" r="2" fill="#F0ECE3"/>
<circle cx="236" cy="74" r="2" fill="#F0ECE3"/>
<circle cx="254" cy="74" r="2" fill="#F0ECE3"/>
<circle cx="272" cy="74" r="2" fill="#F0ECE3"/>
<circle cx="290" cy="74" r="2" fill="#F0ECE3"/>
<circle cx="308" cy="74" r="2" fill="#F0ECE3"/>
<circle cx="326" cy="74" r="2" fill="#F0ECE3"/>
<circle cx="344" cy="74" r="2" fill="#F0ECE3"/>
<circle cx="362" cy="74" r="2" fill="#F0ECE3"/>
<circle cx="380" cy="74" r="2" fill="#F0ECE3"/>
<circle cx="398" cy="74" r="2" fill="#F0ECE3"/>
<circle cx="416" cy="74" r="2" fill="#F0ECE3"/>
<circle cx="434" cy="74" r="2" fill="#F0ECE3"/>
<circle cx="452" cy="74" r="2" fill="#F0ECE3"/>
<circle cx="470" cy="74" r="2" fill="#F0ECE3"/>
<circle cx="488" cy="74" r="2" fill="#F0ECE3"/>
<circle cx="506" cy="74" r="2" fill="#F0ECE3"/>
<circle cx="524" cy="74" r="2" fill="#F0ECE3"/>
<circle cx="2" cy="92" r="2" fill="#F0ECE3"/>
<circle cx="20" cy="92" r="2" fill="#F0ECE3"/>
<circle cx="38" cy="92" r="2" fill="#F0ECE3"/>
<circle cx="56" cy="92" r="2" fill="#F0ECE3"/>
<circle cx="74" cy="92" r="2" fill="#F0ECE3"/>
<circle cx="92" cy="92" r="2" fill="#F0ECE3"/>
<circle cx="110" cy="92" r="2" fill="#F0ECE3"/>
<circle cx="128" cy="92" r="2" fill="#F0ECE3"/>
<circle cx="146" cy="92" r="2" fill="#F0ECE3"/>
<circle cx="164" cy="92" r="2" fill="#F0ECE3"/>
<circle cx="182" cy="92" r="2" fill="#F0ECE3"/>
<circle cx="200" cy="92" r="2" fill="#F0ECE3"/>
<circle cx="218" cy="92" r="2" fill="#F0ECE3"/>
<circle cx="236" cy="92" r="2" fill="#F0ECE3"/>
<circle cx="254" cy="92" r="2" fill="#F0ECE3"/>
<circle cx="272" cy="92" r="2" fill="#F0ECE3"/>
<circle cx="290" cy="92" r="2" fill="#F0ECE3"/>
<circle cx="308" cy="92" r="2" fill="#F0ECE3"/>
<circle cx="326" cy="92" r="2" fill="#F0ECE3"/>
<circle cx="344" cy="92" r="2" fill="#F0ECE3"/>
<circle cx="362" cy="92" r="2" fill="#F0ECE3"/>
<circle cx="380" cy="92" r="2" fill="#F0ECE3"/>
<circle cx="398" cy="92" r="2" fill="#F0ECE3"/>
<circle cx="416" cy="92" r="2" fill="#F0ECE3"/>
<circle cx="434" cy="92" r="2" fill="#F0ECE3"/>
<circle cx="452" cy="92" r="2" fill="#F0ECE3"/>
<circle cx="470" cy="92" r="2" fill="#F0ECE3"/>
<circle cx="488" cy="92" r="2" fill="#F0ECE3"/>
<circle cx="506" cy="92" r="2" fill="#F0ECE3"/>
<circle cx="524" cy="92" r="2" fill="#F0ECE3"/>
<circle cx="2" cy="110" r="2" fill="#F0ECE3"/>
<circle cx="20" cy="110" r="2" fill="#F0ECE3"/>
<circle cx="38" cy="110" r="2" fill="#F0ECE3"/>
<circle cx="56" cy="110" r="2" fill="#F0ECE3"/>
<circle cx="74" cy="110" r="2" fill="#F0ECE3"/>
<circle cx="92" cy="110" r="2" fill="#F0ECE3"/>
<circle cx="110" cy="110" r="2" fill="#F0ECE3"/>
<circle cx="128" cy="110" r="2" fill="#F0ECE3"/>
<circle cx="146" cy="110" r="2" fill="#F0ECE3"/>
<circle cx="164" cy="110" r="2" fill="#F0ECE3"/>
<circle cx="182" cy="110" r="2" fill="#F0ECE3"/>
<circle cx="200" cy="110" r="2" fill="#F0ECE3"/>
<circle cx="218" cy="110" r="2" fill="#F0ECE3"/>
<circle cx="236" cy="110" r="2" fill="#F0ECE3"/>
<circle cx="254" cy="110" r="2" fill="#F0ECE3"/>
<circle cx="272" cy="110" r="2" fill="#F0ECE3"/>
<circle cx="290" cy="110" r="2" fill="#F0ECE3"/>
<circle cx="308" cy="110" r="2" fill="#F0ECE3"/>
<circle cx="326" cy="110" r="2" fill="#F0ECE3"/>
<circle cx="344" cy="110" r="2" fill="#F0ECE3"/>
<circle cx="362" cy="110" r="2" fill="#F0ECE3"/>
<circle cx="380" cy="110" r="2" fill="#F0ECE3"/>
<circle cx="398" cy="110" r="2" fill="#F0ECE3"/>
<circle cx="416" cy="110" r="2" fill="#F0ECE3"/>
<circle cx="434" cy="110" r="2" fill="#F0ECE3"/>
<circle cx="452" cy="110" r="2" fill="#F0ECE3"/>
<circle cx="470" cy="110" r="2" fill="#F0ECE3"/>
<circle cx="488" cy="110" r="2" fill="#F0ECE3"/>
<circle cx="506" cy="110" r="2" fill="#F0ECE3"/>
<circle cx="524" cy="110" r="2" fill="#F0ECE3"/>
<circle cx="2" cy="128" r="2" fill="#F0ECE3"/>
<circle cx="20" cy="128" r="2" fill="#F0ECE3"/>
<circle cx="38" cy="128" r="2" fill="#F0ECE3"/>
<circle cx="56" cy="128" r="2" fill="#F0ECE3"/>
<circle cx="74" cy="128" r="2" fill="#F0ECE3"/>
<circle cx="92" cy="128" r="2" fill="#F0ECE3"/>
<circle cx="110" cy="128" r="2" fill="#F0ECE3"/>
<circle cx="128" cy="128" r="2" fill="#F0ECE3"/>
<circle cx="146" cy="128" r="2" fill="#F0ECE3"/>
<circle cx="164" cy="128" r="2" fill="#F0ECE3"/>
<circle cx="182" cy="128" r="2" fill="#F0ECE3"/>
<circle cx="200" cy="128" r="2" fill="#F0ECE3"/>
<circle cx="218" cy="128" r="2" fill="#F0ECE3"/>
<circle cx="236" cy="128" r="2" fill="#F0ECE3"/>
<circle cx="254" cy="128" r="2" fill="#F0ECE3"/>
<circle cx="272" cy="128" r="2" fill="#F0ECE3"/>
<circle cx="290" cy="128" r="2" fill="#F0ECE3"/>
<circle cx="308" cy="128" r="2" fill="#F0ECE3"/>
<circle cx="326" cy="128" r="2" fill="#F0ECE3"/>
<circle cx="344" cy="128" r="2" fill="#F0ECE3"/>
<circle cx="362" cy="128" r="2" fill="#F0ECE3"/>
<circle cx="380" cy="128" r="2" fill="#F0ECE3"/>
<circle cx="398" cy="128" r="2" fill="#F0ECE3"/>
<circle cx="416" cy="128" r="2" fill="#F0ECE3"/>
<circle cx="434" cy="128" r="2" fill="#F0ECE3"/>
<circle cx="452" cy="128" r="2" fill="#F0ECE3"/>
<circle cx="470" cy="128" r="2" fill="#F0ECE3"/>
<circle cx="488" cy="128" r="2" fill="#F0ECE3"/>
<circle cx="506" cy="128" r="2" fill="#F0ECE3"/>
<circle cx="524" cy="128" r="2" fill="#F0ECE3"/>
<circle cx="2" cy="146" r="2" fill="#F0ECE3"/>
<circle cx="20" cy="146" r="2" fill="#F0ECE3"/>
<circle cx="38" cy="146" r="2" fill="#F0ECE3"/>
<circle cx="56" cy="146" r="2" fill="#F0ECE3"/>
<circle cx="74" cy="146" r="2" fill="#F0ECE3"/>
<circle cx="92" cy="146" r="2" fill="#F0ECE3"/>
<circle cx="110" cy="146" r="2" fill="#F0ECE3"/>
<circle cx="128" cy="146" r="2" fill="#F0ECE3"/>
<circle cx="146" cy="146" r="2" fill="#F0ECE3"/>
<circle cx="164" cy="146" r="2" fill="#F0ECE3"/>
<circle cx="182" cy="146" r="2" fill="#F0ECE3"/>
<circle cx="200" cy="146" r="2" fill="#F0ECE3"/>
<circle cx="218" cy="146" r="2" fill="#F0ECE3"/>
<circle cx="236" cy="146" r="2" fill="#F0ECE3"/>
<circle cx="254" cy="146" r="2" fill="#F0ECE3"/>
<circle cx="272" cy="146" r="2" fill="#F0ECE3"/>
<circle cx="290" cy="146" r="2" fill="#F0ECE3"/>
<circle cx="308" cy="146" r="2" fill="#F0ECE3"/>
<circle cx="326" cy="146" r="2" fill="#F0ECE3"/>
<circle cx="344" cy="146" r="2" fill="#F0ECE3"/>
<circle cx="362" cy="146" r="2" fill="#F0ECE3"/>
<circle cx="380" cy="146" r="2" fill="#F0ECE3"/>
<circle cx="398" cy="146" r="2" fill="#F0ECE3"/>
<circle cx="416" cy="146" r="2" fill="#F0ECE3"/>
<circle cx="434" cy="146" r="2" fill="#F0ECE3"/>
<circle cx="452" cy="146" r="2" fill="#F0ECE3"/>
<circle cx="470" cy="146" r="2" fill="#F0ECE3"/>
<circle cx="488" cy="146" r="2" fill="#F0ECE3"/>
<circle cx="506" cy="146" r="2" fill="#F0ECE3"/>
<circle cx="524" cy="146" r="2" fill="#F0ECE3"/>
<circle cx="2" cy="164" r="2" fill="#F0ECE3"/>
<circle cx="20" cy="164" r="2" fill="#F0ECE3"/>
<circle cx="38" cy="164" r="2" fill="#F0ECE3"/>
<circle cx="56" cy="164" r="2" fill="#F0ECE3"/>
<circle cx="74" cy="164" r="2" fill="#F0ECE3"/>
<circle cx="92" cy="164" r="2" fill="#F0ECE3"/>
<circle cx="110" cy="164" r="2" fill="#F0ECE3"/>
<circle cx="128" cy="164" r="2" fill="#F0ECE3"/>
<circle cx="146" cy="164" r="2" fill="#F0ECE3"/>
<circle cx="164" cy="164" r="2" fill="#F0ECE3"/>
<circle cx="182" cy="164" r="2" fill="#F0ECE3"/>
<circle cx="200" cy="164" r="2" fill="#F0ECE3"/>
<circle cx="218" cy="164" r="2" fill="#F0ECE3"/>
<circle cx="236" cy="164" r="2" fill="#F0ECE3"/>
<circle cx="254" cy="164" r="2" fill="#F0ECE3"/>
<circle cx="272" cy="164" r="2" fill="#F0ECE3"/>
<circle cx="290" cy="164" r="2" fill="#F0ECE3"/>
<circle cx="308" cy="164" r="2" fill="#F0ECE3"/>
<circle cx="326" cy="164" r="2" fill="#F0ECE3"/>
<circle cx="344" cy="164" r="2" fill="#F0ECE3"/>
<circle cx="362" cy="164" r="2" fill="#F0ECE3"/>
<circle cx="380" cy="164" r="2" fill="#F0ECE3"/>
<circle cx="398" cy="164" r="2" fill="#F0ECE3"/>
<circle cx="416" cy="164" r="2" fill="#F0ECE3"/>
<circle cx="434" cy="164" r="2" fill="#F0ECE3"/>
<circle cx="452" cy="164" r="2" fill="#F0ECE3"/>
<circle cx="470" cy="164" r="2" fill="#F0ECE3"/>
<circle cx="488" cy="164" r="2" fill="#F0ECE3"/>
<circle cx="506" cy="164" r="2" fill="#F0ECE3"/>
<circle cx="524" cy="164" r="2" fill="#F0ECE3"/>
</svg>
