<svg width="548" height="124" viewBox="0 0 548 124" fill="none" xmlns="http://www.w3.org/2000/svg">
<path d="M1.1582 14.8988C37.5326 -29.2801 43.3994 53.6788 78.9915 14.8987C115.366 -29.2802 121.233 53.6787 156.825 14.8986C193.199 -29.2803 199.066 53.6788 234.658 14.8987C271.033 -29.2802 276.899 53.6783 312.492 14.8982C348.866 -29.2807 354.733 53.6778 390.325 14.8977C426.699 -29.2812 432.566 53.6774 468.158 14.8973C504.533 -29.2817 511.066 53.2996 546.658 14.5195" stroke="#8A4BEB" stroke-width="3"/>
<path d="M1.1582 34.8988C37.5326 -9.28011 43.3994 73.6788 78.9915 34.8987C115.366 -9.28021 121.233 73.6787 156.825 34.8986C193.199 -9.28034 199.066 73.6788 234.658 34.8987C271.033 -9.28024 276.899 73.6783 312.492 34.8982C348.866 -9.28073 354.733 73.6778 390.325 34.8977C426.699 -9.2812 432.566 73.6774 468.158 34.8973M468.158 35.0563C504.533 -9.1226 510.399 73.836 545.992 35.0559" stroke="#B07EF5" stroke-opacity="0.15" stroke-width="3"/>
<path d="M1.1582 91.1235C37.5326 46.9446 43.3994 129.903 78.9915 91.1234C115.366 46.9445 121.233 129.903 156.825 91.1233C193.199 46.9443 199.066 129.903 234.658 91.1234C271.033 46.9444 276.899 129.903 312.492 91.1229C348.866 46.9439 354.733 129.903 390.325 91.1224C426.699 46.9435 432.566 129.902 468.158 91.122C504.533 46.943 511.066 129.372 546.658 90.5919" stroke="#8A4BEB" stroke-width="3"/>
<path d="M1.1582 111.124C37.5326 66.9447 43.3994 149.904 78.9915 111.124C115.366 66.9446 121.233 149.903 156.825 111.123C193.199 66.9445 199.066 149.904 234.658 111.124C271.033 66.9446 276.899 149.903 312.492 111.123C348.866 66.9441 354.733 149.903 390.325 111.123C426.699 66.9436 432.566 149.902 468.158 111.122C504.533 66.9432 511.066 149.902 546.658 111.122" stroke="#B07EF5" stroke-opacity="0.15" stroke-width="3"/>
</svg>
