<svg width="1920" height="1080" viewBox="0 0 1920 1080" fill="none" xmlns="http://www.w3.org/2000/svg">
<g clip-path="url(#clip0_37_528)">
<mask id="path-1-inside-1_37_528" fill="white">
<path d="M0 0H1920V1080H0V0Z"/>
</mask>
<path d="M0 0H1920V1080H0V0Z" fill="#F3ECFF"/>
<path d="M121.584 118V116.832H124.128V107.968H121.584V106.8H128.016V107.968H125.472V116.832H128.016V118H121.584ZM136.674 118.192C135.767 118.192 134.983 117.952 134.322 117.472C133.671 116.992 133.17 116.32 132.818 115.456C132.476 114.592 132.306 113.573 132.306 112.4C132.306 111.237 132.476 110.224 132.818 109.36C133.17 108.485 133.671 107.808 134.322 107.328C134.983 106.848 135.767 106.608 136.674 106.608C137.826 106.608 138.754 106.928 139.458 107.568C140.162 108.197 140.572 109.04 140.69 110.096H139.202C139.095 109.467 138.828 108.939 138.402 108.512C137.975 108.085 137.399 107.872 136.674 107.872C135.746 107.872 135.015 108.277 134.482 109.088C133.948 109.888 133.682 110.992 133.682 112.4C133.682 113.819 133.948 114.928 134.482 115.728C135.015 116.528 135.746 116.928 136.674 116.928C137.431 116.928 138.012 116.725 138.418 116.32C138.834 115.915 139.095 115.392 139.202 114.752H140.69C140.519 115.819 140.092 116.661 139.41 117.28C138.738 117.888 137.826 118.192 136.674 118.192ZM148.387 118.192C147.481 118.192 146.702 117.952 146.051 117.472C145.401 116.992 144.899 116.32 144.547 115.456C144.206 114.581 144.035 113.563 144.035 112.4C144.035 111.237 144.206 110.224 144.547 109.36C144.899 108.485 145.401 107.808 146.051 107.328C146.702 106.848 147.481 106.608 148.387 106.608C149.294 106.608 150.073 106.848 150.723 107.328C151.374 107.808 151.87 108.485 152.212 109.36C152.564 110.224 152.74 111.237 152.74 112.4C152.74 113.563 152.564 114.581 152.212 115.456C151.87 116.32 151.374 116.992 150.723 117.472C150.073 117.952 149.294 118.192 148.387 118.192ZM148.387 116.928C149.273 116.928 149.987 116.533 150.531 115.744C151.086 114.955 151.364 113.84 151.364 112.4C151.364 110.96 151.086 109.845 150.531 109.056C149.987 108.267 149.273 107.872 148.387 107.872C147.491 107.872 146.771 108.267 146.227 109.056C145.683 109.845 145.411 110.96 145.411 112.4C145.411 113.84 145.683 114.955 146.227 115.744C146.771 116.533 147.491 116.928 148.387 116.928ZM156.293 118V106.8H157.669L162.757 115.648V106.8H164.085V118H162.693L157.605 109.152V118H156.293ZM179.769 118V106.8H181.209L183.769 112.128L186.329 106.8H187.769V118H186.457V109.392L184.281 113.92H183.257L181.081 109.408V118H179.769ZM191.29 118L194.794 106.8H196.346L199.834 118H198.362L197.546 115.216H193.578L192.762 118H191.29ZM195.53 108.688L193.914 114.096H197.21L195.594 108.688H195.53ZM203.868 118V106.8H207.308C208.172 106.8 208.882 106.944 209.436 107.232C210.002 107.52 210.423 107.915 210.7 108.416C210.978 108.907 211.116 109.467 211.116 110.096C211.116 110.832 210.924 111.483 210.54 112.048C210.167 112.603 209.591 112.992 208.812 113.216L211.244 118H209.644L207.388 113.408H207.308H205.212V118H203.868ZM205.212 112.176H207.26C208.114 112.176 208.738 111.984 209.132 111.6C209.538 111.205 209.74 110.704 209.74 110.096C209.74 109.456 209.543 108.949 209.148 108.576C208.764 108.203 208.13 108.016 207.244 108.016H205.212V112.176ZM215.662 118V106.8H217.006V112.016L221.39 106.8H223.102L218.382 112.368V112.432L223.166 118H221.422L217.006 112.864V118H215.662ZM242.738 118.192C241.831 118.192 241.052 117.952 240.402 117.472C239.751 116.992 239.25 116.32 238.898 115.456C238.556 114.581 238.386 113.563 238.386 112.4C238.386 111.237 238.556 110.224 238.898 109.36C239.25 108.485 239.751 107.808 240.402 107.328C241.052 106.848 241.831 106.608 242.738 106.608C243.644 106.608 244.423 106.848 245.074 107.328C245.724 107.808 246.22 108.485 246.562 109.36C246.914 110.224 247.09 111.237 247.09 112.4C247.09 113.563 246.914 114.581 246.562 115.456C246.22 116.32 245.724 116.992 245.074 117.472C244.423 117.952 243.644 118.192 242.738 118.192ZM242.738 116.928C243.623 116.928 244.338 116.533 244.882 115.744C245.436 114.955 245.714 113.84 245.714 112.4C245.714 110.96 245.436 109.845 244.882 109.056C244.338 108.267 243.623 107.872 242.738 107.872C241.842 107.872 241.122 108.267 240.578 109.056C240.034 109.845 239.762 110.96 239.762 112.4C239.762 113.84 240.034 114.955 240.578 115.744C241.122 116.533 241.842 116.928 242.738 116.928ZM250.643 118V106.8H252.019L257.107 115.648V106.8H258.435V118H257.043L251.955 109.152V118H250.643ZM274.375 118V106.8H276.727C278.561 106.8 279.916 107.301 280.791 108.304C281.676 109.307 282.119 110.672 282.119 112.4C282.119 114.128 281.676 115.493 280.791 116.496C279.916 117.499 278.561 118 276.727 118H274.375ZM275.719 116.768H276.695C277.676 116.768 278.46 116.587 279.047 116.224C279.644 115.861 280.076 115.355 280.343 114.704C280.609 114.053 280.743 113.285 280.743 112.4C280.743 111.515 280.609 110.747 280.343 110.096C280.076 109.445 279.644 108.939 279.047 108.576C278.46 108.213 277.676 108.032 276.695 108.032H275.719V116.768ZM286.697 118V116.832H289.241V107.968H286.697V106.8H293.129V107.968H290.585V116.832H293.129V118H286.697ZM298.362 118V106.8H305.354V108.048H299.706V111.952H304.538V113.152H299.706V118H298.362ZM310.156 118V106.8H317.148V108.048H311.5V111.952H316.332V113.152H311.5V118H310.156ZM321.87 118V106.8H328.862V108.016H323.214V111.744H328.382V112.96H323.214V116.784H328.862V118H321.87ZM333.6 118V106.8H337.04C337.904 106.8 338.613 106.944 339.168 107.232C339.733 107.52 340.154 107.915 340.432 108.416C340.709 108.907 340.848 109.467 340.848 110.096C340.848 110.832 340.656 111.483 340.272 112.048C339.898 112.603 339.322 112.992 338.544 113.216L340.976 118H339.376L337.12 113.408H337.04H334.944V118H333.6ZM334.944 112.176H336.992C337.845 112.176 338.469 111.984 338.864 111.6C339.269 111.205 339.472 110.704 339.472 110.096C339.472 109.456 339.274 108.949 338.88 108.576C338.496 108.203 337.861 108.016 336.976 108.016H334.944V112.176ZM345.457 118V106.8H352.449V108.016H346.801V111.744H351.969V112.96H346.801V116.784H352.449V118H345.457ZM356.787 118V106.8H358.163L363.251 115.648V106.8H364.579V118H363.187L358.099 109.152V118H356.787ZM371.797 118V108.016H368.789V106.8H376.149V108.016H373.141V118H371.797ZM392.312 118V106.8H396.04C397.203 106.8 398.078 107.067 398.664 107.6C399.251 108.133 399.544 108.816 399.544 109.648C399.544 110.299 399.368 110.837 399.016 111.264C398.664 111.68 398.27 111.973 397.832 112.144V112.256C398.355 112.427 398.814 112.736 399.208 113.184C399.603 113.632 399.8 114.208 399.8 114.912C399.8 115.488 399.656 116.011 399.368 116.48C399.091 116.939 398.68 117.307 398.136 117.584C397.603 117.861 396.947 118 396.168 118H392.312ZM393.656 111.632H395.944C396.659 111.632 397.203 111.477 397.576 111.168C397.96 110.848 398.152 110.389 398.152 109.792C398.152 109.227 397.966 108.789 397.592 108.48C397.219 108.171 396.654 108.016 395.896 108.016H393.656V111.632ZM393.656 116.768H396.024C396.792 116.768 397.384 116.597 397.8 116.256C398.216 115.904 398.424 115.413 398.424 114.784C398.424 114.155 398.206 113.669 397.768 113.328C397.331 112.976 396.739 112.8 395.992 112.8H393.656V116.768ZM403.578 118L407.082 106.8H408.634L412.122 118H410.65L409.834 115.216H405.866L405.05 118H403.578ZM407.818 108.688L406.202 114.096H409.498L407.882 108.688H407.818ZM419.724 118.192C418.817 118.192 418.033 117.952 417.372 117.472C416.721 116.992 416.22 116.32 415.868 115.456C415.526 114.592 415.356 113.573 415.356 112.4C415.356 111.237 415.526 110.224 415.868 109.36C416.22 108.485 416.721 107.808 417.372 107.328C418.033 106.848 418.817 106.608 419.724 106.608C420.876 106.608 421.804 106.928 422.508 107.568C423.212 108.197 423.622 109.04 423.74 110.096H422.252C422.145 109.467 421.878 108.939 421.452 108.512C421.025 108.085 420.449 107.872 419.724 107.872C418.796 107.872 418.065 108.277 417.532 109.088C416.998 109.888 416.732 110.992 416.732 112.4C416.732 113.819 416.998 114.928 417.532 115.728C418.065 116.528 418.796 116.928 419.724 116.928C420.481 116.928 421.062 116.725 421.468 116.32C421.884 115.915 422.145 115.392 422.252 114.752H423.74C423.569 115.819 423.142 116.661 422.46 117.28C421.788 117.888 420.876 118.192 419.724 118.192ZM427.95 118V106.8H429.294V112.016L433.678 106.8H435.39L430.67 112.368V112.432L435.454 118H433.71L429.294 112.864V118H427.95ZM443.119 118.192C442.33 118.192 441.626 117.963 441.007 117.504C440.389 117.035 439.903 116.368 439.551 115.504C439.21 114.64 439.039 113.605 439.039 112.4C439.039 111.205 439.215 110.176 439.567 109.312C439.919 108.448 440.415 107.781 441.055 107.312C441.706 106.843 442.474 106.608 443.359 106.608C444.415 106.608 445.274 106.917 445.935 107.536C446.607 108.155 447.007 108.987 447.135 110.032H445.647C445.541 109.392 445.29 108.875 444.895 108.48C444.511 108.075 443.999 107.872 443.359 107.872C442.442 107.872 441.722 108.272 441.199 109.072C440.677 109.872 440.415 110.981 440.415 112.4C440.415 113.84 440.677 114.955 441.199 115.744C441.722 116.533 442.399 116.928 443.231 116.928C443.829 116.928 444.319 116.752 444.703 116.4C445.087 116.037 445.375 115.579 445.567 115.024C445.77 114.459 445.882 113.877 445.903 113.28H443.407V112.128H447.279V118H446.047L445.935 116.304H445.871C445.647 116.88 445.317 117.339 444.879 117.68C444.453 118.021 443.866 118.192 443.119 118.192ZM451.537 118V106.8H454.977C455.841 106.8 456.55 106.944 457.105 107.232C457.67 107.52 458.092 107.915 458.369 108.416C458.646 108.907 458.785 109.467 458.785 110.096C458.785 110.832 458.593 111.483 458.209 112.048C457.836 112.603 457.26 112.992 456.481 113.216L458.913 118H457.313L455.057 113.408H454.977H452.881V118H451.537ZM452.881 112.176H454.929C455.782 112.176 456.406 111.984 456.801 111.6C457.206 111.205 457.409 110.704 457.409 110.096C457.409 109.456 457.212 108.949 456.817 108.576C456.433 108.203 455.798 108.016 454.913 108.016H452.881V112.176ZM466.819 118.192C465.912 118.192 465.133 117.952 464.483 117.472C463.832 116.992 463.331 116.32 462.979 115.456C462.637 114.581 462.467 113.563 462.467 112.4C462.467 111.237 462.637 110.224 462.979 109.36C463.331 108.485 463.832 107.808 464.483 107.328C465.133 106.848 465.912 106.608 466.819 106.608C467.725 106.608 468.504 106.848 469.155 107.328C469.805 107.808 470.301 108.485 470.643 109.36C470.995 110.224 471.171 111.237 471.171 112.4C471.171 113.563 470.995 114.581 470.643 115.456C470.301 116.32 469.805 116.992 469.155 117.472C468.504 117.952 467.725 118.192 466.819 118.192ZM466.819 116.928C467.704 116.928 468.419 116.533 468.963 115.744C469.517 114.955 469.795 113.84 469.795 112.4C469.795 110.96 469.517 109.845 468.963 109.056C468.419 108.267 467.704 107.872 466.819 107.872C465.923 107.872 465.203 108.267 464.659 109.056C464.115 109.845 463.843 110.96 463.843 112.4C463.843 113.84 464.115 114.955 464.659 115.744C465.203 116.533 465.923 116.928 466.819 116.928ZM478.597 118.192C477.85 118.192 477.183 118.037 476.597 117.728C476.021 117.419 475.562 116.949 475.221 116.32C474.89 115.68 474.725 114.88 474.725 113.92V106.8H476.069V113.968C476.069 114.928 476.303 115.669 476.773 116.192C477.242 116.715 477.861 116.976 478.629 116.976C479.397 116.976 480.01 116.715 480.469 116.192C480.927 115.669 481.157 114.928 481.157 113.968V106.8H482.501V113.92C482.501 114.88 482.33 115.68 481.989 116.32C481.647 116.949 481.183 117.419 480.597 117.728C480.01 118.037 479.343 118.192 478.597 118.192ZM486.518 118V106.8H487.894L492.982 115.648V106.8H494.31V118H492.918L487.83 109.152V118H486.518ZM498.456 118V106.8H500.808C502.643 106.8 503.997 107.301 504.872 108.304C505.757 109.307 506.2 110.672 506.2 112.4C506.2 114.128 505.757 115.493 504.872 116.496C503.997 117.499 502.643 118 500.808 118H498.456ZM499.8 116.768H500.776C501.757 116.768 502.541 116.587 503.128 116.224C503.725 115.861 504.157 115.355 504.424 114.704C504.691 114.053 504.824 113.285 504.824 112.4C504.824 111.515 504.691 110.747 504.424 110.096C504.157 109.445 503.725 108.939 503.128 108.576C502.541 108.213 501.757 108.032 500.776 108.032H499.8V116.768ZM514.106 118.192C513.316 118.192 512.628 118.043 512.042 117.744C511.466 117.445 511.018 117.029 510.698 116.496C510.388 115.963 510.228 115.339 510.218 114.624H511.626C511.636 115.264 511.85 115.819 512.266 116.288C512.692 116.747 513.306 116.976 514.106 116.976C514.842 116.976 515.407 116.8 515.802 116.448C516.207 116.085 516.41 115.653 516.41 115.152C516.41 114.736 516.314 114.389 516.122 114.112C515.93 113.824 515.615 113.573 515.178 113.36C514.751 113.136 514.175 112.907 513.45 112.672C512.426 112.363 511.679 111.941 511.21 111.408C510.74 110.875 510.506 110.213 510.506 109.424C510.506 108.891 510.644 108.411 510.922 107.984C511.199 107.557 511.599 107.221 512.122 106.976C512.644 106.731 513.279 106.608 514.026 106.608C514.73 106.608 515.343 106.741 515.866 107.008C516.399 107.264 516.81 107.627 517.098 108.096C517.396 108.565 517.546 109.104 517.546 109.712H516.138C516.138 109.413 516.058 109.12 515.898 108.832C515.738 108.544 515.498 108.304 515.178 108.112C514.858 107.92 514.452 107.824 513.962 107.824C513.375 107.824 512.884 107.968 512.49 108.256C512.095 108.533 511.898 108.917 511.898 109.408C511.898 109.781 511.983 110.096 512.154 110.352C512.335 110.608 512.628 110.843 513.034 111.056C513.439 111.259 513.988 111.477 514.682 111.712C515.332 111.925 515.887 112.176 516.346 112.464C516.815 112.741 517.172 113.088 517.418 113.504C517.674 113.92 517.802 114.437 517.802 115.056C517.802 115.664 517.647 116.203 517.338 116.672C517.028 117.141 516.596 117.515 516.042 117.792C515.487 118.059 514.842 118.192 514.106 118.192Z" fill="#8A4BEB"/>
<rect width="411" height="411" transform="translate(120 303.5)" fill="#FDFBF7"/>
<path d="M325.5 617C385.5 617 433.5 569 433.5 509C433.5 476.909 419.769 448.251 397.815 428.534C383.245 415.448 361.838 404.515 345.039 414.58C337.829 418.899 331.001 426.404 322.5 437.058C301.333 463.585 299.455 480.38 321.45 507.709C322.004 508.397 323.053 508.452 323.677 507.826C346.969 484.438 351.998 470.122 335.904 440.987C335.32 439.93 336.139 438.636 337.338 438.774C373.344 442.92 397.5 471.5 397.5 509C397.5 549.5 366 581 325.5 581C285 581 253.5 549.5 253.5 509C253.5 487.238 262.595 468.074 277.294 455C290.552 443.208 318.51 435.761 325.168 402.768C325.352 401.855 324.64 400.999 323.709 401.014C264.548 401.958 217.5 449.598 217.5 509C217.5 569 265.5 617 325.5 617Z" fill="#8A4BEB"/>
<path d="M276.8 685.24C275.453 685.24 274.26 684.94 273.22 684.34C272.193 683.727 271.387 682.88 270.8 681.8C270.213 680.707 269.92 679.44 269.92 678C269.92 676.573 270.213 675.32 270.8 674.24C271.387 673.147 272.193 672.293 273.22 671.68C274.26 671.067 275.453 670.76 276.8 670.76C278.173 670.76 279.38 671.067 280.42 671.68C281.46 672.293 282.267 673.147 282.84 674.24C283.413 675.32 283.7 676.573 283.7 678C283.7 679.44 283.413 680.707 282.84 681.8C282.267 682.88 281.46 683.727 280.42 684.34C279.38 684.94 278.173 685.24 276.8 685.24ZM276.82 683.08C277.713 683.08 278.493 682.88 279.16 682.48C279.827 682.067 280.34 681.48 280.7 680.72C281.06 679.96 281.24 679.053 281.24 678C281.24 676.947 281.06 676.04 280.7 675.28C280.34 674.52 279.827 673.94 279.16 673.54C278.493 673.127 277.713 672.92 276.82 672.92C275.927 672.92 275.147 673.127 274.48 673.54C273.813 673.94 273.293 674.52 272.92 675.28C272.56 676.04 272.38 676.947 272.38 678C272.38 679.053 272.56 679.96 272.92 680.72C273.293 681.48 273.813 682.067 274.48 682.48C275.147 682.88 275.927 683.08 276.82 683.08ZM285.965 685V674.92H288.085L288.265 676.6C288.572 676.013 289.012 675.547 289.585 675.2C290.158 674.853 290.838 674.68 291.625 674.68C292.438 674.68 293.132 674.853 293.705 675.2C294.278 675.533 294.718 676.027 295.025 676.68C295.345 677.333 295.505 678.147 295.505 679.12V685H293.105V679.34C293.105 678.5 292.918 677.853 292.545 677.4C292.172 676.947 291.618 676.72 290.885 676.72C290.405 676.72 289.972 676.833 289.585 677.06C289.212 677.287 288.912 677.62 288.685 678.06C288.472 678.487 288.365 679.007 288.365 679.62V685H285.965ZM309.378 685.24C308.031 685.24 306.838 684.94 305.798 684.34C304.771 683.727 303.965 682.88 303.378 681.8C302.791 680.707 302.498 679.44 302.498 678C302.498 676.573 302.791 675.32 303.378 674.24C303.965 673.147 304.771 672.293 305.798 671.68C306.838 671.067 308.031 670.76 309.378 670.76C310.751 670.76 311.958 671.067 312.998 671.68C314.038 672.293 314.845 673.147 315.418 674.24C315.991 675.32 316.278 676.573 316.278 678C316.278 679.44 315.991 680.707 315.418 681.8C314.845 682.88 314.038 683.727 312.998 684.34C311.958 684.94 310.751 685.24 309.378 685.24ZM309.398 683.08C310.291 683.08 311.071 682.88 311.738 682.48C312.405 682.067 312.918 681.48 313.278 680.72C313.638 679.96 313.818 679.053 313.818 678C313.818 676.947 313.638 676.04 313.278 675.28C312.918 674.52 312.405 673.94 311.738 673.54C311.071 673.127 310.291 672.92 309.398 672.92C308.505 672.92 307.725 673.127 307.058 673.54C306.391 673.94 305.871 674.52 305.498 675.28C305.138 676.04 304.958 676.947 304.958 678C304.958 679.053 305.138 679.96 305.498 680.72C305.871 681.48 306.391 682.067 307.058 682.48C307.725 682.88 308.505 683.08 309.398 683.08ZM321.903 685.24C321.076 685.24 320.39 685.1 319.843 684.82C319.296 684.54 318.89 684.167 318.623 683.7C318.356 683.233 318.223 682.727 318.223 682.18C318.223 681.54 318.383 680.987 318.703 680.52C319.036 680.053 319.523 679.693 320.163 679.44C320.803 679.173 321.59 679.04 322.523 679.04H325.063C325.063 678.507 324.99 678.067 324.843 677.72C324.696 677.36 324.47 677.093 324.163 676.92C323.856 676.747 323.463 676.66 322.983 676.66C322.436 676.66 321.97 676.787 321.583 677.04C321.196 677.28 320.956 677.653 320.863 678.16H318.503C318.583 677.44 318.823 676.827 319.223 676.32C319.623 675.8 320.15 675.4 320.803 675.12C321.47 674.827 322.196 674.68 322.983 674.68C323.93 674.68 324.736 674.847 325.403 675.18C326.07 675.5 326.576 675.967 326.923 676.58C327.283 677.18 327.463 677.907 327.463 678.76V685H325.423L325.183 683.38C325.05 683.647 324.876 683.893 324.663 684.12C324.463 684.347 324.23 684.547 323.963 684.72C323.696 684.88 323.39 685.007 323.043 685.1C322.71 685.193 322.33 685.24 321.903 685.24ZM322.443 683.34C322.83 683.34 323.17 683.273 323.463 683.14C323.77 682.993 324.03 682.793 324.243 682.54C324.47 682.273 324.643 681.98 324.763 681.66C324.883 681.34 324.963 681 325.003 680.64V680.6H322.783C322.316 680.6 321.93 680.66 321.623 680.78C321.316 680.887 321.096 681.047 320.963 681.26C320.83 681.473 320.763 681.72 320.763 682C320.763 682.28 320.83 682.52 320.963 682.72C321.096 682.92 321.29 683.073 321.543 683.18C321.796 683.287 322.096 683.34 322.443 683.34ZM334.251 685C333.571 685 332.978 684.893 332.471 684.68C331.978 684.467 331.591 684.113 331.311 683.62C331.031 683.127 330.891 682.46 330.891 681.62V676.94H329.171V674.92H330.891L331.171 672.26H333.291V674.92H336.031V676.94H333.291V681.62C333.291 682.127 333.398 682.48 333.611 682.68C333.838 682.867 334.211 682.96 334.731 682.96H335.971V685H334.251ZM338.289 685V674.92H340.409L340.609 676.3C340.929 675.793 341.349 675.4 341.869 675.12C342.403 674.827 343.009 674.68 343.689 674.68C344.196 674.68 344.649 674.747 345.049 674.88C345.463 675.013 345.823 675.213 346.129 675.48C346.449 675.747 346.709 676.08 346.909 676.48C347.283 675.92 347.769 675.48 348.369 675.16C348.969 674.84 349.623 674.68 350.329 674.68C351.169 674.68 351.883 674.853 352.469 675.2C353.056 675.533 353.503 676.033 353.809 676.7C354.116 677.353 354.269 678.16 354.269 679.12V685H351.889V679.36C351.889 678.507 351.716 677.853 351.369 677.4C351.023 676.947 350.509 676.72 349.829 676.72C349.363 676.72 348.949 676.833 348.589 677.06C348.243 677.287 347.969 677.62 347.769 678.06C347.569 678.487 347.469 679.013 347.469 679.64V685H345.089V679.36C345.089 678.507 344.916 677.853 344.569 677.4C344.223 676.947 343.703 676.72 343.009 676.72C342.569 676.72 342.169 676.833 341.809 677.06C341.463 677.287 341.189 677.62 340.989 678.06C340.789 678.487 340.689 679.013 340.689 679.64V685H338.289ZM361.525 685.24C360.525 685.24 359.645 685.027 358.885 684.6C358.125 684.16 357.532 683.547 357.105 682.76C356.678 681.973 356.465 681.067 356.465 680.04C356.465 678.973 356.672 678.04 357.085 677.24C357.512 676.44 358.105 675.813 358.865 675.36C359.638 674.907 360.532 674.68 361.545 674.68C362.532 674.68 363.392 674.9 364.125 675.34C364.858 675.78 365.425 676.373 365.825 677.12C366.225 677.853 366.425 678.68 366.425 679.6C366.425 679.733 366.425 679.88 366.425 680.04C366.425 680.2 366.412 680.367 366.385 680.54H358.185V679H364.005C363.978 678.267 363.732 677.693 363.265 677.28C362.798 676.853 362.218 676.64 361.525 676.64C361.032 676.64 360.578 676.753 360.165 676.98C359.752 677.207 359.425 677.547 359.185 678C358.945 678.44 358.825 679 358.825 679.68V680.26C358.825 680.887 358.938 681.427 359.165 681.88C359.405 682.333 359.725 682.68 360.125 682.92C360.538 683.147 360.998 683.26 361.505 683.26C362.065 683.26 362.525 683.14 362.885 682.9C363.258 682.66 363.532 682.34 363.705 681.94H366.145C365.958 682.567 365.652 683.133 365.225 683.64C364.798 684.133 364.272 684.527 363.645 684.82C363.018 685.1 362.312 685.24 361.525 685.24ZM372.001 685.24C371.174 685.24 370.487 685.1 369.941 684.82C369.394 684.54 368.987 684.167 368.721 683.7C368.454 683.233 368.321 682.727 368.321 682.18C368.321 681.54 368.481 680.987 368.801 680.52C369.134 680.053 369.621 679.693 370.261 679.44C370.901 679.173 371.687 679.04 372.621 679.04H375.161C375.161 678.507 375.087 678.067 374.941 677.72C374.794 677.36 374.567 677.093 374.261 676.92C373.954 676.747 373.561 676.66 373.081 676.66C372.534 676.66 372.067 676.787 371.681 677.04C371.294 677.28 371.054 677.653 370.961 678.16H368.601C368.681 677.44 368.921 676.827 369.321 676.32C369.721 675.8 370.247 675.4 370.901 675.12C371.567 674.827 372.294 674.68 373.081 674.68C374.027 674.68 374.834 674.847 375.501 675.18C376.167 675.5 376.674 675.967 377.021 676.58C377.381 677.18 377.561 677.907 377.561 678.76V685H375.521L375.281 683.38C375.147 683.647 374.974 683.893 374.761 684.12C374.561 684.347 374.327 684.547 374.061 684.72C373.794 684.88 373.487 685.007 373.141 685.1C372.807 685.193 372.427 685.24 372.001 685.24ZM372.541 683.34C372.927 683.34 373.267 683.273 373.561 683.14C373.867 682.993 374.127 682.793 374.341 682.54C374.567 682.273 374.741 681.98 374.861 681.66C374.981 681.34 375.061 681 375.101 680.64V680.6H372.881C372.414 680.6 372.027 680.66 371.721 680.78C371.414 680.887 371.194 681.047 371.061 681.26C370.927 681.473 370.861 681.72 370.861 682C370.861 682.28 370.927 682.52 371.061 682.72C371.194 682.92 371.387 683.073 371.641 683.18C371.894 683.287 372.194 683.34 372.541 683.34ZM380.125 685V670.6H382.525V685H380.125Z" fill="#1E1E1E"/>
<rect width="411" height="411" transform="translate(543 303.5)" fill="#8A4BEB"/>
<path d="M748.5 617C808.5 617 856.5 569 856.5 509C856.5 476.909 842.769 448.251 820.815 428.534C806.245 415.448 784.838 404.515 768.039 414.58C760.829 418.899 754.001 426.404 745.5 437.058C724.333 463.585 722.455 480.38 744.45 507.709C745.004 508.397 746.053 508.452 746.677 507.826C769.969 484.438 774.998 470.122 758.904 440.987C758.32 439.93 759.139 438.636 760.338 438.774C796.344 442.92 820.5 471.5 820.5 509C820.5 549.5 789 581 748.5 581C708 581 676.5 549.5 676.5 509C676.5 487.238 685.595 468.074 700.294 455C713.552 443.208 741.51 435.761 748.168 402.768C748.352 401.855 747.64 400.999 746.709 401.014C687.548 401.958 640.5 449.598 640.5 509C640.5 569 688.5 617 748.5 617Z" fill="white"/>
<path d="M699.8 685.24C698.453 685.24 697.26 684.94 696.22 684.34C695.193 683.727 694.387 682.88 693.8 681.8C693.213 680.707 692.92 679.44 692.92 678C692.92 676.573 693.213 675.32 693.8 674.24C694.387 673.147 695.193 672.293 696.22 671.68C697.26 671.067 698.453 670.76 699.8 670.76C701.173 670.76 702.38 671.067 703.42 671.68C704.46 672.293 705.267 673.147 705.84 674.24C706.413 675.32 706.7 676.573 706.7 678C706.7 679.44 706.413 680.707 705.84 681.8C705.267 682.88 704.46 683.727 703.42 684.34C702.38 684.94 701.173 685.24 699.8 685.24ZM699.82 683.08C700.713 683.08 701.493 682.88 702.16 682.48C702.827 682.067 703.34 681.48 703.7 680.72C704.06 679.96 704.24 679.053 704.24 678C704.24 676.947 704.06 676.04 703.7 675.28C703.34 674.52 702.827 673.94 702.16 673.54C701.493 673.127 700.713 672.92 699.82 672.92C698.927 672.92 698.147 673.127 697.48 673.54C696.813 673.94 696.293 674.52 695.92 675.28C695.56 676.04 695.38 676.947 695.38 678C695.38 679.053 695.56 679.96 695.92 680.72C696.293 681.48 696.813 682.067 697.48 682.48C698.147 682.88 698.927 683.08 699.82 683.08ZM708.965 685V674.92H711.085L711.265 676.6C711.572 676.013 712.012 675.547 712.585 675.2C713.158 674.853 713.838 674.68 714.625 674.68C715.438 674.68 716.132 674.853 716.705 675.2C717.278 675.533 717.718 676.027 718.025 676.68C718.345 677.333 718.505 678.147 718.505 679.12V685H716.105V679.34C716.105 678.5 715.918 677.853 715.545 677.4C715.172 676.947 714.618 676.72 713.885 676.72C713.405 676.72 712.972 676.833 712.585 677.06C712.212 677.287 711.912 677.62 711.685 678.06C711.472 678.487 711.365 679.007 711.365 679.62V685H708.965ZM730.058 685L724.918 671H727.498L731.518 682.54L735.598 671H738.138L732.978 685H730.058ZM739.924 685V674.92H742.324V685H739.924ZM741.124 673.32C740.684 673.32 740.318 673.187 740.024 672.92C739.744 672.64 739.604 672.3 739.604 671.9C739.604 671.487 739.744 671.153 740.024 670.9C740.318 670.633 740.684 670.5 741.124 670.5C741.564 670.5 741.924 670.633 742.204 670.9C742.498 671.153 742.644 671.487 742.644 671.9C742.644 672.3 742.498 672.64 742.204 672.92C741.924 673.187 741.564 673.32 741.124 673.32ZM749.798 685.24C748.838 685.24 747.971 685.02 747.198 684.58C746.438 684.127 745.838 683.507 745.398 682.72C744.971 681.92 744.758 681.007 744.758 679.98C744.758 678.927 744.978 678.007 745.418 677.22C745.858 676.42 746.458 675.8 747.218 675.36C747.991 674.907 748.858 674.68 749.818 674.68C750.778 674.68 751.638 674.907 752.398 675.36C753.171 675.8 753.771 676.413 754.198 677.2C754.638 677.987 754.858 678.907 754.858 679.96C754.858 681.013 754.638 681.933 754.198 682.72C753.758 683.507 753.151 684.127 752.378 684.58C751.618 685.02 750.758 685.24 749.798 685.24ZM749.798 683.18C750.278 683.18 750.711 683.06 751.098 682.82C751.498 682.58 751.818 682.22 752.058 681.74C752.298 681.26 752.418 680.667 752.418 679.96C752.418 679.253 752.298 678.667 752.058 678.2C751.831 677.72 751.518 677.36 751.118 677.12C750.731 676.88 750.298 676.76 749.818 676.76C749.351 676.76 748.918 676.88 748.518 677.12C748.118 677.36 747.798 677.72 747.558 678.2C747.318 678.667 747.198 679.253 747.198 679.96C747.198 680.667 747.318 681.26 747.558 681.74C747.798 682.22 748.111 682.58 748.498 682.82C748.898 683.06 749.331 683.18 749.798 683.18ZM757.207 685V670.6H759.607V685H757.207ZM767.005 685.24C766.005 685.24 765.125 685.027 764.365 684.6C763.605 684.16 763.012 683.547 762.585 682.76C762.159 681.973 761.945 681.067 761.945 680.04C761.945 678.973 762.152 678.04 762.565 677.24C762.992 676.44 763.585 675.813 764.345 675.36C765.119 674.907 766.012 674.68 767.025 674.68C768.012 674.68 768.872 674.9 769.605 675.34C770.339 675.78 770.905 676.373 771.305 677.12C771.705 677.853 771.905 678.68 771.905 679.6C771.905 679.733 771.905 679.88 771.905 680.04C771.905 680.2 771.892 680.367 771.865 680.54H763.665V679H769.485C769.459 678.267 769.212 677.693 768.745 677.28C768.279 676.853 767.699 676.64 767.005 676.64C766.512 676.64 766.059 676.753 765.645 676.98C765.232 677.207 764.905 677.547 764.665 678C764.425 678.44 764.305 679 764.305 679.68V680.26C764.305 680.887 764.419 681.427 764.645 681.88C764.885 682.333 765.205 682.68 765.605 682.92C766.019 683.147 766.479 683.26 766.985 683.26C767.545 683.26 768.005 683.14 768.365 682.9C768.739 682.66 769.012 682.34 769.185 681.94H771.625C771.439 682.567 771.132 683.133 770.705 683.64C770.279 684.133 769.752 684.527 769.125 684.82C768.499 685.1 767.792 685.24 767.005 685.24ZM778.306 685C777.626 685 777.033 684.893 776.526 684.68C776.033 684.467 775.646 684.113 775.366 683.62C775.086 683.127 774.946 682.46 774.946 681.62V676.94H773.226V674.92H774.946L775.226 672.26H777.346V674.92H780.086V676.94H777.346V681.62C777.346 682.127 777.453 682.48 777.666 682.68C777.893 682.867 778.266 682.96 778.786 682.96H780.026V685H778.306Z" fill="white"/>
<rect width="411" height="411" transform="translate(966 303.5)" fill="#1A1023"/>
<path d="M1171.5 617C1231.5 617 1279.5 569 1279.5 509C1279.5 476.909 1265.77 448.251 1243.82 428.534C1229.25 415.448 1207.84 404.515 1191.04 414.58C1183.83 418.899 1177 426.404 1168.5 437.058C1147.33 463.585 1145.46 480.38 1167.45 507.709C1168 508.397 1169.05 508.452 1169.68 507.826C1192.97 484.438 1198 470.122 1181.9 440.987C1181.32 439.93 1182.14 438.636 1183.34 438.774C1219.34 442.92 1243.5 471.5 1243.5 509C1243.5 549.5 1212 581 1171.5 581C1131 581 1099.5 549.5 1099.5 509C1099.5 487.238 1108.6 468.074 1123.29 455C1136.55 443.208 1164.51 435.761 1171.17 402.768C1171.35 401.855 1170.64 400.999 1169.71 401.014C1110.55 401.958 1063.5 449.598 1063.5 509C1063.5 569 1111.5 617 1171.5 617Z" fill="#C4A3F7"/>
<path d="M1125.8 685.24C1124.45 685.24 1123.26 684.94 1122.22 684.34C1121.19 683.727 1120.39 682.88 1119.8 681.8C1119.21 680.707 1118.92 679.44 1118.92 678C1118.92 676.573 1119.21 675.32 1119.8 674.24C1120.39 673.147 1121.19 672.293 1122.22 671.68C1123.26 671.067 1124.45 670.76 1125.8 670.76C1127.17 670.76 1128.38 671.067 1129.42 671.68C1130.46 672.293 1131.27 673.147 1131.84 674.24C1132.41 675.32 1132.7 676.573 1132.7 678C1132.7 679.44 1132.41 680.707 1131.84 681.8C1131.27 682.88 1130.46 683.727 1129.42 684.34C1128.38 684.94 1127.17 685.24 1125.8 685.24ZM1125.82 683.08C1126.71 683.08 1127.49 682.88 1128.16 682.48C1128.83 682.067 1129.34 681.48 1129.7 680.72C1130.06 679.96 1130.24 679.053 1130.24 678C1130.24 676.947 1130.06 676.04 1129.7 675.28C1129.34 674.52 1128.83 673.94 1128.16 673.54C1127.49 673.127 1126.71 672.92 1125.82 672.92C1124.93 672.92 1124.15 673.127 1123.48 673.54C1122.81 673.94 1122.29 674.52 1121.92 675.28C1121.56 676.04 1121.38 676.947 1121.38 678C1121.38 679.053 1121.56 679.96 1121.92 680.72C1122.29 681.48 1122.81 682.067 1123.48 682.48C1124.15 682.88 1124.93 683.08 1125.82 683.08ZM1134.97 685V674.92H1137.09L1137.27 676.6C1137.57 676.013 1138.01 675.547 1138.59 675.2C1139.16 674.853 1139.84 674.68 1140.63 674.68C1141.44 674.68 1142.13 674.853 1142.71 675.2C1143.28 675.533 1143.72 676.027 1144.03 676.68C1144.35 677.333 1144.51 678.147 1144.51 679.12V685H1142.11V679.34C1142.11 678.5 1141.92 677.853 1141.55 677.4C1141.17 676.947 1140.62 676.72 1139.89 676.72C1139.41 676.72 1138.97 676.833 1138.59 677.06C1138.21 677.287 1137.91 677.62 1137.69 678.06C1137.47 678.487 1137.37 679.007 1137.37 679.62V685H1134.97ZM1152 685V671H1156.52C1158.14 671 1159.48 671.287 1160.54 671.86C1161.6 672.433 1162.39 673.247 1162.9 674.3C1163.42 675.34 1163.68 676.58 1163.68 678.02C1163.68 679.433 1163.42 680.667 1162.9 681.72C1162.39 682.76 1161.6 683.567 1160.54 684.14C1159.48 684.713 1158.14 685 1156.52 685H1152ZM1154.4 682.96H1156.4C1157.61 682.96 1158.56 682.767 1159.26 682.38C1159.96 681.98 1160.46 681.413 1160.76 680.68C1161.06 679.933 1161.22 679.047 1161.22 678.02C1161.22 676.98 1161.06 676.093 1160.76 675.36C1160.46 674.613 1159.96 674.04 1159.26 673.64C1158.56 673.227 1157.61 673.02 1156.4 673.02H1154.4V682.96ZM1169.3 685.24C1168.47 685.24 1167.79 685.1 1167.24 684.82C1166.69 684.54 1166.29 684.167 1166.02 683.7C1165.75 683.233 1165.62 682.727 1165.62 682.18C1165.62 681.54 1165.78 680.987 1166.1 680.52C1166.43 680.053 1166.92 679.693 1167.56 679.44C1168.2 679.173 1168.99 679.04 1169.92 679.04H1172.46C1172.46 678.507 1172.39 678.067 1172.24 677.72C1172.09 677.36 1171.87 677.093 1171.56 676.92C1171.25 676.747 1170.86 676.66 1170.38 676.66C1169.83 676.66 1169.37 676.787 1168.98 677.04C1168.59 677.28 1168.35 677.653 1168.26 678.16H1165.9C1165.98 677.44 1166.22 676.827 1166.62 676.32C1167.02 675.8 1167.55 675.4 1168.2 675.12C1168.87 674.827 1169.59 674.68 1170.38 674.68C1171.33 674.68 1172.13 674.847 1172.8 675.18C1173.47 675.5 1173.97 675.967 1174.32 676.58C1174.68 677.18 1174.86 677.907 1174.86 678.76V685H1172.82L1172.58 683.38C1172.45 683.647 1172.27 683.893 1172.06 684.12C1171.86 684.347 1171.63 684.547 1171.36 684.72C1171.09 684.88 1170.79 685.007 1170.44 685.1C1170.11 685.193 1169.73 685.24 1169.3 685.24ZM1169.84 683.34C1170.23 683.34 1170.57 683.273 1170.86 683.14C1171.17 682.993 1171.43 682.793 1171.64 682.54C1171.87 682.273 1172.04 681.98 1172.16 681.66C1172.28 681.34 1172.36 681 1172.4 680.64V680.6H1170.18C1169.71 680.6 1169.33 680.66 1169.02 680.78C1168.71 680.887 1168.49 681.047 1168.36 681.26C1168.23 681.473 1168.16 681.72 1168.16 682C1168.16 682.28 1168.23 682.52 1168.36 682.72C1168.49 682.92 1168.69 683.073 1168.94 683.18C1169.19 683.287 1169.49 683.34 1169.84 683.34ZM1177.43 685V674.92H1179.57L1179.79 676.8C1180.03 676.36 1180.33 675.987 1180.69 675.68C1181.05 675.36 1181.47 675.113 1181.95 674.94C1182.44 674.767 1182.98 674.68 1183.57 674.68V677.22H1182.73C1182.33 677.22 1181.95 677.273 1181.59 677.38C1181.23 677.473 1180.91 677.633 1180.65 677.86C1180.39 678.073 1180.19 678.373 1180.05 678.76C1179.9 679.133 1179.83 679.607 1179.83 680.18V685H1177.43ZM1191.88 685L1187.42 679.48L1191.42 674.92H1194.28L1189.3 680.46V678.6L1194.88 685H1191.88ZM1185.38 685V670.6H1187.78V685H1185.38ZM1201.45 685V671H1203.85V685H1201.45ZM1206.59 685V674.92H1208.71L1208.89 676.6C1209.19 676.013 1209.63 675.547 1210.21 675.2C1210.78 674.853 1211.46 674.68 1212.25 674.68C1213.06 674.68 1213.75 674.853 1214.33 675.2C1214.9 675.533 1215.34 676.027 1215.65 676.68C1215.97 677.333 1216.13 678.147 1216.13 679.12V685H1213.73V679.34C1213.73 678.5 1213.54 677.853 1213.17 677.4C1212.79 676.947 1212.24 676.72 1211.51 676.72C1211.03 676.72 1210.59 676.833 1210.21 677.06C1209.83 677.287 1209.53 677.62 1209.31 678.06C1209.09 678.487 1208.99 679.007 1208.99 679.62V685H1206.59ZM1225.16 685L1220.7 679.48L1224.7 674.92H1227.56L1222.58 680.46V678.6L1228.16 685H1225.16ZM1218.66 685V670.6H1221.06V685H1218.66Z" fill="#C4A3F7"/>
<rect width="411" height="411" transform="translate(1389 303.5)" fill="white"/>
<path d="M1594.5 617C1654.5 617 1702.5 569 1702.5 509C1702.5 476.909 1688.77 448.251 1666.82 428.534C1652.25 415.448 1630.84 404.515 1614.04 414.58C1606.83 418.899 1600 426.404 1591.5 437.058C1570.33 463.585 1568.46 480.38 1590.45 507.709C1591 508.397 1592.05 508.452 1592.68 507.826C1615.97 484.438 1621 470.122 1604.9 440.987C1604.32 439.93 1605.14 438.636 1606.34 438.774C1642.34 442.92 1666.5 471.5 1666.5 509C1666.5 549.5 1635 581 1594.5 581C1554 581 1522.5 549.5 1522.5 509C1522.5 487.238 1531.6 468.074 1546.29 455C1559.55 443.208 1587.51 435.761 1594.17 402.768C1594.35 401.855 1593.64 400.999 1592.71 401.014C1533.55 401.958 1486.5 449.598 1486.5 509C1486.5 569 1534.5 617 1594.5 617Z" fill="#8A4BEB"/>
<path d="M1557.8 685.24C1556.45 685.24 1555.26 684.94 1554.22 684.34C1553.19 683.727 1552.39 682.88 1551.8 681.8C1551.21 680.707 1550.92 679.44 1550.92 678C1550.92 676.573 1551.21 675.32 1551.8 674.24C1552.39 673.147 1553.19 672.293 1554.22 671.68C1555.26 671.067 1556.45 670.76 1557.8 670.76C1559.17 670.76 1560.38 671.067 1561.42 671.68C1562.46 672.293 1563.27 673.147 1563.84 674.24C1564.41 675.32 1564.7 676.573 1564.7 678C1564.7 679.44 1564.41 680.707 1563.84 681.8C1563.27 682.88 1562.46 683.727 1561.42 684.34C1560.38 684.94 1559.17 685.24 1557.8 685.24ZM1557.82 683.08C1558.71 683.08 1559.49 682.88 1560.16 682.48C1560.83 682.067 1561.34 681.48 1561.7 680.72C1562.06 679.96 1562.24 679.053 1562.24 678C1562.24 676.947 1562.06 676.04 1561.7 675.28C1561.34 674.52 1560.83 673.94 1560.16 673.54C1559.49 673.127 1558.71 672.92 1557.82 672.92C1556.93 672.92 1556.15 673.127 1555.48 673.54C1554.81 673.94 1554.29 674.52 1553.92 675.28C1553.56 676.04 1553.38 676.947 1553.38 678C1553.38 679.053 1553.56 679.96 1553.92 680.72C1554.29 681.48 1554.81 682.067 1555.48 682.48C1556.15 682.88 1556.93 683.08 1557.82 683.08ZM1566.97 685V674.92H1569.09L1569.27 676.6C1569.57 676.013 1570.01 675.547 1570.59 675.2C1571.16 674.853 1571.84 674.68 1572.63 674.68C1573.44 674.68 1574.13 674.853 1574.71 675.2C1575.28 675.533 1575.72 676.027 1576.03 676.68C1576.35 677.333 1576.51 678.147 1576.51 679.12V685H1574.11V679.34C1574.11 678.5 1573.92 677.853 1573.55 677.4C1573.17 676.947 1572.62 676.72 1571.89 676.72C1571.41 676.72 1570.97 676.833 1570.59 677.06C1570.21 677.287 1569.91 677.62 1569.69 678.06C1569.47 678.487 1569.37 679.007 1569.37 679.62V685H1566.97ZM1586.82 685L1583.1 671H1585.66L1588.28 682.26L1591.32 671H1593.98L1596.92 682.28L1599.56 671H1602.14L1598.32 685H1595.48L1592.6 674.4L1589.64 685H1586.82ZM1603.98 685V670.6H1606.38V676.48C1606.71 675.933 1607.16 675.5 1607.74 675.18C1608.31 674.847 1608.96 674.68 1609.68 674.68C1610.5 674.68 1611.2 674.853 1611.78 675.2C1612.35 675.533 1612.78 676.033 1613.08 676.7C1613.38 677.353 1613.54 678.173 1613.54 679.16V685H1611.16V679.38C1611.16 678.513 1610.97 677.853 1610.6 677.4C1610.24 676.947 1609.68 676.72 1608.94 676.72C1608.46 676.72 1608.02 676.84 1607.64 677.08C1607.25 677.307 1606.94 677.64 1606.72 678.08C1606.49 678.507 1606.38 679.033 1606.38 679.66V685H1603.98ZM1616.19 685V674.92H1618.59V685H1616.19ZM1617.39 673.32C1616.95 673.32 1616.58 673.187 1616.29 672.92C1616.01 672.64 1615.87 672.3 1615.87 671.9C1615.87 671.487 1616.01 671.153 1616.29 670.9C1616.58 670.633 1616.95 670.5 1617.39 670.5C1617.83 670.5 1618.19 670.633 1618.47 670.9C1618.76 671.153 1618.91 671.487 1618.91 671.9C1618.91 672.3 1618.76 672.64 1618.47 672.92C1618.19 673.187 1617.83 673.32 1617.39 673.32ZM1625.74 685C1625.06 685 1624.47 684.893 1623.96 684.68C1623.47 684.467 1623.08 684.113 1622.8 683.62C1622.52 683.127 1622.38 682.46 1622.38 681.62V676.94H1620.66V674.92H1622.38L1622.66 672.26H1624.78V674.92H1627.52V676.94H1624.78V681.62C1624.78 682.127 1624.89 682.48 1625.1 682.68C1625.33 682.867 1625.7 682.96 1626.22 682.96H1627.46V685H1625.74ZM1634.24 685.24C1633.24 685.24 1632.36 685.027 1631.6 684.6C1630.84 684.16 1630.25 683.547 1629.82 682.76C1629.4 681.973 1629.18 681.067 1629.18 680.04C1629.18 678.973 1629.39 678.04 1629.8 677.24C1630.23 676.44 1630.82 675.813 1631.58 675.36C1632.36 674.907 1633.25 674.68 1634.26 674.68C1635.25 674.68 1636.11 674.9 1636.84 675.34C1637.58 675.78 1638.14 676.373 1638.54 677.12C1638.94 677.853 1639.14 678.68 1639.14 679.6C1639.14 679.733 1639.14 679.88 1639.14 680.04C1639.14 680.2 1639.13 680.367 1639.1 680.54H1630.9V679H1636.72C1636.7 678.267 1636.45 677.693 1635.98 677.28C1635.52 676.853 1634.94 676.64 1634.24 676.64C1633.75 676.64 1633.3 676.753 1632.88 676.98C1632.47 677.207 1632.14 677.547 1631.9 678C1631.66 678.44 1631.54 679 1631.54 679.68V680.26C1631.54 680.887 1631.66 681.427 1631.88 681.88C1632.12 682.333 1632.44 682.68 1632.84 682.92C1633.26 683.147 1633.72 683.26 1634.22 683.26C1634.78 683.26 1635.24 683.14 1635.6 682.9C1635.98 682.66 1636.25 682.34 1636.42 681.94H1638.86C1638.68 682.567 1638.37 683.133 1637.94 683.64C1637.52 684.133 1636.99 684.527 1636.36 684.82C1635.74 685.1 1635.03 685.24 1634.24 685.24Z" fill="#1E1E1E"/>
<path d="M121.008 928.176C121.475 928.195 122.072 928.213 122.8 928.232C123.528 928.251 124.256 928.26 124.984 928.26C125.899 928.26 126.767 928.251 127.588 928.232C128.409 928.213 128.988 928.204 129.324 928.204C131.527 928.204 133.169 928.615 134.252 929.436C135.353 930.257 135.904 931.312 135.904 932.6C135.904 933.253 135.727 933.907 135.372 934.56C135.036 935.213 134.485 935.801 133.72 936.324C132.973 936.847 131.993 937.239 130.78 937.5V937.556C132.423 937.705 133.72 938.041 134.672 938.564C135.643 939.068 136.333 939.675 136.744 940.384C137.155 941.075 137.36 941.803 137.36 942.568C137.36 943.707 137.061 944.687 136.464 945.508C135.885 946.311 135.045 946.927 133.944 947.356C132.843 947.785 131.517 948 129.968 948C129.557 948 128.932 947.991 128.092 947.972C127.252 947.935 126.235 947.916 125.04 947.916C124.275 947.916 123.528 947.925 122.8 947.944C122.072 947.944 121.475 947.963 121.008 948V947.44C121.624 947.403 122.081 947.328 122.38 947.216C122.697 947.104 122.903 946.88 122.996 946.544C123.108 946.208 123.164 945.704 123.164 945.032V931.144C123.164 930.453 123.108 929.949 122.996 929.632C122.903 929.296 122.697 929.072 122.38 928.96C122.081 928.829 121.624 928.755 121.008 928.736V928.176ZM128.848 928.736C128.083 928.736 127.579 928.895 127.336 929.212C127.112 929.529 127 930.173 127 931.144V945.032C127 945.685 127.056 946.18 127.168 946.516C127.28 946.852 127.476 947.076 127.756 947.188C128.036 947.3 128.447 947.356 128.988 947.356C130.519 947.356 131.62 946.936 132.292 946.096C132.983 945.237 133.328 944.024 133.328 942.456C133.328 941.019 132.955 939.908 132.208 939.124C131.48 938.34 130.267 937.948 128.568 937.948H126.02C126.02 937.948 126.02 937.873 126.02 937.724C126.02 937.556 126.02 937.472 126.02 937.472H128.428C129.38 937.472 130.117 937.267 130.64 936.856C131.163 936.427 131.517 935.867 131.704 935.176C131.891 934.467 131.984 933.711 131.984 932.908C131.984 931.527 131.741 930.491 131.256 929.8C130.771 929.091 129.968 928.736 128.848 928.736ZM148.29 933.132C148.868 933.132 149.344 933.253 149.718 933.496C150.11 933.739 150.399 934.047 150.586 934.42C150.772 934.793 150.866 935.185 150.866 935.596C150.866 936.212 150.679 936.725 150.306 937.136C149.951 937.547 149.475 937.752 148.878 937.752C148.318 937.752 147.86 937.603 147.506 937.304C147.151 937.005 146.974 936.595 146.974 936.072C146.974 935.605 147.086 935.213 147.31 934.896C147.552 934.579 147.823 934.327 148.122 934.14C147.916 934.028 147.683 933.991 147.422 934.028C146.974 934.065 146.563 934.224 146.19 934.504C145.816 934.784 145.499 935.129 145.238 935.54C144.976 935.951 144.771 936.389 144.622 936.856C144.491 937.323 144.426 937.771 144.426 938.2V945.116C144.426 946.031 144.659 946.647 145.126 946.964C145.592 947.263 146.274 947.412 147.17 947.412V948C146.74 947.981 146.115 947.963 145.294 947.944C144.491 947.907 143.651 947.888 142.774 947.888C142.046 947.888 141.318 947.907 140.59 947.944C139.88 947.963 139.348 947.981 138.994 948V947.412C139.684 947.412 140.17 947.272 140.45 946.992C140.748 946.712 140.898 946.18 140.898 945.396V936.576C140.898 935.736 140.758 935.12 140.478 934.728C140.216 934.317 139.722 934.112 138.994 934.112V933.524C139.591 933.58 140.17 933.608 140.73 933.608C141.42 933.608 142.074 933.58 142.69 933.524C143.324 933.449 143.903 933.347 144.426 933.216V936.128C144.65 935.605 144.939 935.12 145.294 934.672C145.667 934.224 146.106 933.86 146.61 933.58C147.132 933.281 147.692 933.132 148.29 933.132ZM155.737 948.196C154.935 948.196 154.253 948.047 153.693 947.748C153.133 947.431 152.713 947.011 152.433 946.488C152.153 945.947 152.013 945.349 152.013 944.696C152.013 943.893 152.2 943.24 152.573 942.736C152.947 942.213 153.423 941.803 154.001 941.504C154.599 941.187 155.224 940.925 155.877 940.72C156.531 940.496 157.147 940.291 157.725 940.104C158.304 939.899 158.78 939.665 159.153 939.404C159.527 939.143 159.713 938.797 159.713 938.368V936.324C159.713 935.727 159.62 935.241 159.433 934.868C159.265 934.476 159.004 934.187 158.649 934C158.313 933.795 157.884 933.692 157.361 933.692C156.969 933.692 156.559 933.748 156.129 933.86C155.7 933.972 155.345 934.187 155.065 934.504C155.551 934.635 155.924 934.877 156.185 935.232C156.465 935.587 156.605 936.016 156.605 936.52C156.605 937.099 156.409 937.556 156.017 937.892C155.644 938.209 155.168 938.368 154.589 938.368C153.973 938.368 153.507 938.172 153.189 937.78C152.872 937.388 152.713 936.931 152.713 936.408C152.713 935.885 152.844 935.456 153.105 935.12C153.367 934.765 153.731 934.448 154.197 934.168C154.664 933.851 155.261 933.599 155.989 933.412C156.717 933.225 157.511 933.132 158.369 933.132C159.191 933.132 159.919 933.225 160.553 933.412C161.188 933.58 161.729 933.888 162.177 934.336C162.625 934.765 162.915 935.297 163.045 935.932C163.176 936.567 163.241 937.341 163.241 938.256V945.928C163.241 946.395 163.297 946.731 163.409 946.936C163.521 947.123 163.699 947.216 163.941 947.216C164.128 947.216 164.305 947.169 164.473 947.076C164.641 946.983 164.828 946.852 165.033 946.684L165.341 947.16C164.931 947.477 164.501 947.729 164.053 947.916C163.605 948.103 163.064 948.196 162.429 948.196C161.776 948.196 161.253 948.103 160.861 947.916C160.488 947.729 160.208 947.459 160.021 947.104C159.853 946.749 159.76 946.329 159.741 945.844C159.293 946.591 158.743 947.169 158.089 947.58C157.436 947.991 156.652 948.196 155.737 948.196ZM157.417 946.628C157.865 946.628 158.276 946.507 158.649 946.264C159.041 946.021 159.396 945.657 159.713 945.172V939.516C159.527 939.796 159.256 940.048 158.901 940.272C158.565 940.496 158.201 940.72 157.809 940.944C157.417 941.168 157.044 941.429 156.689 941.728C156.353 942.008 156.064 942.363 155.821 942.792C155.597 943.203 155.485 943.735 155.485 944.388C155.485 945.116 155.663 945.676 156.017 946.068C156.372 946.441 156.839 946.628 157.417 946.628ZM176.198 933.132C176.982 933.132 177.607 933.235 178.074 933.44C178.559 933.645 178.951 933.907 179.25 934.224C179.586 934.579 179.819 935.036 179.95 935.596C180.099 936.156 180.174 936.912 180.174 937.864V945.396C180.174 946.18 180.314 946.712 180.594 946.992C180.893 947.272 181.387 947.412 182.078 947.412V948C181.742 947.981 181.219 947.963 180.51 947.944C179.819 947.907 179.147 947.888 178.494 947.888C177.803 947.888 177.131 947.907 176.478 947.944C175.825 947.963 175.339 947.981 175.022 948V947.412C175.619 947.412 176.039 947.272 176.282 946.992C176.525 946.712 176.646 946.18 176.646 945.396V936.912C176.646 936.408 176.599 935.96 176.506 935.568C176.413 935.157 176.226 934.84 175.946 934.616C175.666 934.373 175.265 934.252 174.742 934.252C174.126 934.252 173.575 934.42 173.09 934.756C172.623 935.092 172.25 935.559 171.97 936.156C171.709 936.735 171.578 937.388 171.578 938.116V945.396C171.578 946.18 171.699 946.712 171.942 946.992C172.185 947.272 172.605 947.412 173.202 947.412V948C172.885 947.981 172.409 947.963 171.774 947.944C171.139 947.907 170.495 947.888 169.842 947.888C169.151 947.888 168.451 947.907 167.742 947.944C167.033 947.963 166.501 947.981 166.146 948V947.412C166.837 947.412 167.322 947.272 167.602 946.992C167.901 946.712 168.05 946.18 168.05 945.396V936.576C168.05 935.736 167.91 935.12 167.63 934.728C167.369 934.317 166.874 934.112 166.146 934.112V933.524C166.743 933.58 167.322 933.608 167.882 933.608C168.573 933.608 169.226 933.58 169.842 933.524C170.477 933.449 171.055 933.347 171.578 933.216V936.016C172.045 934.952 172.689 934.205 173.51 933.776C174.331 933.347 175.227 933.132 176.198 933.132ZM196.593 926.076V944.948C196.593 945.788 196.733 946.413 197.013 946.824C197.293 947.216 197.788 947.412 198.497 947.412V948C197.918 947.944 197.34 947.916 196.761 947.916C196.07 947.916 195.417 947.944 194.801 948C194.185 948.056 193.606 948.159 193.065 948.308V929.436C193.065 928.596 192.925 927.98 192.645 927.588C192.384 927.177 191.889 926.972 191.161 926.972V926.384C191.758 926.44 192.337 926.468 192.897 926.468C193.606 926.468 194.269 926.44 194.885 926.384C195.501 926.309 196.07 926.207 196.593 926.076ZM189.901 933.132C190.722 933.132 191.46 933.291 192.113 933.608C192.766 933.925 193.252 934.457 193.569 935.204L193.233 935.484C192.972 934.943 192.617 934.541 192.169 934.28C191.721 934.019 191.217 933.888 190.657 933.888C189.649 933.888 188.837 934.457 188.221 935.596C187.624 936.716 187.325 938.443 187.325 940.776C187.325 942.344 187.446 943.613 187.689 944.584C187.932 945.536 188.277 946.227 188.725 946.656C189.192 947.085 189.742 947.3 190.377 947.3C191.049 947.3 191.656 947.029 192.197 946.488C192.738 945.928 193.056 945.135 193.149 944.108L193.345 944.892C193.102 946.031 192.645 946.899 191.973 947.496C191.301 948.093 190.414 948.392 189.313 948.392C188.193 948.392 187.194 948.121 186.317 947.58C185.458 947.02 184.786 946.18 184.301 945.06C183.834 943.921 183.601 942.484 183.601 940.748C183.601 939.049 183.881 937.64 184.441 936.52C185.001 935.381 185.757 934.532 186.709 933.972C187.661 933.412 188.725 933.132 189.901 933.132ZM216.783 927.784C218.033 927.784 219.051 927.971 219.835 928.344C220.619 928.699 221.337 929.119 221.991 929.604C222.215 929.791 222.401 929.884 222.551 929.884C222.905 929.884 223.139 929.315 223.251 928.176H223.895C223.857 928.885 223.829 929.753 223.811 930.78C223.792 931.807 223.783 933.16 223.783 934.84H223.139C223.008 933.832 222.821 932.927 222.579 932.124C222.336 931.321 221.897 930.64 221.263 930.08C220.777 929.557 220.161 929.156 219.415 928.876C218.687 928.577 217.949 928.428 217.203 928.428C216.213 928.428 215.345 928.689 214.599 929.212C213.871 929.716 213.255 930.416 212.751 931.312C212.265 932.189 211.901 933.216 211.659 934.392C211.416 935.549 211.295 936.791 211.295 938.116C211.295 941.476 211.78 943.94 212.751 945.508C213.74 947.057 215.187 947.832 217.091 947.832C217.613 947.832 218.061 947.767 218.435 947.636C218.827 947.487 219.144 947.337 219.387 947.188C219.685 946.983 219.881 946.768 219.975 946.544C220.068 946.32 220.115 946.04 220.115 945.704V942.96C220.115 942.139 220.04 941.532 219.891 941.14C219.741 940.729 219.461 940.449 219.051 940.3C218.659 940.151 218.071 940.067 217.287 940.048V939.488C217.66 939.507 218.099 939.525 218.603 939.544C219.125 939.544 219.667 939.553 220.227 939.572C220.805 939.572 221.328 939.572 221.795 939.572C222.523 939.572 223.185 939.563 223.783 939.544C224.38 939.525 224.875 939.507 225.267 939.488V940.048C224.893 940.067 224.604 940.132 224.399 940.244C224.212 940.356 224.091 940.58 224.035 940.916C223.979 941.252 223.951 941.765 223.951 942.456V948H223.391C223.372 947.683 223.297 947.337 223.167 946.964C223.036 946.591 222.84 946.404 222.579 946.404C222.448 946.404 222.299 946.441 222.131 946.516C221.963 946.572 221.673 946.712 221.263 946.936C220.609 947.365 219.909 947.72 219.163 948C218.435 948.261 217.632 948.392 216.755 948.392C214.664 948.392 212.891 948 211.435 947.216C209.997 946.413 208.905 945.265 208.159 943.772C207.412 942.26 207.039 940.459 207.039 938.368C207.039 936.221 207.459 934.355 208.299 932.768C209.139 931.181 210.287 929.959 211.743 929.1C213.217 928.223 214.897 927.784 216.783 927.784ZM240.236 933.216V944.976C240.236 945.816 240.376 946.441 240.656 946.852C240.936 947.244 241.431 947.44 242.14 947.44V948.028C241.562 947.972 240.983 947.944 240.404 947.944C239.714 947.944 239.051 947.972 238.416 948.028C237.8 948.084 237.231 948.187 236.708 948.336V945.536C236.242 946.563 235.598 947.3 234.776 947.748C233.974 948.177 233.106 948.392 232.172 948.392C231.444 948.392 230.828 948.289 230.324 948.084C229.839 947.897 229.447 947.636 229.148 947.3C228.831 946.945 228.607 946.479 228.476 945.9C228.346 945.321 228.28 944.575 228.28 943.66V936.576C228.28 935.736 228.14 935.12 227.86 934.728C227.599 934.317 227.104 934.112 226.376 934.112V933.524C226.974 933.58 227.552 933.608 228.112 933.608C228.803 933.608 229.456 933.58 230.072 933.524C230.707 933.449 231.286 933.347 231.808 933.216V944.64C231.808 945.144 231.846 945.592 231.92 945.984C232.014 946.376 232.191 946.693 232.452 946.936C232.714 947.16 233.106 947.272 233.628 947.272C234.207 947.272 234.73 947.104 235.196 946.768C235.663 946.432 236.027 945.975 236.288 945.396C236.568 944.817 236.708 944.164 236.708 943.436V936.576C236.708 935.736 236.568 935.12 236.288 934.728C236.027 934.317 235.532 934.112 234.804 934.112V933.524C235.402 933.58 235.98 933.608 236.54 933.608C237.231 933.608 237.884 933.58 238.5 933.524C239.135 933.449 239.714 933.347 240.236 933.216ZM246.891 926.384C247.563 926.384 248.114 926.571 248.543 926.944C248.973 927.317 249.187 927.812 249.187 928.428C249.187 929.044 248.973 929.539 248.543 929.912C248.114 930.285 247.563 930.472 246.891 930.472C246.219 930.472 245.669 930.285 245.239 929.912C244.81 929.539 244.595 929.044 244.595 928.428C244.595 927.812 244.81 927.317 245.239 926.944C245.669 926.571 246.219 926.384 246.891 926.384ZM248.851 933.216V945.396C248.851 946.18 248.991 946.712 249.271 946.992C249.57 947.272 250.065 947.412 250.755 947.412V948C250.419 947.981 249.906 947.963 249.215 947.944C248.525 947.907 247.825 947.888 247.115 947.888C246.425 947.888 245.725 947.907 245.015 947.944C244.306 947.963 243.774 947.981 243.419 948V947.412C244.11 947.412 244.595 947.272 244.875 946.992C245.174 946.712 245.323 946.18 245.323 945.396V936.604C245.323 935.745 245.183 935.12 244.903 934.728C244.642 934.317 244.147 934.112 243.419 934.112V933.524C244.017 933.58 244.595 933.608 245.155 933.608C245.846 933.608 246.499 933.58 247.115 933.524C247.75 933.449 248.329 933.347 248.851 933.216ZM265.445 926.076V944.948C265.445 945.788 265.585 946.413 265.865 946.824C266.145 947.216 266.639 947.412 267.349 947.412V948C266.77 947.944 266.191 947.916 265.613 947.916C264.922 947.916 264.269 947.944 263.653 948C263.037 948.056 262.458 948.159 261.917 948.308V929.436C261.917 928.596 261.777 927.98 261.497 927.588C261.235 927.177 260.741 926.972 260.013 926.972V926.384C260.61 926.44 261.189 926.468 261.749 926.468C262.458 926.468 263.121 926.44 263.737 926.384C264.353 926.309 264.922 926.207 265.445 926.076ZM258.753 933.132C259.574 933.132 260.311 933.291 260.965 933.608C261.618 933.925 262.103 934.457 262.421 935.204L262.085 935.484C261.823 934.943 261.469 934.541 261.021 934.28C260.573 934.019 260.069 933.888 259.509 933.888C258.501 933.888 257.689 934.457 257.073 935.596C256.475 936.716 256.177 938.443 256.177 940.776C256.177 942.344 256.298 943.613 256.541 944.584C256.783 945.536 257.129 946.227 257.577 946.656C258.043 947.085 258.594 947.3 259.229 947.3C259.901 947.3 260.507 947.029 261.049 946.488C261.59 945.928 261.907 945.135 262.001 944.108L262.197 944.892C261.954 946.031 261.497 946.899 260.825 947.496C260.153 948.093 259.266 948.392 258.165 948.392C257.045 948.392 256.046 948.121 255.169 947.58C254.31 947.02 253.638 946.18 253.153 945.06C252.686 943.921 252.453 942.484 252.453 940.748C252.453 939.049 252.733 937.64 253.293 936.52C253.853 935.381 254.609 934.532 255.561 933.972C256.513 933.412 257.577 933.132 258.753 933.132ZM275.659 933.132C277.302 933.132 278.59 933.627 279.523 934.616C280.456 935.605 280.923 937.183 280.923 939.348H271.487L271.459 938.816H277.675C277.712 937.901 277.656 937.061 277.507 936.296C277.358 935.512 277.115 934.887 276.779 934.42C276.462 933.953 276.042 933.72 275.519 933.72C274.81 933.72 274.194 934.14 273.671 934.98C273.148 935.801 272.822 937.155 272.691 939.04L272.803 939.208C272.766 939.451 272.738 939.712 272.719 939.992C272.719 940.272 272.719 940.552 272.719 940.832C272.719 942.12 272.906 943.184 273.279 944.024C273.652 944.864 274.138 945.48 274.735 945.872C275.332 946.264 275.948 946.46 276.583 946.46C277.012 946.46 277.451 946.395 277.899 946.264C278.347 946.133 278.786 945.891 279.215 945.536C279.644 945.181 280.036 944.677 280.391 944.024L280.923 944.248C280.718 944.901 280.372 945.555 279.887 946.208C279.42 946.843 278.814 947.365 278.067 947.776C277.32 948.187 276.443 948.392 275.435 948.392C274.166 948.392 273.046 948.112 272.075 947.552C271.104 946.992 270.348 946.161 269.807 945.06C269.266 943.94 268.995 942.577 268.995 940.972C268.995 939.273 269.275 937.845 269.835 936.688C270.414 935.531 271.207 934.653 272.215 934.056C273.223 933.44 274.371 933.132 275.659 933.132ZM288.004 926.076V945.396C288.004 946.18 288.144 946.712 288.424 946.992C288.722 947.272 289.217 947.412 289.908 947.412V948C289.572 947.981 289.058 947.963 288.368 947.944C287.696 947.907 287.005 947.888 286.296 947.888C285.605 947.888 284.896 947.907 284.168 947.944C283.458 947.963 282.926 947.981 282.572 948V947.412C283.262 947.412 283.748 947.272 284.028 946.992C284.326 946.712 284.476 946.18 284.476 945.396V929.436C284.476 928.596 284.345 927.98 284.084 927.588C283.822 927.177 283.318 926.972 282.572 926.972V926.384C283.169 926.44 283.748 926.468 284.308 926.468C285.017 926.468 285.68 926.44 286.296 926.384C286.912 926.309 287.481 926.207 288.004 926.076ZM294.688 926.384C295.36 926.384 295.911 926.571 296.34 926.944C296.77 927.317 296.984 927.812 296.984 928.428C296.984 929.044 296.77 929.539 296.34 929.912C295.911 930.285 295.36 930.472 294.688 930.472C294.016 930.472 293.466 930.285 293.036 929.912C292.607 929.539 292.392 929.044 292.392 928.428C292.392 927.812 292.607 927.317 293.036 926.944C293.466 926.571 294.016 926.384 294.688 926.384ZM296.648 933.216V945.396C296.648 946.18 296.788 946.712 297.068 946.992C297.367 947.272 297.862 947.412 298.552 947.412V948C298.216 947.981 297.703 947.963 297.012 947.944C296.322 947.907 295.622 947.888 294.912 947.888C294.222 947.888 293.522 947.907 292.812 947.944C292.103 947.963 291.571 947.981 291.216 948V947.412C291.907 947.412 292.392 947.272 292.672 946.992C292.971 946.712 293.12 946.18 293.12 945.396V936.604C293.12 935.745 292.98 935.12 292.7 934.728C292.439 934.317 291.944 934.112 291.216 934.112V933.524C291.814 933.58 292.392 933.608 292.952 933.608C293.643 933.608 294.296 933.58 294.912 933.524C295.547 933.449 296.126 933.347 296.648 933.216ZM309.882 933.132C310.666 933.132 311.291 933.235 311.758 933.44C312.243 933.645 312.635 933.907 312.934 934.224C313.27 934.579 313.503 935.036 313.634 935.596C313.783 936.156 313.858 936.912 313.858 937.864V945.396C313.858 946.18 313.998 946.712 314.278 946.992C314.576 947.272 315.071 947.412 315.762 947.412V948C315.426 947.981 314.903 947.963 314.194 947.944C313.503 947.907 312.831 947.888 312.178 947.888C311.487 947.888 310.815 947.907 310.162 947.944C309.508 947.963 309.023 947.981 308.706 948V947.412C309.303 947.412 309.723 947.272 309.966 946.992C310.208 946.712 310.33 946.18 310.33 945.396V936.912C310.33 936.408 310.283 935.96 310.19 935.568C310.096 935.157 309.91 934.84 309.63 934.616C309.35 934.373 308.948 934.252 308.426 934.252C307.81 934.252 307.259 934.42 306.774 934.756C306.307 935.092 305.934 935.559 305.654 936.156C305.392 936.735 305.262 937.388 305.262 938.116V945.396C305.262 946.18 305.383 946.712 305.626 946.992C305.868 947.272 306.288 947.412 306.886 947.412V948C306.568 947.981 306.092 947.963 305.458 947.944C304.823 947.907 304.179 947.888 303.526 947.888C302.835 947.888 302.135 947.907 301.426 947.944C300.716 947.963 300.184 947.981 299.83 948V947.412C300.52 947.412 301.006 947.272 301.286 946.992C301.584 946.712 301.734 946.18 301.734 945.396V936.576C301.734 935.736 301.594 935.12 301.314 934.728C301.052 934.317 300.558 934.112 299.83 934.112V933.524C300.427 933.58 301.006 933.608 301.566 933.608C302.256 933.608 302.91 933.58 303.526 933.524C304.16 933.449 304.739 933.347 305.262 933.216V936.016C305.728 934.952 306.372 934.205 307.194 933.776C308.015 933.347 308.911 933.132 309.882 933.132ZM323.921 933.132C325.563 933.132 326.851 933.627 327.785 934.616C328.718 935.605 329.185 937.183 329.185 939.348H319.749L319.721 938.816H325.937C325.974 937.901 325.918 937.061 325.769 936.296C325.619 935.512 325.377 934.887 325.041 934.42C324.723 933.953 324.303 933.72 323.781 933.72C323.071 933.72 322.455 934.14 321.933 934.98C321.41 935.801 321.083 937.155 320.953 939.04L321.065 939.208C321.027 939.451 320.999 939.712 320.981 939.992C320.981 940.272 320.981 940.552 320.981 940.832C320.981 942.12 321.167 943.184 321.541 944.024C321.914 944.864 322.399 945.48 322.997 945.872C323.594 946.264 324.21 946.46 324.845 946.46C325.274 946.46 325.713 946.395 326.161 946.264C326.609 946.133 327.047 945.891 327.477 945.536C327.906 945.181 328.298 944.677 328.653 944.024L329.185 944.248C328.979 944.901 328.634 945.555 328.149 946.208C327.682 946.843 327.075 947.365 326.329 947.776C325.582 948.187 324.705 948.392 323.697 948.392C322.427 948.392 321.307 948.112 320.337 947.552C319.366 946.992 318.61 946.161 318.069 945.06C317.527 943.94 317.257 942.577 317.257 940.972C317.257 939.273 317.537 937.845 318.097 936.688C318.675 935.531 319.469 934.653 320.477 934.056C321.485 933.44 322.633 933.132 323.921 933.132ZM350.18 933.524V934.112C349.825 934.187 349.489 934.383 349.172 934.7C348.873 935.017 348.584 935.577 348.304 936.38L344.02 948.084C343.796 948.065 343.572 948.056 343.348 948.056C343.124 948.056 342.89 948.065 342.648 948.084L337.608 935.68C337.328 934.971 337.038 934.532 336.74 934.364C336.441 934.196 336.189 934.112 335.984 934.112V933.524C336.506 933.561 337.048 933.599 337.608 933.636C338.168 933.655 338.784 933.664 339.456 933.664C340.034 933.664 340.641 933.655 341.276 933.636C341.929 933.599 342.536 933.561 343.096 933.524V934.112C342.685 934.112 342.312 934.14 341.976 934.196C341.658 934.252 341.444 934.401 341.332 934.644C341.22 934.868 341.266 935.269 341.472 935.848L344.832 944.556L344.58 944.864L347.128 937.948C347.445 937.071 347.576 936.361 347.52 935.82C347.464 935.279 347.258 934.868 346.904 934.588C346.568 934.308 346.082 934.149 345.448 934.112V933.524C345.765 933.543 346.064 933.561 346.344 933.58C346.642 933.599 346.932 933.617 347.212 933.636C347.51 933.636 347.79 933.636 348.052 933.636C348.444 933.636 348.826 933.627 349.2 933.608C349.592 933.589 349.918 933.561 350.18 933.524ZM357.851 933.216V945.228C357.851 946.087 358.019 946.665 358.355 946.964C358.691 947.263 359.27 947.412 360.091 947.412V948C359.718 947.981 359.167 947.963 358.439 947.944C357.73 947.907 356.992 947.888 356.227 947.888C355.294 947.888 354.398 947.907 353.539 947.944C352.699 947.963 352.046 947.981 351.579 948V947.412C352.438 947.412 353.11 947.263 353.595 946.964C354.08 946.647 354.323 946.031 354.323 945.116V938.284C354.323 937.388 354.239 936.725 354.071 936.296C353.903 935.867 353.604 935.587 353.175 935.456C352.746 935.325 352.158 935.26 351.411 935.26V934.644C352.923 934.607 354.174 934.485 355.163 934.28C356.171 934.075 357.067 933.72 357.851 933.216ZM364.512 944.304C365.147 944.304 365.67 944.491 366.08 944.864C366.491 945.237 366.696 945.732 366.696 946.348C366.696 946.964 366.491 947.459 366.08 947.832C365.67 948.205 365.147 948.392 364.512 948.392C363.859 948.392 363.327 948.205 362.916 947.832C362.524 947.459 362.328 946.964 362.328 946.348C362.328 945.732 362.524 945.237 362.916 944.864C363.327 944.491 363.859 944.304 364.512 944.304ZM377.159 933.132C378.597 933.132 379.866 933.44 380.967 934.056C382.069 934.672 382.927 935.531 383.543 936.632C384.178 937.733 384.495 939.031 384.495 940.524C384.495 942.017 384.169 943.361 383.515 944.556C382.881 945.751 381.994 946.693 380.855 947.384C379.717 948.056 378.382 948.392 376.851 948.392C375.451 948.392 374.191 948.093 373.071 947.496C371.97 946.88 371.102 946.012 370.467 944.892C369.833 943.772 369.515 942.465 369.515 940.972C369.515 939.497 369.833 938.172 370.467 936.996C371.102 935.82 371.989 934.887 373.127 934.196C374.285 933.487 375.629 933.132 377.159 933.132ZM376.907 933.636C375.843 933.636 374.966 934.28 374.275 935.568C373.585 936.837 373.239 938.611 373.239 940.888C373.239 942.568 373.417 943.921 373.771 944.948C374.126 945.975 374.602 946.721 375.199 947.188C375.797 947.655 376.431 947.888 377.103 947.888C378.186 947.888 379.063 947.244 379.735 945.956C380.426 944.668 380.771 942.885 380.771 940.608C380.771 938.928 380.594 937.584 380.239 936.576C379.885 935.549 379.418 934.803 378.839 934.336C378.261 933.869 377.617 933.636 376.907 933.636Z" fill="#373737"/>
<path d="M1782 943.24C1780.95 943.24 1780.01 942.947 1779.2 942.36C1778.4 941.773 1777.77 940.94 1777.32 939.86C1776.88 938.78 1776.66 937.493 1776.66 936C1776.66 934.507 1776.88 933.22 1777.32 932.14C1777.77 931.06 1778.4 930.227 1779.2 929.64C1780.01 929.053 1780.95 928.76 1782 928.76C1783.07 928.76 1784 929.053 1784.8 929.64C1785.6 930.227 1786.22 931.06 1786.66 932.14C1787.11 933.22 1787.34 934.507 1787.34 936C1787.34 937.493 1787.11 938.78 1786.66 939.86C1786.22 940.94 1785.6 941.773 1784.8 942.36C1784 942.947 1783.07 943.24 1782 943.24ZM1778.38 936C1778.38 936.907 1778.47 937.727 1778.66 938.46C1778.86 939.18 1779.13 939.787 1779.48 940.28L1783.36 930.66C1782.95 930.433 1782.49 930.32 1782 930.32C1781.29 930.32 1780.67 930.553 1780.12 931.02C1779.57 931.473 1779.15 932.127 1778.84 932.98C1778.53 933.82 1778.38 934.827 1778.38 936ZM1782 941.7C1782.71 941.7 1783.33 941.473 1783.88 941.02C1784.43 940.553 1784.85 939.893 1785.16 939.04C1785.47 938.187 1785.62 937.173 1785.62 936C1785.62 935.093 1785.52 934.28 1785.32 933.56C1785.13 932.827 1784.87 932.213 1784.52 931.72L1780.62 941.36C1781.05 941.587 1781.51 941.7 1782 941.7ZM1794.27 943.24C1793.05 943.24 1792.05 942.947 1791.27 942.36C1790.51 941.76 1789.95 940.96 1789.57 939.96C1789.21 938.947 1789.03 937.807 1789.03 936.54C1789.03 935.007 1789.25 933.66 1789.67 932.5C1790.1 931.327 1790.71 930.413 1791.51 929.76C1792.33 929.093 1793.3 928.76 1794.43 928.76C1795.33 928.76 1796.09 928.933 1796.71 929.28C1797.35 929.613 1797.85 930.073 1798.21 930.66C1798.59 931.233 1798.81 931.88 1798.87 932.6H1797.29C1797.16 931.893 1796.84 931.333 1796.33 930.92C1795.83 930.493 1795.19 930.28 1794.43 930.28C1793.77 930.28 1793.15 930.493 1792.59 930.92C1792.05 931.333 1791.59 931.98 1791.23 932.86C1790.89 933.727 1790.69 934.833 1790.63 936.18H1790.73C1791.04 935.607 1791.51 935.107 1792.15 934.68C1792.79 934.253 1793.57 934.04 1794.47 934.04C1795.31 934.04 1796.07 934.233 1796.73 934.62C1797.4 935.007 1797.93 935.54 1798.31 936.22C1798.71 936.9 1798.91 937.673 1798.91 938.54C1798.91 939.393 1798.72 940.18 1798.33 940.9C1797.96 941.607 1797.42 942.173 1796.71 942.6C1796.02 943.027 1795.21 943.24 1794.27 943.24ZM1794.15 941.72C1795.07 941.72 1795.81 941.427 1796.37 940.84C1796.93 940.253 1797.21 939.52 1797.21 938.64C1797.21 937.747 1796.93 937.013 1796.37 936.44C1795.81 935.853 1795.07 935.56 1794.15 935.56C1793.54 935.56 1793 935.693 1792.53 935.96C1792.08 936.227 1791.72 936.593 1791.45 937.06C1791.2 937.527 1791.07 938.053 1791.07 938.64C1791.07 939.227 1791.2 939.753 1791.45 940.22C1791.72 940.687 1792.08 941.053 1792.53 941.32C1793 941.587 1793.54 941.72 1794.15 941.72Z" fill="#373737"/>
</g>
<path d="M1920 1080V1072H0V1080V1088H1920V1080Z" fill="url(#paint0_linear_37_528)" mask="url(#path-1-inside-1_37_528)"/>
<defs>
<linearGradient id="paint0_linear_37_528" x1="0" y1="0" x2="922.967" y2="1640.83" gradientUnits="userSpaceOnUse">
<stop stop-color="#B07EF5"/>
<stop offset="0.5" stop-opacity="0"/>
<stop offset="1" stop-color="#FF8C76"/>
</linearGradient>
<clipPath id="clip0_37_528">
<path d="M0 0H1920V1080H0V0Z" fill="white"/>
</clipPath>
</defs>
</svg>
