<svg width="1920" height="1080" viewBox="0 0 1920 1080" fill="none" xmlns="http://www.w3.org/2000/svg">
<g clip-path="url(#clip0_26_245)">
<mask id="path-1-inside-1_26_245" fill="white">
<path d="M0 0H1920V1080H0V0Z"/>
</mask>
<path d="M0 0H1920V1080H0V0Z" fill="#F3ECFF"/>
<path d="M121.392 118V106.8H122.736V116.784H128.416V118H121.392ZM136.594 118.192C135.687 118.192 134.908 117.952 134.258 117.472C133.607 116.992 133.106 116.32 132.754 115.456C132.412 114.581 132.242 113.563 132.242 112.4C132.242 111.237 132.412 110.224 132.754 109.36C133.106 108.485 133.607 107.808 134.258 107.328C134.908 106.848 135.687 106.608 136.594 106.608C137.5 106.608 138.279 106.848 138.93 107.328C139.58 107.808 140.076 108.485 140.418 109.36C140.77 110.224 140.946 111.237 140.946 112.4C140.946 113.563 140.77 114.581 140.418 115.456C140.076 116.32 139.58 116.992 138.93 117.472C138.279 117.952 137.5 118.192 136.594 118.192ZM136.594 116.928C137.479 116.928 138.194 116.533 138.738 115.744C139.292 114.955 139.57 113.84 139.57 112.4C139.57 110.96 139.292 109.845 138.738 109.056C138.194 108.267 137.479 107.872 136.594 107.872C135.698 107.872 134.978 108.267 134.434 109.056C133.89 109.845 133.618 110.96 133.618 112.4C133.618 113.84 133.89 114.955 134.434 115.744C134.978 116.533 135.698 116.928 136.594 116.928ZM148.275 118.192C147.486 118.192 146.782 117.963 146.163 117.504C145.545 117.035 145.059 116.368 144.707 115.504C144.366 114.64 144.195 113.605 144.195 112.4C144.195 111.205 144.371 110.176 144.723 109.312C145.075 108.448 145.571 107.781 146.211 107.312C146.862 106.843 147.63 106.608 148.516 106.608C149.571 106.608 150.43 106.917 151.091 107.536C151.763 108.155 152.163 108.987 152.292 110.032H150.804C150.697 109.392 150.446 108.875 150.051 108.48C149.668 108.075 149.156 107.872 148.516 107.872C147.598 107.872 146.878 108.272 146.355 109.072C145.833 109.872 145.571 110.981 145.571 112.4C145.571 113.84 145.833 114.955 146.355 115.744C146.878 116.533 147.555 116.928 148.387 116.928C148.985 116.928 149.475 116.752 149.859 116.4C150.244 116.037 150.532 115.579 150.723 115.024C150.926 114.459 151.038 113.877 151.059 113.28H148.563V112.128H152.436V118H151.203L151.091 116.304H151.028C150.804 116.88 150.473 117.339 150.036 117.68C149.609 118.021 149.022 118.192 148.275 118.192ZM160.181 118.192C159.275 118.192 158.496 117.952 157.845 117.472C157.195 116.992 156.693 116.32 156.341 115.456C156 114.581 155.829 113.563 155.829 112.4C155.829 111.237 156 110.224 156.341 109.36C156.693 108.485 157.195 107.808 157.845 107.328C158.496 106.848 159.275 106.608 160.181 106.608C161.088 106.608 161.867 106.848 162.517 107.328C163.168 107.808 163.664 108.485 164.005 109.36C164.357 110.224 164.533 111.237 164.533 112.4C164.533 113.563 164.357 114.581 164.005 115.456C163.664 116.32 163.168 116.992 162.517 117.472C161.867 117.952 161.088 118.192 160.181 118.192ZM160.181 116.928C161.067 116.928 161.781 116.533 162.325 115.744C162.88 114.955 163.157 113.84 163.157 112.4C163.157 110.96 162.88 109.845 162.325 109.056C161.781 108.267 161.067 107.872 160.181 107.872C159.285 107.872 158.565 108.267 158.021 109.056C157.477 109.845 157.205 110.96 157.205 112.4C157.205 113.84 157.477 114.955 158.021 115.744C158.565 116.533 159.285 116.928 160.181 116.928ZM183.769 118.192C182.862 118.192 182.083 117.952 181.433 117.472C180.782 116.992 180.281 116.32 179.929 115.456C179.587 114.581 179.417 113.563 179.417 112.4C179.417 111.237 179.587 110.224 179.929 109.36C180.281 108.485 180.782 107.808 181.433 107.328C182.083 106.848 182.862 106.608 183.769 106.608C184.675 106.608 185.454 106.848 186.105 107.328C186.755 107.808 187.251 108.485 187.593 109.36C187.945 110.224 188.121 111.237 188.121 112.4C188.121 113.563 187.945 114.581 187.593 115.456C187.251 116.32 186.755 116.992 186.105 117.472C185.454 117.952 184.675 118.192 183.769 118.192ZM183.769 116.928C184.654 116.928 185.369 116.533 185.913 115.744C186.467 114.955 186.745 113.84 186.745 112.4C186.745 110.96 186.467 109.845 185.913 109.056C185.369 108.267 184.654 107.872 183.769 107.872C182.873 107.872 182.153 108.267 181.609 109.056C181.065 109.845 180.793 110.96 180.793 112.4C180.793 113.84 181.065 114.955 181.609 115.744C182.153 116.533 182.873 116.928 183.769 116.928ZM191.674 118V106.8H193.05L198.138 115.648V106.8H199.466V118H198.074L192.986 109.152V118H191.674ZM215.406 118V106.8H217.758C219.593 106.8 220.947 107.301 221.822 108.304C222.707 109.307 223.15 110.672 223.15 112.4C223.15 114.128 222.707 115.493 221.822 116.496C220.947 117.499 219.593 118 217.758 118H215.406ZM216.75 116.768H217.726C218.707 116.768 219.491 116.587 220.078 116.224C220.675 115.861 221.107 115.355 221.374 114.704C221.641 114.053 221.774 113.285 221.774 112.4C221.774 111.515 221.641 110.747 221.374 110.096C221.107 109.445 220.675 108.939 220.078 108.576C219.491 108.213 218.707 108.032 217.726 108.032H216.75V116.768ZM227.728 118V116.832H230.272V107.968H227.728V106.8H234.16V107.968H231.616V116.832H234.16V118H227.728ZM239.394 118V106.8H246.385V108.048H240.738V111.952H245.57V113.152H240.738V118H239.394ZM251.187 118V106.8H258.179V108.048H252.531V111.952H257.363V113.152H252.531V118H251.187ZM262.901 118V106.8H269.893V108.016H264.245V111.744H269.413V112.96H264.245V116.784H269.893V118H262.901ZM274.631 118V106.8H278.071C278.935 106.8 279.644 106.944 280.199 107.232C280.764 107.52 281.185 107.915 281.463 108.416C281.74 108.907 281.879 109.467 281.879 110.096C281.879 110.832 281.687 111.483 281.303 112.048C280.929 112.603 280.353 112.992 279.575 113.216L282.007 118H280.407L278.151 113.408H278.071H275.975V118H274.631ZM275.975 112.176H278.023C278.876 112.176 279.5 111.984 279.895 111.6C280.3 111.205 280.503 110.704 280.503 110.096C280.503 109.456 280.305 108.949 279.911 108.576C279.527 108.203 278.892 108.016 278.007 108.016H275.975V112.176ZM286.489 118V106.8H293.481V108.016H287.833V111.744H293.001V112.96H287.833V116.784H293.481V118H286.489ZM297.818 118V106.8H299.194L304.282 115.648V106.8H305.61V118H304.218L299.13 109.152V118H297.818ZM312.828 118V108.016H309.82V106.8H317.18V108.016H314.172V118H312.828ZM333.344 118V106.8H337.072C338.234 106.8 339.109 107.067 339.696 107.6C340.282 108.133 340.576 108.816 340.576 109.648C340.576 110.299 340.4 110.837 340.048 111.264C339.696 111.68 339.301 111.973 338.864 112.144V112.256C339.386 112.427 339.845 112.736 340.24 113.184C340.634 113.632 340.832 114.208 340.832 114.912C340.832 115.488 340.688 116.011 340.4 116.48C340.122 116.939 339.712 117.307 339.168 117.584C338.634 117.861 337.978 118 337.2 118H333.344ZM334.688 111.632H336.976C337.69 111.632 338.234 111.477 338.608 111.168C338.992 110.848 339.184 110.389 339.184 109.792C339.184 109.227 338.997 108.789 338.624 108.48C338.25 108.171 337.685 108.016 336.928 108.016H334.688V111.632ZM334.688 116.768H337.056C337.824 116.768 338.416 116.597 338.832 116.256C339.248 115.904 339.456 115.413 339.456 114.784C339.456 114.155 339.237 113.669 338.8 113.328C338.362 112.976 337.77 112.8 337.024 112.8H334.688V116.768ZM344.609 118L348.113 106.8H349.665L353.153 118H351.681L350.865 115.216H346.897L346.081 118H344.609ZM348.849 108.688L347.233 114.096H350.529L348.913 108.688H348.849ZM360.755 118.192C359.848 118.192 359.064 117.952 358.403 117.472C357.752 116.992 357.251 116.32 356.899 115.456C356.558 114.592 356.387 113.573 356.387 112.4C356.387 111.237 356.558 110.224 356.899 109.36C357.251 108.485 357.752 107.808 358.403 107.328C359.064 106.848 359.848 106.608 360.755 106.608C361.907 106.608 362.835 106.928 363.539 107.568C364.243 108.197 364.654 109.04 364.771 110.096H363.283C363.176 109.467 362.91 108.939 362.483 108.512C362.056 108.085 361.48 107.872 360.755 107.872C359.827 107.872 359.096 108.277 358.563 109.088C358.03 109.888 357.763 110.992 357.763 112.4C357.763 113.819 358.03 114.928 358.563 115.728C359.096 116.528 359.827 116.928 360.755 116.928C361.512 116.928 362.094 116.725 362.499 116.32C362.915 115.915 363.176 115.392 363.283 114.752H364.771C364.6 115.819 364.174 116.661 363.491 117.28C362.819 117.888 361.907 118.192 360.755 118.192ZM368.981 118V106.8H370.325V112.016L374.709 106.8H376.421L371.701 112.368V112.432L376.485 118H374.741L370.325 112.864V118H368.981ZM384.15 118.192C383.361 118.192 382.657 117.963 382.038 117.504C381.42 117.035 380.934 116.368 380.582 115.504C380.241 114.64 380.07 113.605 380.07 112.4C380.07 111.205 380.246 110.176 380.598 109.312C380.95 108.448 381.446 107.781 382.086 107.312C382.737 106.843 383.505 106.608 384.39 106.608C385.446 106.608 386.305 106.917 386.966 107.536C387.638 108.155 388.038 108.987 388.166 110.032H386.678C386.572 109.392 386.321 108.875 385.926 108.48C385.542 108.075 385.03 107.872 384.39 107.872C383.473 107.872 382.753 108.272 382.23 109.072C381.708 109.872 381.446 110.981 381.446 112.4C381.446 113.84 381.708 114.955 382.23 115.744C382.753 116.533 383.43 116.928 384.262 116.928C384.86 116.928 385.35 116.752 385.734 116.4C386.118 116.037 386.406 115.579 386.598 115.024C386.801 114.459 386.913 113.877 386.934 113.28H384.438V112.128H388.31V118H387.078L386.966 116.304H386.902C386.678 116.88 386.348 117.339 385.91 117.68C385.484 118.021 384.897 118.192 384.15 118.192ZM392.568 118V106.8H396.008C396.872 106.8 397.582 106.944 398.136 107.232C398.702 107.52 399.123 107.915 399.4 108.416C399.678 108.907 399.816 109.467 399.816 110.096C399.816 110.832 399.624 111.483 399.24 112.048C398.867 112.603 398.291 112.992 397.512 113.216L399.944 118H398.344L396.088 113.408H396.008H393.912V118H392.568ZM393.912 112.176H395.96C396.814 112.176 397.438 111.984 397.832 111.6C398.238 111.205 398.44 110.704 398.44 110.096C398.44 109.456 398.243 108.949 397.848 108.576C397.464 108.203 396.83 108.016 395.944 108.016H393.912V112.176ZM407.85 118.192C406.943 118.192 406.165 117.952 405.514 117.472C404.863 116.992 404.362 116.32 404.01 115.456C403.669 114.581 403.498 113.563 403.498 112.4C403.498 111.237 403.669 110.224 404.01 109.36C404.362 108.485 404.863 107.808 405.514 107.328C406.165 106.848 406.943 106.608 407.85 106.608C408.757 106.608 409.535 106.848 410.186 107.328C410.837 107.808 411.333 108.485 411.674 109.36C412.026 110.224 412.202 111.237 412.202 112.4C412.202 113.563 412.026 114.581 411.674 115.456C411.333 116.32 410.837 116.992 410.186 117.472C409.535 117.952 408.757 118.192 407.85 118.192ZM407.85 116.928C408.735 116.928 409.45 116.533 409.994 115.744C410.549 114.955 410.826 113.84 410.826 112.4C410.826 110.96 410.549 109.845 409.994 109.056C409.45 108.267 408.735 107.872 407.85 107.872C406.954 107.872 406.234 108.267 405.69 109.056C405.146 109.845 404.874 110.96 404.874 112.4C404.874 113.84 405.146 114.955 405.69 115.744C406.234 116.533 406.954 116.928 407.85 116.928ZM419.628 118.192C418.881 118.192 418.214 118.037 417.628 117.728C417.052 117.419 416.593 116.949 416.252 116.32C415.921 115.68 415.756 114.88 415.756 113.92V106.8H417.1V113.968C417.1 114.928 417.334 115.669 417.804 116.192C418.273 116.715 418.892 116.976 419.66 116.976C420.428 116.976 421.041 116.715 421.5 116.192C421.958 115.669 422.188 114.928 422.188 113.968V106.8H423.532V113.92C423.532 114.88 423.361 115.68 423.02 116.32C422.678 116.949 422.214 117.419 421.628 117.728C421.041 118.037 420.374 118.192 419.628 118.192ZM427.55 118V106.8H428.926L434.014 115.648V106.8H435.342V118H433.95L428.862 109.152V118H427.55ZM439.487 118V106.8H441.839C443.674 106.8 445.029 107.301 445.903 108.304C446.789 109.307 447.231 110.672 447.231 112.4C447.231 114.128 446.789 115.493 445.903 116.496C445.029 117.499 443.674 118 441.839 118H439.487ZM440.831 116.768H441.807C442.789 116.768 443.573 116.587 444.159 116.224C444.757 115.861 445.189 115.355 445.455 114.704C445.722 114.053 445.855 113.285 445.855 112.4C445.855 111.515 445.722 110.747 445.455 110.096C445.189 109.445 444.757 108.939 444.159 108.576C443.573 108.213 442.789 108.032 441.807 108.032H440.831V116.768ZM455.137 118.192C454.348 118.192 453.66 118.043 453.073 117.744C452.497 117.445 452.049 117.029 451.729 116.496C451.42 115.963 451.26 115.339 451.249 114.624H452.657C452.668 115.264 452.881 115.819 453.297 116.288C453.724 116.747 454.337 116.976 455.137 116.976C455.873 116.976 456.438 116.8 456.833 116.448C457.238 116.085 457.441 115.653 457.441 115.152C457.441 114.736 457.345 114.389 457.153 114.112C456.961 113.824 456.646 113.573 456.209 113.36C455.782 113.136 455.206 112.907 454.481 112.672C453.457 112.363 452.71 111.941 452.241 111.408C451.772 110.875 451.537 110.213 451.537 109.424C451.537 108.891 451.676 108.411 451.953 107.984C452.23 107.557 452.63 107.221 453.153 106.976C453.676 106.731 454.31 106.608 455.057 106.608C455.761 106.608 456.374 106.741 456.897 107.008C457.43 107.264 457.841 107.627 458.129 108.096C458.428 108.565 458.577 109.104 458.577 109.712H457.169C457.169 109.413 457.089 109.12 456.929 108.832C456.769 108.544 456.529 108.304 456.209 108.112C455.889 107.92 455.484 107.824 454.993 107.824C454.406 107.824 453.916 107.968 453.521 108.256C453.126 108.533 452.929 108.917 452.929 109.408C452.929 109.781 453.014 110.096 453.185 110.352C453.366 110.608 453.66 110.843 454.065 111.056C454.47 111.259 455.02 111.477 455.713 111.712C456.364 111.925 456.918 112.176 457.377 112.464C457.846 112.741 458.204 113.088 458.449 113.504C458.705 113.92 458.833 114.437 458.833 115.056C458.833 115.664 458.678 116.203 458.369 116.672C458.06 117.141 457.628 117.515 457.073 117.792C456.518 118.059 455.873 118.192 455.137 118.192Z" fill="#8A4BEB"/>
<rect width="834" height="332.5" transform="translate(120 170.5)" fill="#FDFBF7"/>
<path d="M408 376.75V298.75C408 295.436 410.686 292.75 414 292.75H463C465.209 292.75 467 294.541 467 296.75V300.75C467 302.959 465.209 304.75 463 304.75H420V330.75H456.5C458.709 330.75 460.5 332.541 460.5 334.75V338.75C460.5 340.959 458.709 342.75 456.5 342.75H420V376.75C420 378.959 418.209 380.75 416 380.75H412C409.791 380.75 408 378.959 408 376.75Z" fill="#8A4BEB"/>
<path d="M477 368.75V296.75C477 294.541 478.791 292.75 481 292.75H485C487.209 292.75 489 294.541 489 296.75V364.25C489 373.25 499 366.75 499 371.25V376.242C499 377.506 498.426 378.739 497.309 379.33C494.84 380.638 492.545 380.653 489 380.75C481.5 380.75 477 375.25 477 368.75Z" fill="#8A4BEB"/>
<path d="M535 380.75C555 380.75 571 364.75 571 344.75C571 334.053 566.423 324.5 559.105 317.928C554.248 313.566 547.113 309.922 541.513 313.277C539.11 314.716 536.834 317.218 534 320.769C526.944 329.612 526.318 335.21 533.65 344.32C533.835 344.549 534.184 344.567 534.392 344.359C542.156 336.563 543.833 331.791 538.468 322.079C538.273 321.727 538.546 321.295 538.946 321.341C550.948 322.723 559 332.25 559 344.75C559 358.25 548.5 368.75 535 368.75C521.5 368.75 511 358.25 511 344.75C511 337.496 514.032 331.108 518.931 326.75C523.351 322.819 532.67 320.337 534.889 309.339C534.951 309.035 534.713 308.75 534.403 308.755C514.683 309.069 499 324.949 499 344.75C499 364.75 515 380.75 535 380.75Z" fill="#8A4BEB"/>
<path d="M594.588 378.015L575.755 321.515C574.892 318.925 576.819 316.25 579.55 316.25H584.524C585.401 316.25 586.176 316.822 586.435 317.66L600.5 363.25L615.047 319.124C615.317 318.304 616.083 317.75 616.947 317.75H623.553C624.417 317.75 625.183 318.304 625.453 319.124L640 363.25L653.574 317.679C653.827 316.831 654.606 316.25 655.491 316.25H660.491C663.209 316.25 665.136 318.903 664.294 321.488L645.899 377.988C645.363 379.635 643.828 380.75 642.096 380.75H635.917C634.179 380.75 632.64 379.627 632.108 377.973L620 340.25L608.37 377.93C607.853 379.606 606.303 380.75 604.548 380.75H598.383C596.661 380.75 595.133 379.648 594.588 378.015Z" fill="#8A4BEB"/>
<path d="M187.8 466.24C186.453 466.24 185.26 465.94 184.22 465.34C183.193 464.727 182.387 463.88 181.8 462.8C181.213 461.707 180.92 460.44 180.92 459C180.92 457.573 181.213 456.32 181.8 455.24C182.387 454.147 183.193 453.293 184.22 452.68C185.26 452.067 186.453 451.76 187.8 451.76C189.173 451.76 190.38 452.067 191.42 452.68C192.46 453.293 193.267 454.147 193.84 455.24C194.413 456.32 194.7 457.573 194.7 459C194.7 460.44 194.413 461.707 193.84 462.8C193.267 463.88 192.46 464.727 191.42 465.34C190.38 465.94 189.173 466.24 187.8 466.24ZM187.82 464.08C188.713 464.08 189.493 463.88 190.16 463.48C190.827 463.067 191.34 462.48 191.7 461.72C192.06 460.96 192.24 460.053 192.24 459C192.24 457.947 192.06 457.04 191.7 456.28C191.34 455.52 190.827 454.94 190.16 454.54C189.493 454.127 188.713 453.92 187.82 453.92C186.927 453.92 186.147 454.127 185.48 454.54C184.813 454.94 184.293 455.52 183.92 456.28C183.56 457.04 183.38 457.947 183.38 459C183.38 460.053 183.56 460.96 183.92 461.72C184.293 462.48 184.813 463.067 185.48 463.48C186.147 463.88 186.927 464.08 187.82 464.08ZM196.965 466V455.92H199.085L199.265 457.6C199.572 457.013 200.012 456.547 200.585 456.2C201.158 455.853 201.838 455.68 202.625 455.68C203.438 455.68 204.132 455.853 204.705 456.2C205.278 456.533 205.718 457.027 206.025 457.68C206.345 458.333 206.505 459.147 206.505 460.12V466H204.105V460.34C204.105 459.5 203.918 458.853 203.545 458.4C203.172 457.947 202.618 457.72 201.885 457.72C201.405 457.72 200.972 457.833 200.585 458.06C200.212 458.287 199.912 458.62 199.685 459.06C199.472 459.487 199.365 460.007 199.365 460.62V466H196.965ZM220.378 466.24C219.031 466.24 217.838 465.94 216.798 465.34C215.771 464.727 214.965 463.88 214.378 462.8C213.791 461.707 213.498 460.44 213.498 459C213.498 457.573 213.791 456.32 214.378 455.24C214.965 454.147 215.771 453.293 216.798 452.68C217.838 452.067 219.031 451.76 220.378 451.76C221.751 451.76 222.958 452.067 223.998 452.68C225.038 453.293 225.845 454.147 226.418 455.24C226.991 456.32 227.278 457.573 227.278 459C227.278 460.44 226.991 461.707 226.418 462.8C225.845 463.88 225.038 464.727 223.998 465.34C222.958 465.94 221.751 466.24 220.378 466.24ZM220.398 464.08C221.291 464.08 222.071 463.88 222.738 463.48C223.405 463.067 223.918 462.48 224.278 461.72C224.638 460.96 224.818 460.053 224.818 459C224.818 457.947 224.638 457.04 224.278 456.28C223.918 455.52 223.405 454.94 222.738 454.54C222.071 454.127 221.291 453.92 220.398 453.92C219.505 453.92 218.725 454.127 218.058 454.54C217.391 454.94 216.871 455.52 216.498 456.28C216.138 457.04 215.958 457.947 215.958 459C215.958 460.053 216.138 460.96 216.498 461.72C216.871 462.48 217.391 463.067 218.058 463.48C218.725 463.88 219.505 464.08 220.398 464.08ZM232.903 466.24C232.076 466.24 231.39 466.1 230.843 465.82C230.296 465.54 229.89 465.167 229.623 464.7C229.356 464.233 229.223 463.727 229.223 463.18C229.223 462.54 229.383 461.987 229.703 461.52C230.036 461.053 230.523 460.693 231.163 460.44C231.803 460.173 232.59 460.04 233.523 460.04H236.063C236.063 459.507 235.99 459.067 235.843 458.72C235.696 458.36 235.47 458.093 235.163 457.92C234.856 457.747 234.463 457.66 233.983 457.66C233.436 457.66 232.97 457.787 232.583 458.04C232.196 458.28 231.956 458.653 231.863 459.16H229.503C229.583 458.44 229.823 457.827 230.223 457.32C230.623 456.8 231.15 456.4 231.803 456.12C232.47 455.827 233.196 455.68 233.983 455.68C234.93 455.68 235.736 455.847 236.403 456.18C237.07 456.5 237.576 456.967 237.923 457.58C238.283 458.18 238.463 458.907 238.463 459.76V466H236.423L236.183 464.38C236.05 464.647 235.876 464.893 235.663 465.12C235.463 465.347 235.23 465.547 234.963 465.72C234.696 465.88 234.39 466.007 234.043 466.1C233.71 466.193 233.33 466.24 232.903 466.24ZM233.443 464.34C233.83 464.34 234.17 464.273 234.463 464.14C234.77 463.993 235.03 463.793 235.243 463.54C235.47 463.273 235.643 462.98 235.763 462.66C235.883 462.34 235.963 462 236.003 461.64V461.6H233.783C233.316 461.6 232.93 461.66 232.623 461.78C232.316 461.887 232.096 462.047 231.963 462.26C231.83 462.473 231.763 462.72 231.763 463C231.763 463.28 231.83 463.52 231.963 463.72C232.096 463.92 232.29 464.073 232.543 464.18C232.796 464.287 233.096 464.34 233.443 464.34ZM245.251 466C244.571 466 243.978 465.893 243.471 465.68C242.978 465.467 242.591 465.113 242.311 464.62C242.031 464.127 241.891 463.46 241.891 462.62V457.94H240.171V455.92H241.891L242.171 453.26H244.291V455.92H247.031V457.94H244.291V462.62C244.291 463.127 244.398 463.48 244.611 463.68C244.838 463.867 245.211 463.96 245.731 463.96H246.971V466H245.251ZM249.289 466V455.92H251.409L251.609 457.3C251.929 456.793 252.349 456.4 252.869 456.12C253.403 455.827 254.009 455.68 254.689 455.68C255.196 455.68 255.649 455.747 256.049 455.88C256.463 456.013 256.823 456.213 257.129 456.48C257.449 456.747 257.709 457.08 257.909 457.48C258.283 456.92 258.769 456.48 259.369 456.16C259.969 455.84 260.623 455.68 261.329 455.68C262.169 455.68 262.883 455.853 263.469 456.2C264.056 456.533 264.503 457.033 264.809 457.7C265.116 458.353 265.269 459.16 265.269 460.12V466H262.889V460.36C262.889 459.507 262.716 458.853 262.369 458.4C262.023 457.947 261.509 457.72 260.829 457.72C260.363 457.72 259.949 457.833 259.589 458.06C259.243 458.287 258.969 458.62 258.769 459.06C258.569 459.487 258.469 460.013 258.469 460.64V466H256.089V460.36C256.089 459.507 255.916 458.853 255.569 458.4C255.223 457.947 254.703 457.72 254.009 457.72C253.569 457.72 253.169 457.833 252.809 458.06C252.463 458.287 252.189 458.62 251.989 459.06C251.789 459.487 251.689 460.013 251.689 460.64V466H249.289ZM272.525 466.24C271.525 466.24 270.645 466.027 269.885 465.6C269.125 465.16 268.532 464.547 268.105 463.76C267.678 462.973 267.465 462.067 267.465 461.04C267.465 459.973 267.672 459.04 268.085 458.24C268.512 457.44 269.105 456.813 269.865 456.36C270.638 455.907 271.532 455.68 272.545 455.68C273.532 455.68 274.392 455.9 275.125 456.34C275.858 456.78 276.425 457.373 276.825 458.12C277.225 458.853 277.425 459.68 277.425 460.6C277.425 460.733 277.425 460.88 277.425 461.04C277.425 461.2 277.412 461.367 277.385 461.54H269.185V460H275.005C274.978 459.267 274.732 458.693 274.265 458.28C273.798 457.853 273.218 457.64 272.525 457.64C272.032 457.64 271.578 457.753 271.165 457.98C270.752 458.207 270.425 458.547 270.185 459C269.945 459.44 269.825 460 269.825 460.68V461.26C269.825 461.887 269.938 462.427 270.165 462.88C270.405 463.333 270.725 463.68 271.125 463.92C271.538 464.147 271.998 464.26 272.505 464.26C273.065 464.26 273.525 464.14 273.885 463.9C274.258 463.66 274.532 463.34 274.705 462.94H277.145C276.958 463.567 276.652 464.133 276.225 464.64C275.798 465.133 275.272 465.527 274.645 465.82C274.018 466.1 273.312 466.24 272.525 466.24ZM283.001 466.24C282.174 466.24 281.487 466.1 280.941 465.82C280.394 465.54 279.987 465.167 279.721 464.7C279.454 464.233 279.321 463.727 279.321 463.18C279.321 462.54 279.481 461.987 279.801 461.52C280.134 461.053 280.621 460.693 281.261 460.44C281.901 460.173 282.687 460.04 283.621 460.04H286.161C286.161 459.507 286.087 459.067 285.941 458.72C285.794 458.36 285.567 458.093 285.261 457.92C284.954 457.747 284.561 457.66 284.081 457.66C283.534 457.66 283.067 457.787 282.681 458.04C282.294 458.28 282.054 458.653 281.961 459.16H279.601C279.681 458.44 279.921 457.827 280.321 457.32C280.721 456.8 281.247 456.4 281.901 456.12C282.567 455.827 283.294 455.68 284.081 455.68C285.027 455.68 285.834 455.847 286.501 456.18C287.167 456.5 287.674 456.967 288.021 457.58C288.381 458.18 288.561 458.907 288.561 459.76V466H286.521L286.281 464.38C286.147 464.647 285.974 464.893 285.761 465.12C285.561 465.347 285.327 465.547 285.061 465.72C284.794 465.88 284.487 466.007 284.141 466.1C283.807 466.193 283.427 466.24 283.001 466.24ZM283.541 464.34C283.927 464.34 284.267 464.273 284.561 464.14C284.867 463.993 285.127 463.793 285.341 463.54C285.567 463.273 285.741 462.98 285.861 462.66C285.981 462.34 286.061 462 286.101 461.64V461.6H283.881C283.414 461.6 283.027 461.66 282.721 461.78C282.414 461.887 282.194 462.047 282.061 462.26C281.927 462.473 281.861 462.72 281.861 463C281.861 463.28 281.927 463.52 282.061 463.72C282.194 463.92 282.387 464.073 282.641 464.18C282.894 464.287 283.194 464.34 283.541 464.34ZM291.125 466V451.6H293.525V466H291.125Z" fill="#1E1E1E"/>
<rect width="834" height="332.5" transform="translate(966 170.5)" fill="white"/>
<path d="M1254 376.75V298.75C1254 295.436 1256.69 292.75 1260 292.75H1309C1311.21 292.75 1313 294.541 1313 296.75V300.75C1313 302.959 1311.21 304.75 1309 304.75H1266V330.75H1302.5C1304.71 330.75 1306.5 332.541 1306.5 334.75V338.75C1306.5 340.959 1304.71 342.75 1302.5 342.75H1266V376.75C1266 378.959 1264.21 380.75 1262 380.75H1258C1255.79 380.75 1254 378.959 1254 376.75Z" fill="#8A4BEB"/>
<path d="M1323 368.75V296.75C1323 294.541 1324.79 292.75 1327 292.75H1331C1333.21 292.75 1335 294.541 1335 296.75V364.25C1335 373.25 1345 366.75 1345 371.25V376.242C1345 377.506 1344.43 378.739 1343.31 379.33C1340.84 380.638 1338.54 380.653 1335 380.75C1327.5 380.75 1323 375.25 1323 368.75Z" fill="#8A4BEB"/>
<path d="M1381 380.75C1401 380.75 1417 364.75 1417 344.75C1417 334.053 1412.42 324.5 1405.11 317.928C1400.25 313.566 1393.11 309.922 1387.51 313.277C1385.11 314.716 1382.83 317.218 1380 320.769C1372.94 329.612 1372.32 335.21 1379.65 344.32C1379.83 344.549 1380.18 344.567 1380.39 344.359C1388.16 336.563 1389.83 331.791 1384.47 322.079C1384.27 321.727 1384.55 321.295 1384.95 321.341C1396.95 322.723 1405 332.25 1405 344.75C1405 358.25 1394.5 368.75 1381 368.75C1367.5 368.75 1357 358.25 1357 344.75C1357 337.496 1360.03 331.108 1364.93 326.75C1369.35 322.819 1378.67 320.337 1380.89 309.339C1380.95 309.035 1380.71 308.75 1380.4 308.755C1360.68 309.069 1345 324.949 1345 344.75C1345 364.75 1361 380.75 1381 380.75Z" fill="#8A4BEB"/>
<path d="M1440.59 378.015L1421.75 321.515C1420.89 318.925 1422.82 316.25 1425.55 316.25H1430.52C1431.4 316.25 1432.18 316.822 1432.44 317.66L1446.5 363.25L1461.05 319.124C1461.32 318.304 1462.08 317.75 1462.95 317.75H1469.55C1470.42 317.75 1471.18 318.304 1471.45 319.124L1486 363.25L1499.57 317.679C1499.83 316.831 1500.61 316.25 1501.49 316.25H1506.49C1509.21 316.25 1511.14 318.903 1510.29 321.488L1491.9 377.988C1491.36 379.635 1489.83 380.75 1488.1 380.75H1481.92C1480.18 380.75 1478.64 379.627 1478.11 377.973L1466 340.25L1454.37 377.93C1453.85 379.606 1452.3 380.75 1450.55 380.75H1444.38C1442.66 380.75 1441.13 379.648 1440.59 378.015Z" fill="#8A4BEB"/>
<path d="M1033.8 466.24C1032.45 466.24 1031.26 465.94 1030.22 465.34C1029.19 464.727 1028.39 463.88 1027.8 462.8C1027.21 461.707 1026.92 460.44 1026.92 459C1026.92 457.573 1027.21 456.32 1027.8 455.24C1028.39 454.147 1029.19 453.293 1030.22 452.68C1031.26 452.067 1032.45 451.76 1033.8 451.76C1035.17 451.76 1036.38 452.067 1037.42 452.68C1038.46 453.293 1039.27 454.147 1039.84 455.24C1040.41 456.32 1040.7 457.573 1040.7 459C1040.7 460.44 1040.41 461.707 1039.84 462.8C1039.27 463.88 1038.46 464.727 1037.42 465.34C1036.38 465.94 1035.17 466.24 1033.8 466.24ZM1033.82 464.08C1034.71 464.08 1035.49 463.88 1036.16 463.48C1036.83 463.067 1037.34 462.48 1037.7 461.72C1038.06 460.96 1038.24 460.053 1038.24 459C1038.24 457.947 1038.06 457.04 1037.7 456.28C1037.34 455.52 1036.83 454.94 1036.16 454.54C1035.49 454.127 1034.71 453.92 1033.82 453.92C1032.93 453.92 1032.15 454.127 1031.48 454.54C1030.81 454.94 1030.29 455.52 1029.92 456.28C1029.56 457.04 1029.38 457.947 1029.38 459C1029.38 460.053 1029.56 460.96 1029.92 461.72C1030.29 462.48 1030.81 463.067 1031.48 463.48C1032.15 463.88 1032.93 464.08 1033.82 464.08ZM1042.97 466V455.92H1045.09L1045.27 457.6C1045.57 457.013 1046.01 456.547 1046.59 456.2C1047.16 455.853 1047.84 455.68 1048.63 455.68C1049.44 455.68 1050.13 455.853 1050.71 456.2C1051.28 456.533 1051.72 457.027 1052.03 457.68C1052.35 458.333 1052.51 459.147 1052.51 460.12V466H1050.11V460.34C1050.11 459.5 1049.92 458.853 1049.55 458.4C1049.17 457.947 1048.62 457.72 1047.89 457.72C1047.41 457.72 1046.97 457.833 1046.59 458.06C1046.21 458.287 1045.91 458.62 1045.69 459.06C1045.47 459.487 1045.37 460.007 1045.37 460.62V466H1042.97ZM1062.82 466L1059.1 452H1061.66L1064.28 463.26L1067.32 452H1069.98L1072.92 463.28L1075.56 452H1078.14L1074.32 466H1071.48L1068.6 455.4L1065.64 466H1062.82ZM1079.98 466V451.6H1082.38V457.48C1082.71 456.933 1083.16 456.5 1083.74 456.18C1084.31 455.847 1084.96 455.68 1085.68 455.68C1086.5 455.68 1087.2 455.853 1087.78 456.2C1088.35 456.533 1088.78 457.033 1089.08 457.7C1089.38 458.353 1089.54 459.173 1089.54 460.16V466H1087.16V460.38C1087.16 459.513 1086.97 458.853 1086.6 458.4C1086.24 457.947 1085.68 457.72 1084.94 457.72C1084.46 457.72 1084.02 457.84 1083.64 458.08C1083.25 458.307 1082.94 458.64 1082.72 459.08C1082.49 459.507 1082.38 460.033 1082.38 460.66V466H1079.98ZM1092.19 466V455.92H1094.59V466H1092.19ZM1093.39 454.32C1092.95 454.32 1092.58 454.187 1092.29 453.92C1092.01 453.64 1091.87 453.3 1091.87 452.9C1091.87 452.487 1092.01 452.153 1092.29 451.9C1092.58 451.633 1092.95 451.5 1093.39 451.5C1093.83 451.5 1094.19 451.633 1094.47 451.9C1094.76 452.153 1094.91 452.487 1094.91 452.9C1094.91 453.3 1094.76 453.64 1094.47 453.92C1094.19 454.187 1093.83 454.32 1093.39 454.32ZM1101.74 466C1101.06 466 1100.47 465.893 1099.96 465.68C1099.47 465.467 1099.08 465.113 1098.8 464.62C1098.52 464.127 1098.38 463.46 1098.38 462.62V457.94H1096.66V455.92H1098.38L1098.66 453.26H1100.78V455.92H1103.52V457.94H1100.78V462.62C1100.78 463.127 1100.89 463.48 1101.1 463.68C1101.33 463.867 1101.7 463.96 1102.22 463.96H1103.46V466H1101.74ZM1110.24 466.24C1109.24 466.24 1108.36 466.027 1107.6 465.6C1106.84 465.16 1106.25 464.547 1105.82 463.76C1105.4 462.973 1105.18 462.067 1105.18 461.04C1105.18 459.973 1105.39 459.04 1105.8 458.24C1106.23 457.44 1106.82 456.813 1107.58 456.36C1108.36 455.907 1109.25 455.68 1110.26 455.68C1111.25 455.68 1112.11 455.9 1112.84 456.34C1113.58 456.78 1114.14 457.373 1114.54 458.12C1114.94 458.853 1115.14 459.68 1115.14 460.6C1115.14 460.733 1115.14 460.88 1115.14 461.04C1115.14 461.2 1115.13 461.367 1115.1 461.54H1106.9V460H1112.72C1112.7 459.267 1112.45 458.693 1111.98 458.28C1111.52 457.853 1110.94 457.64 1110.24 457.64C1109.75 457.64 1109.3 457.753 1108.88 457.98C1108.47 458.207 1108.14 458.547 1107.9 459C1107.66 459.44 1107.54 460 1107.54 460.68V461.26C1107.54 461.887 1107.66 462.427 1107.88 462.88C1108.12 463.333 1108.44 463.68 1108.84 463.92C1109.26 464.147 1109.72 464.26 1110.22 464.26C1110.78 464.26 1111.24 464.14 1111.6 463.9C1111.98 463.66 1112.25 463.34 1112.42 462.94H1114.86C1114.68 463.567 1114.37 464.133 1113.94 464.64C1113.52 465.133 1112.99 465.527 1112.36 465.82C1111.74 466.1 1111.03 466.24 1110.24 466.24Z" fill="#1E1E1E"/>
<rect width="834" height="332.5" transform="translate(120 515)" fill="#8A4BEB"/>
<path d="M408 721.25V643.25C408 639.936 410.686 637.25 414 637.25H463C465.209 637.25 467 639.041 467 641.25V645.25C467 647.459 465.209 649.25 463 649.25H420V675.25H456.5C458.709 675.25 460.5 677.041 460.5 679.25V683.25C460.5 685.459 458.709 687.25 456.5 687.25H420V721.25C420 723.459 418.209 725.25 416 725.25H412C409.791 725.25 408 723.459 408 721.25Z" fill="white"/>
<path d="M477 713.25V641.25C477 639.041 478.791 637.25 481 637.25H485C487.209 637.25 489 639.041 489 641.25V708.75C489 717.75 499 711.25 499 715.75V720.742C499 722.006 498.426 723.239 497.309 723.83C494.84 725.138 492.545 725.153 489 725.25C481.5 725.25 477 719.75 477 713.25Z" fill="white"/>
<path d="M535 725.25C555 725.25 571 709.25 571 689.25C571 678.553 566.423 669 559.105 662.428C554.248 658.066 547.113 654.422 541.513 657.777C539.11 659.216 536.834 661.718 534 665.269C526.944 674.112 526.318 679.71 533.65 688.82C533.835 689.049 534.184 689.067 534.392 688.859C542.156 681.063 543.833 676.291 538.468 666.579C538.273 666.227 538.546 665.795 538.946 665.841C550.948 667.223 559 676.75 559 689.25C559 702.75 548.5 713.25 535 713.25C521.5 713.25 511 702.75 511 689.25C511 681.996 514.032 675.608 518.931 671.25C523.351 667.319 532.67 664.837 534.889 653.839C534.951 653.535 534.713 653.25 534.403 653.255C514.683 653.569 499 669.449 499 689.25C499 709.25 515 725.25 535 725.25Z" fill="white"/>
<path d="M594.588 722.515L575.755 666.015C574.892 663.425 576.819 660.75 579.55 660.75H584.524C585.401 660.75 586.176 661.322 586.435 662.16L600.5 707.75L615.047 663.624C615.317 662.804 616.083 662.25 616.947 662.25H623.553C624.417 662.25 625.183 662.804 625.453 663.624L640 707.75L653.574 662.179C653.827 661.331 654.606 660.75 655.491 660.75H660.491C663.209 660.75 665.136 663.403 664.294 665.988L645.899 722.488C645.363 724.135 643.828 725.25 642.096 725.25H635.917C634.179 725.25 632.64 724.127 632.108 722.473L620 684.75L608.37 722.43C607.853 724.106 606.303 725.25 604.548 725.25H598.383C596.661 725.25 595.133 724.148 594.588 722.515Z" fill="white"/>
<path d="M187.8 811.24C186.453 811.24 185.26 810.94 184.22 810.34C183.193 809.727 182.387 808.88 181.8 807.8C181.213 806.707 180.92 805.44 180.92 804C180.92 802.573 181.213 801.32 181.8 800.24C182.387 799.147 183.193 798.293 184.22 797.68C185.26 797.067 186.453 796.76 187.8 796.76C189.173 796.76 190.38 797.067 191.42 797.68C192.46 798.293 193.267 799.147 193.84 800.24C194.413 801.32 194.7 802.573 194.7 804C194.7 805.44 194.413 806.707 193.84 807.8C193.267 808.88 192.46 809.727 191.42 810.34C190.38 810.94 189.173 811.24 187.8 811.24ZM187.82 809.08C188.713 809.08 189.493 808.88 190.16 808.48C190.827 808.067 191.34 807.48 191.7 806.72C192.06 805.96 192.24 805.053 192.24 804C192.24 802.947 192.06 802.04 191.7 801.28C191.34 800.52 190.827 799.94 190.16 799.54C189.493 799.127 188.713 798.92 187.82 798.92C186.927 798.92 186.147 799.127 185.48 799.54C184.813 799.94 184.293 800.52 183.92 801.28C183.56 802.04 183.38 802.947 183.38 804C183.38 805.053 183.56 805.96 183.92 806.72C184.293 807.48 184.813 808.067 185.48 808.48C186.147 808.88 186.927 809.08 187.82 809.08ZM196.965 811V800.92H199.085L199.265 802.6C199.572 802.013 200.012 801.547 200.585 801.2C201.158 800.853 201.838 800.68 202.625 800.68C203.438 800.68 204.132 800.853 204.705 801.2C205.278 801.533 205.718 802.027 206.025 802.68C206.345 803.333 206.505 804.147 206.505 805.12V811H204.105V805.34C204.105 804.5 203.918 803.853 203.545 803.4C203.172 802.947 202.618 802.72 201.885 802.72C201.405 802.72 200.972 802.833 200.585 803.06C200.212 803.287 199.912 803.62 199.685 804.06C199.472 804.487 199.365 805.007 199.365 805.62V811H196.965ZM218.058 811L212.918 797H215.498L219.518 808.54L223.598 797H226.138L220.978 811H218.058ZM227.924 811V800.92H230.324V811H227.924ZM229.124 799.32C228.684 799.32 228.318 799.187 228.024 798.92C227.744 798.64 227.604 798.3 227.604 797.9C227.604 797.487 227.744 797.153 228.024 796.9C228.318 796.633 228.684 796.5 229.124 796.5C229.564 796.5 229.924 796.633 230.204 796.9C230.498 797.153 230.644 797.487 230.644 797.9C230.644 798.3 230.498 798.64 230.204 798.92C229.924 799.187 229.564 799.32 229.124 799.32ZM237.798 811.24C236.838 811.24 235.971 811.02 235.198 810.58C234.438 810.127 233.838 809.507 233.398 808.72C232.971 807.92 232.758 807.007 232.758 805.98C232.758 804.927 232.978 804.007 233.418 803.22C233.858 802.42 234.458 801.8 235.218 801.36C235.991 800.907 236.858 800.68 237.818 800.68C238.778 800.68 239.638 800.907 240.398 801.36C241.171 801.8 241.771 802.413 242.198 803.2C242.638 803.987 242.858 804.907 242.858 805.96C242.858 807.013 242.638 807.933 242.198 808.72C241.758 809.507 241.151 810.127 240.378 810.58C239.618 811.02 238.758 811.24 237.798 811.24ZM237.798 809.18C238.278 809.18 238.711 809.06 239.098 808.82C239.498 808.58 239.818 808.22 240.058 807.74C240.298 807.26 240.418 806.667 240.418 805.96C240.418 805.253 240.298 804.667 240.058 804.2C239.831 803.72 239.518 803.36 239.118 803.12C238.731 802.88 238.298 802.76 237.818 802.76C237.351 802.76 236.918 802.88 236.518 803.12C236.118 803.36 235.798 803.72 235.558 804.2C235.318 804.667 235.198 805.253 235.198 805.96C235.198 806.667 235.318 807.26 235.558 807.74C235.798 808.22 236.111 808.58 236.498 808.82C236.898 809.06 237.331 809.18 237.798 809.18ZM245.207 811V796.6H247.607V811H245.207ZM255.005 811.24C254.005 811.24 253.125 811.027 252.365 810.6C251.605 810.16 251.012 809.547 250.585 808.76C250.159 807.973 249.945 807.067 249.945 806.04C249.945 804.973 250.152 804.04 250.565 803.24C250.992 802.44 251.585 801.813 252.345 801.36C253.119 800.907 254.012 800.68 255.025 800.68C256.012 800.68 256.872 800.9 257.605 801.34C258.339 801.78 258.905 802.373 259.305 803.12C259.705 803.853 259.905 804.68 259.905 805.6C259.905 805.733 259.905 805.88 259.905 806.04C259.905 806.2 259.892 806.367 259.865 806.54H251.665V805H257.485C257.459 804.267 257.212 803.693 256.745 803.28C256.279 802.853 255.699 802.64 255.005 802.64C254.512 802.64 254.059 802.753 253.645 802.98C253.232 803.207 252.905 803.547 252.665 804C252.425 804.44 252.305 805 252.305 805.68V806.26C252.305 806.887 252.419 807.427 252.645 807.88C252.885 808.333 253.205 808.68 253.605 808.92C254.019 809.147 254.479 809.26 254.985 809.26C255.545 809.26 256.005 809.14 256.365 808.9C256.739 808.66 257.012 808.34 257.185 807.94H259.625C259.439 808.567 259.132 809.133 258.705 809.64C258.279 810.133 257.752 810.527 257.125 810.82C256.499 811.1 255.792 811.24 255.005 811.24ZM266.306 811C265.626 811 265.033 810.893 264.526 810.68C264.033 810.467 263.646 810.113 263.366 809.62C263.086 809.127 262.946 808.46 262.946 807.62V802.94H261.226V800.92H262.946L263.226 798.26H265.346V800.92H268.086V802.94H265.346V807.62C265.346 808.127 265.453 808.48 265.666 808.68C265.893 808.867 266.266 808.96 266.786 808.96H268.026V811H266.306Z" fill="white"/>
<rect width="834" height="332.5" transform="translate(966 515)" fill="#1A1023"/>
<path d="M1254 721.25V643.25C1254 639.936 1256.69 637.25 1260 637.25H1309C1311.21 637.25 1313 639.041 1313 641.25V645.25C1313 647.459 1311.21 649.25 1309 649.25H1266V675.25H1302.5C1304.71 675.25 1306.5 677.041 1306.5 679.25V683.25C1306.5 685.459 1304.71 687.25 1302.5 687.25H1266V721.25C1266 723.459 1264.21 725.25 1262 725.25H1258C1255.79 725.25 1254 723.459 1254 721.25Z" fill="#C4A3F7"/>
<path d="M1323 713.25V641.25C1323 639.041 1324.79 637.25 1327 637.25H1331C1333.21 637.25 1335 639.041 1335 641.25V708.75C1335 717.75 1345 711.25 1345 715.75V720.742C1345 722.006 1344.43 723.239 1343.31 723.83C1340.84 725.138 1338.54 725.153 1335 725.25C1327.5 725.25 1323 719.75 1323 713.25Z" fill="#C4A3F7"/>
<path d="M1381 725.25C1401 725.25 1417 709.25 1417 689.25C1417 678.553 1412.42 669 1405.11 662.428C1400.25 658.066 1393.11 654.422 1387.51 657.777C1385.11 659.216 1382.83 661.718 1380 665.269C1372.94 674.112 1372.32 679.71 1379.65 688.82C1379.83 689.049 1380.18 689.067 1380.39 688.859C1388.16 681.063 1389.83 676.291 1384.47 666.579C1384.27 666.227 1384.55 665.795 1384.95 665.841C1396.95 667.223 1405 676.75 1405 689.25C1405 702.75 1394.5 713.25 1381 713.25C1367.5 713.25 1357 702.75 1357 689.25C1357 681.996 1360.03 675.608 1364.93 671.25C1369.35 667.319 1378.67 664.837 1380.89 653.839C1380.95 653.535 1380.71 653.25 1380.4 653.255C1360.68 653.569 1345 669.449 1345 689.25C1345 709.25 1361 725.25 1381 725.25Z" fill="#C4A3F7"/>
<path d="M1440.59 722.515L1421.75 666.015C1420.89 663.425 1422.82 660.75 1425.55 660.75H1430.52C1431.4 660.75 1432.18 661.322 1432.44 662.16L1446.5 707.75L1461.05 663.624C1461.32 662.804 1462.08 662.25 1462.95 662.25H1469.55C1470.42 662.25 1471.18 662.804 1471.45 663.624L1486 707.75L1499.57 662.179C1499.83 661.331 1500.61 660.75 1501.49 660.75H1506.49C1509.21 660.75 1511.14 663.403 1510.29 665.988L1491.9 722.488C1491.36 724.135 1489.83 725.25 1488.1 725.25H1481.92C1480.18 725.25 1478.64 724.127 1478.11 722.473L1466 684.75L1454.37 722.43C1453.85 724.106 1452.3 725.25 1450.55 725.25H1444.38C1442.66 725.25 1441.13 724.148 1440.59 722.515Z" fill="#C4A3F7"/>
<path d="M1033.8 811.24C1032.45 811.24 1031.26 810.94 1030.22 810.34C1029.19 809.727 1028.39 808.88 1027.8 807.8C1027.21 806.707 1026.92 805.44 1026.92 804C1026.92 802.573 1027.21 801.32 1027.8 800.24C1028.39 799.147 1029.19 798.293 1030.22 797.68C1031.26 797.067 1032.45 796.76 1033.8 796.76C1035.17 796.76 1036.38 797.067 1037.42 797.68C1038.46 798.293 1039.27 799.147 1039.84 800.24C1040.41 801.32 1040.7 802.573 1040.7 804C1040.7 805.44 1040.41 806.707 1039.84 807.8C1039.27 808.88 1038.46 809.727 1037.42 810.34C1036.38 810.94 1035.17 811.24 1033.8 811.24ZM1033.82 809.08C1034.71 809.08 1035.49 808.88 1036.16 808.48C1036.83 808.067 1037.34 807.48 1037.7 806.72C1038.06 805.96 1038.24 805.053 1038.24 804C1038.24 802.947 1038.06 802.04 1037.7 801.28C1037.34 800.52 1036.83 799.94 1036.16 799.54C1035.49 799.127 1034.71 798.92 1033.82 798.92C1032.93 798.92 1032.15 799.127 1031.48 799.54C1030.81 799.94 1030.29 800.52 1029.92 801.28C1029.56 802.04 1029.38 802.947 1029.38 804C1029.38 805.053 1029.56 805.96 1029.92 806.72C1030.29 807.48 1030.81 808.067 1031.48 808.48C1032.15 808.88 1032.93 809.08 1033.82 809.08ZM1042.97 811V800.92H1045.09L1045.27 802.6C1045.57 802.013 1046.01 801.547 1046.59 801.2C1047.16 800.853 1047.84 800.68 1048.63 800.68C1049.44 800.68 1050.13 800.853 1050.71 801.2C1051.28 801.533 1051.72 802.027 1052.03 802.68C1052.35 803.333 1052.51 804.147 1052.51 805.12V811H1050.11V805.34C1050.11 804.5 1049.92 803.853 1049.55 803.4C1049.17 802.947 1048.62 802.72 1047.89 802.72C1047.41 802.72 1046.97 802.833 1046.59 803.06C1046.21 803.287 1045.91 803.62 1045.69 804.06C1045.47 804.487 1045.37 805.007 1045.37 805.62V811H1042.97ZM1060 811V797H1064.52C1066.14 797 1067.48 797.287 1068.54 797.86C1069.6 798.433 1070.39 799.247 1070.9 800.3C1071.42 801.34 1071.68 802.58 1071.68 804.02C1071.68 805.433 1071.42 806.667 1070.9 807.72C1070.39 808.76 1069.6 809.567 1068.54 810.14C1067.48 810.713 1066.14 811 1064.52 811H1060ZM1062.4 808.96H1064.4C1065.61 808.96 1066.56 808.767 1067.26 808.38C1067.96 807.98 1068.46 807.413 1068.76 806.68C1069.06 805.933 1069.22 805.047 1069.22 804.02C1069.22 802.98 1069.06 802.093 1068.76 801.36C1068.46 800.613 1067.96 800.04 1067.26 799.64C1066.56 799.227 1065.61 799.02 1064.4 799.02H1062.4V808.96ZM1077.3 811.24C1076.47 811.24 1075.79 811.1 1075.24 810.82C1074.69 810.54 1074.29 810.167 1074.02 809.7C1073.75 809.233 1073.62 808.727 1073.62 808.18C1073.62 807.54 1073.78 806.987 1074.1 806.52C1074.43 806.053 1074.92 805.693 1075.56 805.44C1076.2 805.173 1076.99 805.04 1077.92 805.04H1080.46C1080.46 804.507 1080.39 804.067 1080.24 803.72C1080.09 803.36 1079.87 803.093 1079.56 802.92C1079.25 802.747 1078.86 802.66 1078.38 802.66C1077.83 802.66 1077.37 802.787 1076.98 803.04C1076.59 803.28 1076.35 803.653 1076.26 804.16H1073.9C1073.98 803.44 1074.22 802.827 1074.62 802.32C1075.02 801.8 1075.55 801.4 1076.2 801.12C1076.87 800.827 1077.59 800.68 1078.38 800.68C1079.33 800.68 1080.13 800.847 1080.8 801.18C1081.47 801.5 1081.97 801.967 1082.32 802.58C1082.68 803.18 1082.86 803.907 1082.86 804.76V811H1080.82L1080.58 809.38C1080.45 809.647 1080.27 809.893 1080.06 810.12C1079.86 810.347 1079.63 810.547 1079.36 810.72C1079.09 810.88 1078.79 811.007 1078.44 811.1C1078.11 811.193 1077.73 811.24 1077.3 811.24ZM1077.84 809.34C1078.23 809.34 1078.57 809.273 1078.86 809.14C1079.17 808.993 1079.43 808.793 1079.64 808.54C1079.87 808.273 1080.04 807.98 1080.16 807.66C1080.28 807.34 1080.36 807 1080.4 806.64V806.6H1078.18C1077.71 806.6 1077.33 806.66 1077.02 806.78C1076.71 806.887 1076.49 807.047 1076.36 807.26C1076.23 807.473 1076.16 807.72 1076.16 808C1076.16 808.28 1076.23 808.52 1076.36 808.72C1076.49 808.92 1076.69 809.073 1076.94 809.18C1077.19 809.287 1077.49 809.34 1077.84 809.34ZM1085.43 811V800.92H1087.57L1087.79 802.8C1088.03 802.36 1088.33 801.987 1088.69 801.68C1089.05 801.36 1089.47 801.113 1089.95 800.94C1090.44 800.767 1090.98 800.68 1091.57 800.68V803.22H1090.73C1090.33 803.22 1089.95 803.273 1089.59 803.38C1089.23 803.473 1088.91 803.633 1088.65 803.86C1088.39 804.073 1088.19 804.373 1088.05 804.76C1087.9 805.133 1087.83 805.607 1087.83 806.18V811H1085.43ZM1099.88 811L1095.42 805.48L1099.42 800.92H1102.28L1097.3 806.46V804.6L1102.88 811H1099.88ZM1093.38 811V796.6H1095.78V811H1093.38ZM1109.45 811V797H1111.85V811H1109.45ZM1114.59 811V800.92H1116.71L1116.89 802.6C1117.19 802.013 1117.63 801.547 1118.21 801.2C1118.78 800.853 1119.46 800.68 1120.25 800.68C1121.06 800.68 1121.75 800.853 1122.33 801.2C1122.9 801.533 1123.34 802.027 1123.65 802.68C1123.97 803.333 1124.13 804.147 1124.13 805.12V811H1121.73V805.34C1121.73 804.5 1121.54 803.853 1121.17 803.4C1120.79 802.947 1120.24 802.72 1119.51 802.72C1119.03 802.72 1118.59 802.833 1118.21 803.06C1117.83 803.287 1117.53 803.62 1117.31 804.06C1117.09 804.487 1116.99 805.007 1116.99 805.62V811H1114.59ZM1133.16 811L1128.7 805.48L1132.7 800.92H1135.56L1130.58 806.46V804.6L1136.16 811H1133.16ZM1126.66 811V796.6H1129.06V811H1126.66Z" fill="#C4A3F7"/>
<path d="M121.008 928.176C121.475 928.195 122.072 928.213 122.8 928.232C123.528 928.251 124.256 928.26 124.984 928.26C125.899 928.26 126.767 928.251 127.588 928.232C128.409 928.213 128.988 928.204 129.324 928.204C131.527 928.204 133.169 928.615 134.252 929.436C135.353 930.257 135.904 931.312 135.904 932.6C135.904 933.253 135.727 933.907 135.372 934.56C135.036 935.213 134.485 935.801 133.72 936.324C132.973 936.847 131.993 937.239 130.78 937.5V937.556C132.423 937.705 133.72 938.041 134.672 938.564C135.643 939.068 136.333 939.675 136.744 940.384C137.155 941.075 137.36 941.803 137.36 942.568C137.36 943.707 137.061 944.687 136.464 945.508C135.885 946.311 135.045 946.927 133.944 947.356C132.843 947.785 131.517 948 129.968 948C129.557 948 128.932 947.991 128.092 947.972C127.252 947.935 126.235 947.916 125.04 947.916C124.275 947.916 123.528 947.925 122.8 947.944C122.072 947.944 121.475 947.963 121.008 948V947.44C121.624 947.403 122.081 947.328 122.38 947.216C122.697 947.104 122.903 946.88 122.996 946.544C123.108 946.208 123.164 945.704 123.164 945.032V931.144C123.164 930.453 123.108 929.949 122.996 929.632C122.903 929.296 122.697 929.072 122.38 928.96C122.081 928.829 121.624 928.755 121.008 928.736V928.176ZM128.848 928.736C128.083 928.736 127.579 928.895 127.336 929.212C127.112 929.529 127 930.173 127 931.144V945.032C127 945.685 127.056 946.18 127.168 946.516C127.28 946.852 127.476 947.076 127.756 947.188C128.036 947.3 128.447 947.356 128.988 947.356C130.519 947.356 131.62 946.936 132.292 946.096C132.983 945.237 133.328 944.024 133.328 942.456C133.328 941.019 132.955 939.908 132.208 939.124C131.48 938.34 130.267 937.948 128.568 937.948H126.02C126.02 937.948 126.02 937.873 126.02 937.724C126.02 937.556 126.02 937.472 126.02 937.472H128.428C129.38 937.472 130.117 937.267 130.64 936.856C131.163 936.427 131.517 935.867 131.704 935.176C131.891 934.467 131.984 933.711 131.984 932.908C131.984 931.527 131.741 930.491 131.256 929.8C130.771 929.091 129.968 928.736 128.848 928.736ZM148.29 933.132C148.868 933.132 149.344 933.253 149.718 933.496C150.11 933.739 150.399 934.047 150.586 934.42C150.772 934.793 150.866 935.185 150.866 935.596C150.866 936.212 150.679 936.725 150.306 937.136C149.951 937.547 149.475 937.752 148.878 937.752C148.318 937.752 147.86 937.603 147.506 937.304C147.151 937.005 146.974 936.595 146.974 936.072C146.974 935.605 147.086 935.213 147.31 934.896C147.552 934.579 147.823 934.327 148.122 934.14C147.916 934.028 147.683 933.991 147.422 934.028C146.974 934.065 146.563 934.224 146.19 934.504C145.816 934.784 145.499 935.129 145.238 935.54C144.976 935.951 144.771 936.389 144.622 936.856C144.491 937.323 144.426 937.771 144.426 938.2V945.116C144.426 946.031 144.659 946.647 145.126 946.964C145.592 947.263 146.274 947.412 147.17 947.412V948C146.74 947.981 146.115 947.963 145.294 947.944C144.491 947.907 143.651 947.888 142.774 947.888C142.046 947.888 141.318 947.907 140.59 947.944C139.88 947.963 139.348 947.981 138.994 948V947.412C139.684 947.412 140.17 947.272 140.45 946.992C140.748 946.712 140.898 946.18 140.898 945.396V936.576C140.898 935.736 140.758 935.12 140.478 934.728C140.216 934.317 139.722 934.112 138.994 934.112V933.524C139.591 933.58 140.17 933.608 140.73 933.608C141.42 933.608 142.074 933.58 142.69 933.524C143.324 933.449 143.903 933.347 144.426 933.216V936.128C144.65 935.605 144.939 935.12 145.294 934.672C145.667 934.224 146.106 933.86 146.61 933.58C147.132 933.281 147.692 933.132 148.29 933.132ZM155.737 948.196C154.935 948.196 154.253 948.047 153.693 947.748C153.133 947.431 152.713 947.011 152.433 946.488C152.153 945.947 152.013 945.349 152.013 944.696C152.013 943.893 152.2 943.24 152.573 942.736C152.947 942.213 153.423 941.803 154.001 941.504C154.599 941.187 155.224 940.925 155.877 940.72C156.531 940.496 157.147 940.291 157.725 940.104C158.304 939.899 158.78 939.665 159.153 939.404C159.527 939.143 159.713 938.797 159.713 938.368V936.324C159.713 935.727 159.62 935.241 159.433 934.868C159.265 934.476 159.004 934.187 158.649 934C158.313 933.795 157.884 933.692 157.361 933.692C156.969 933.692 156.559 933.748 156.129 933.86C155.7 933.972 155.345 934.187 155.065 934.504C155.551 934.635 155.924 934.877 156.185 935.232C156.465 935.587 156.605 936.016 156.605 936.52C156.605 937.099 156.409 937.556 156.017 937.892C155.644 938.209 155.168 938.368 154.589 938.368C153.973 938.368 153.507 938.172 153.189 937.78C152.872 937.388 152.713 936.931 152.713 936.408C152.713 935.885 152.844 935.456 153.105 935.12C153.367 934.765 153.731 934.448 154.197 934.168C154.664 933.851 155.261 933.599 155.989 933.412C156.717 933.225 157.511 933.132 158.369 933.132C159.191 933.132 159.919 933.225 160.553 933.412C161.188 933.58 161.729 933.888 162.177 934.336C162.625 934.765 162.915 935.297 163.045 935.932C163.176 936.567 163.241 937.341 163.241 938.256V945.928C163.241 946.395 163.297 946.731 163.409 946.936C163.521 947.123 163.699 947.216 163.941 947.216C164.128 947.216 164.305 947.169 164.473 947.076C164.641 946.983 164.828 946.852 165.033 946.684L165.341 947.16C164.931 947.477 164.501 947.729 164.053 947.916C163.605 948.103 163.064 948.196 162.429 948.196C161.776 948.196 161.253 948.103 160.861 947.916C160.488 947.729 160.208 947.459 160.021 947.104C159.853 946.749 159.76 946.329 159.741 945.844C159.293 946.591 158.743 947.169 158.089 947.58C157.436 947.991 156.652 948.196 155.737 948.196ZM157.417 946.628C157.865 946.628 158.276 946.507 158.649 946.264C159.041 946.021 159.396 945.657 159.713 945.172V939.516C159.527 939.796 159.256 940.048 158.901 940.272C158.565 940.496 158.201 940.72 157.809 940.944C157.417 941.168 157.044 941.429 156.689 941.728C156.353 942.008 156.064 942.363 155.821 942.792C155.597 943.203 155.485 943.735 155.485 944.388C155.485 945.116 155.663 945.676 156.017 946.068C156.372 946.441 156.839 946.628 157.417 946.628ZM176.198 933.132C176.982 933.132 177.607 933.235 178.074 933.44C178.559 933.645 178.951 933.907 179.25 934.224C179.586 934.579 179.819 935.036 179.95 935.596C180.099 936.156 180.174 936.912 180.174 937.864V945.396C180.174 946.18 180.314 946.712 180.594 946.992C180.893 947.272 181.387 947.412 182.078 947.412V948C181.742 947.981 181.219 947.963 180.51 947.944C179.819 947.907 179.147 947.888 178.494 947.888C177.803 947.888 177.131 947.907 176.478 947.944C175.825 947.963 175.339 947.981 175.022 948V947.412C175.619 947.412 176.039 947.272 176.282 946.992C176.525 946.712 176.646 946.18 176.646 945.396V936.912C176.646 936.408 176.599 935.96 176.506 935.568C176.413 935.157 176.226 934.84 175.946 934.616C175.666 934.373 175.265 934.252 174.742 934.252C174.126 934.252 173.575 934.42 173.09 934.756C172.623 935.092 172.25 935.559 171.97 936.156C171.709 936.735 171.578 937.388 171.578 938.116V945.396C171.578 946.18 171.699 946.712 171.942 946.992C172.185 947.272 172.605 947.412 173.202 947.412V948C172.885 947.981 172.409 947.963 171.774 947.944C171.139 947.907 170.495 947.888 169.842 947.888C169.151 947.888 168.451 947.907 167.742 947.944C167.033 947.963 166.501 947.981 166.146 948V947.412C166.837 947.412 167.322 947.272 167.602 946.992C167.901 946.712 168.05 946.18 168.05 945.396V936.576C168.05 935.736 167.91 935.12 167.63 934.728C167.369 934.317 166.874 934.112 166.146 934.112V933.524C166.743 933.58 167.322 933.608 167.882 933.608C168.573 933.608 169.226 933.58 169.842 933.524C170.477 933.449 171.055 933.347 171.578 933.216V936.016C172.045 934.952 172.689 934.205 173.51 933.776C174.331 933.347 175.227 933.132 176.198 933.132ZM196.593 926.076V944.948C196.593 945.788 196.733 946.413 197.013 946.824C197.293 947.216 197.788 947.412 198.497 947.412V948C197.918 947.944 197.34 947.916 196.761 947.916C196.07 947.916 195.417 947.944 194.801 948C194.185 948.056 193.606 948.159 193.065 948.308V929.436C193.065 928.596 192.925 927.98 192.645 927.588C192.384 927.177 191.889 926.972 191.161 926.972V926.384C191.758 926.44 192.337 926.468 192.897 926.468C193.606 926.468 194.269 926.44 194.885 926.384C195.501 926.309 196.07 926.207 196.593 926.076ZM189.901 933.132C190.722 933.132 191.46 933.291 192.113 933.608C192.766 933.925 193.252 934.457 193.569 935.204L193.233 935.484C192.972 934.943 192.617 934.541 192.169 934.28C191.721 934.019 191.217 933.888 190.657 933.888C189.649 933.888 188.837 934.457 188.221 935.596C187.624 936.716 187.325 938.443 187.325 940.776C187.325 942.344 187.446 943.613 187.689 944.584C187.932 945.536 188.277 946.227 188.725 946.656C189.192 947.085 189.742 947.3 190.377 947.3C191.049 947.3 191.656 947.029 192.197 946.488C192.738 945.928 193.056 945.135 193.149 944.108L193.345 944.892C193.102 946.031 192.645 946.899 191.973 947.496C191.301 948.093 190.414 948.392 189.313 948.392C188.193 948.392 187.194 948.121 186.317 947.58C185.458 947.02 184.786 946.18 184.301 945.06C183.834 943.921 183.601 942.484 183.601 940.748C183.601 939.049 183.881 937.64 184.441 936.52C185.001 935.381 185.757 934.532 186.709 933.972C187.661 933.412 188.725 933.132 189.901 933.132ZM216.783 927.784C218.033 927.784 219.051 927.971 219.835 928.344C220.619 928.699 221.337 929.119 221.991 929.604C222.215 929.791 222.401 929.884 222.551 929.884C222.905 929.884 223.139 929.315 223.251 928.176H223.895C223.857 928.885 223.829 929.753 223.811 930.78C223.792 931.807 223.783 933.16 223.783 934.84H223.139C223.008 933.832 222.821 932.927 222.579 932.124C222.336 931.321 221.897 930.64 221.263 930.08C220.777 929.557 220.161 929.156 219.415 928.876C218.687 928.577 217.949 928.428 217.203 928.428C216.213 928.428 215.345 928.689 214.599 929.212C213.871 929.716 213.255 930.416 212.751 931.312C212.265 932.189 211.901 933.216 211.659 934.392C211.416 935.549 211.295 936.791 211.295 938.116C211.295 941.476 211.78 943.94 212.751 945.508C213.74 947.057 215.187 947.832 217.091 947.832C217.613 947.832 218.061 947.767 218.435 947.636C218.827 947.487 219.144 947.337 219.387 947.188C219.685 946.983 219.881 946.768 219.975 946.544C220.068 946.32 220.115 946.04 220.115 945.704V942.96C220.115 942.139 220.04 941.532 219.891 941.14C219.741 940.729 219.461 940.449 219.051 940.3C218.659 940.151 218.071 940.067 217.287 940.048V939.488C217.66 939.507 218.099 939.525 218.603 939.544C219.125 939.544 219.667 939.553 220.227 939.572C220.805 939.572 221.328 939.572 221.795 939.572C222.523 939.572 223.185 939.563 223.783 939.544C224.38 939.525 224.875 939.507 225.267 939.488V940.048C224.893 940.067 224.604 940.132 224.399 940.244C224.212 940.356 224.091 940.58 224.035 940.916C223.979 941.252 223.951 941.765 223.951 942.456V948H223.391C223.372 947.683 223.297 947.337 223.167 946.964C223.036 946.591 222.84 946.404 222.579 946.404C222.448 946.404 222.299 946.441 222.131 946.516C221.963 946.572 221.673 946.712 221.263 946.936C220.609 947.365 219.909 947.72 219.163 948C218.435 948.261 217.632 948.392 216.755 948.392C214.664 948.392 212.891 948 211.435 947.216C209.997 946.413 208.905 945.265 208.159 943.772C207.412 942.26 207.039 940.459 207.039 938.368C207.039 936.221 207.459 934.355 208.299 932.768C209.139 931.181 210.287 929.959 211.743 929.1C213.217 928.223 214.897 927.784 216.783 927.784ZM240.236 933.216V944.976C240.236 945.816 240.376 946.441 240.656 946.852C240.936 947.244 241.431 947.44 242.14 947.44V948.028C241.562 947.972 240.983 947.944 240.404 947.944C239.714 947.944 239.051 947.972 238.416 948.028C237.8 948.084 237.231 948.187 236.708 948.336V945.536C236.242 946.563 235.598 947.3 234.776 947.748C233.974 948.177 233.106 948.392 232.172 948.392C231.444 948.392 230.828 948.289 230.324 948.084C229.839 947.897 229.447 947.636 229.148 947.3C228.831 946.945 228.607 946.479 228.476 945.9C228.346 945.321 228.28 944.575 228.28 943.66V936.576C228.28 935.736 228.14 935.12 227.86 934.728C227.599 934.317 227.104 934.112 226.376 934.112V933.524C226.974 933.58 227.552 933.608 228.112 933.608C228.803 933.608 229.456 933.58 230.072 933.524C230.707 933.449 231.286 933.347 231.808 933.216V944.64C231.808 945.144 231.846 945.592 231.92 945.984C232.014 946.376 232.191 946.693 232.452 946.936C232.714 947.16 233.106 947.272 233.628 947.272C234.207 947.272 234.73 947.104 235.196 946.768C235.663 946.432 236.027 945.975 236.288 945.396C236.568 944.817 236.708 944.164 236.708 943.436V936.576C236.708 935.736 236.568 935.12 236.288 934.728C236.027 934.317 235.532 934.112 234.804 934.112V933.524C235.402 933.58 235.98 933.608 236.54 933.608C237.231 933.608 237.884 933.58 238.5 933.524C239.135 933.449 239.714 933.347 240.236 933.216ZM246.891 926.384C247.563 926.384 248.114 926.571 248.543 926.944C248.973 927.317 249.187 927.812 249.187 928.428C249.187 929.044 248.973 929.539 248.543 929.912C248.114 930.285 247.563 930.472 246.891 930.472C246.219 930.472 245.669 930.285 245.239 929.912C244.81 929.539 244.595 929.044 244.595 928.428C244.595 927.812 244.81 927.317 245.239 926.944C245.669 926.571 246.219 926.384 246.891 926.384ZM248.851 933.216V945.396C248.851 946.18 248.991 946.712 249.271 946.992C249.57 947.272 250.065 947.412 250.755 947.412V948C250.419 947.981 249.906 947.963 249.215 947.944C248.525 947.907 247.825 947.888 247.115 947.888C246.425 947.888 245.725 947.907 245.015 947.944C244.306 947.963 243.774 947.981 243.419 948V947.412C244.11 947.412 244.595 947.272 244.875 946.992C245.174 946.712 245.323 946.18 245.323 945.396V936.604C245.323 935.745 245.183 935.12 244.903 934.728C244.642 934.317 244.147 934.112 243.419 934.112V933.524C244.017 933.58 244.595 933.608 245.155 933.608C245.846 933.608 246.499 933.58 247.115 933.524C247.75 933.449 248.329 933.347 248.851 933.216ZM265.445 926.076V944.948C265.445 945.788 265.585 946.413 265.865 946.824C266.145 947.216 266.639 947.412 267.349 947.412V948C266.77 947.944 266.191 947.916 265.613 947.916C264.922 947.916 264.269 947.944 263.653 948C263.037 948.056 262.458 948.159 261.917 948.308V929.436C261.917 928.596 261.777 927.98 261.497 927.588C261.235 927.177 260.741 926.972 260.013 926.972V926.384C260.61 926.44 261.189 926.468 261.749 926.468C262.458 926.468 263.121 926.44 263.737 926.384C264.353 926.309 264.922 926.207 265.445 926.076ZM258.753 933.132C259.574 933.132 260.311 933.291 260.965 933.608C261.618 933.925 262.103 934.457 262.421 935.204L262.085 935.484C261.823 934.943 261.469 934.541 261.021 934.28C260.573 934.019 260.069 933.888 259.509 933.888C258.501 933.888 257.689 934.457 257.073 935.596C256.475 936.716 256.177 938.443 256.177 940.776C256.177 942.344 256.298 943.613 256.541 944.584C256.783 945.536 257.129 946.227 257.577 946.656C258.043 947.085 258.594 947.3 259.229 947.3C259.901 947.3 260.507 947.029 261.049 946.488C261.59 945.928 261.907 945.135 262.001 944.108L262.197 944.892C261.954 946.031 261.497 946.899 260.825 947.496C260.153 948.093 259.266 948.392 258.165 948.392C257.045 948.392 256.046 948.121 255.169 947.58C254.31 947.02 253.638 946.18 253.153 945.06C252.686 943.921 252.453 942.484 252.453 940.748C252.453 939.049 252.733 937.64 253.293 936.52C253.853 935.381 254.609 934.532 255.561 933.972C256.513 933.412 257.577 933.132 258.753 933.132ZM275.659 933.132C277.302 933.132 278.59 933.627 279.523 934.616C280.456 935.605 280.923 937.183 280.923 939.348H271.487L271.459 938.816H277.675C277.712 937.901 277.656 937.061 277.507 936.296C277.358 935.512 277.115 934.887 276.779 934.42C276.462 933.953 276.042 933.72 275.519 933.72C274.81 933.72 274.194 934.14 273.671 934.98C273.148 935.801 272.822 937.155 272.691 939.04L272.803 939.208C272.766 939.451 272.738 939.712 272.719 939.992C272.719 940.272 272.719 940.552 272.719 940.832C272.719 942.12 272.906 943.184 273.279 944.024C273.652 944.864 274.138 945.48 274.735 945.872C275.332 946.264 275.948 946.46 276.583 946.46C277.012 946.46 277.451 946.395 277.899 946.264C278.347 946.133 278.786 945.891 279.215 945.536C279.644 945.181 280.036 944.677 280.391 944.024L280.923 944.248C280.718 944.901 280.372 945.555 279.887 946.208C279.42 946.843 278.814 947.365 278.067 947.776C277.32 948.187 276.443 948.392 275.435 948.392C274.166 948.392 273.046 948.112 272.075 947.552C271.104 946.992 270.348 946.161 269.807 945.06C269.266 943.94 268.995 942.577 268.995 940.972C268.995 939.273 269.275 937.845 269.835 936.688C270.414 935.531 271.207 934.653 272.215 934.056C273.223 933.44 274.371 933.132 275.659 933.132ZM288.004 926.076V945.396C288.004 946.18 288.144 946.712 288.424 946.992C288.722 947.272 289.217 947.412 289.908 947.412V948C289.572 947.981 289.058 947.963 288.368 947.944C287.696 947.907 287.005 947.888 286.296 947.888C285.605 947.888 284.896 947.907 284.168 947.944C283.458 947.963 282.926 947.981 282.572 948V947.412C283.262 947.412 283.748 947.272 284.028 946.992C284.326 946.712 284.476 946.18 284.476 945.396V929.436C284.476 928.596 284.345 927.98 284.084 927.588C283.822 927.177 283.318 926.972 282.572 926.972V926.384C283.169 926.44 283.748 926.468 284.308 926.468C285.017 926.468 285.68 926.44 286.296 926.384C286.912 926.309 287.481 926.207 288.004 926.076ZM294.688 926.384C295.36 926.384 295.911 926.571 296.34 926.944C296.77 927.317 296.984 927.812 296.984 928.428C296.984 929.044 296.77 929.539 296.34 929.912C295.911 930.285 295.36 930.472 294.688 930.472C294.016 930.472 293.466 930.285 293.036 929.912C292.607 929.539 292.392 929.044 292.392 928.428C292.392 927.812 292.607 927.317 293.036 926.944C293.466 926.571 294.016 926.384 294.688 926.384ZM296.648 933.216V945.396C296.648 946.18 296.788 946.712 297.068 946.992C297.367 947.272 297.862 947.412 298.552 947.412V948C298.216 947.981 297.703 947.963 297.012 947.944C296.322 947.907 295.622 947.888 294.912 947.888C294.222 947.888 293.522 947.907 292.812 947.944C292.103 947.963 291.571 947.981 291.216 948V947.412C291.907 947.412 292.392 947.272 292.672 946.992C292.971 946.712 293.12 946.18 293.12 945.396V936.604C293.12 935.745 292.98 935.12 292.7 934.728C292.439 934.317 291.944 934.112 291.216 934.112V933.524C291.814 933.58 292.392 933.608 292.952 933.608C293.643 933.608 294.296 933.58 294.912 933.524C295.547 933.449 296.126 933.347 296.648 933.216ZM309.882 933.132C310.666 933.132 311.291 933.235 311.758 933.44C312.243 933.645 312.635 933.907 312.934 934.224C313.27 934.579 313.503 935.036 313.634 935.596C313.783 936.156 313.858 936.912 313.858 937.864V945.396C313.858 946.18 313.998 946.712 314.278 946.992C314.576 947.272 315.071 947.412 315.762 947.412V948C315.426 947.981 314.903 947.963 314.194 947.944C313.503 947.907 312.831 947.888 312.178 947.888C311.487 947.888 310.815 947.907 310.162 947.944C309.508 947.963 309.023 947.981 308.706 948V947.412C309.303 947.412 309.723 947.272 309.966 946.992C310.208 946.712 310.33 946.18 310.33 945.396V936.912C310.33 936.408 310.283 935.96 310.19 935.568C310.096 935.157 309.91 934.84 309.63 934.616C309.35 934.373 308.948 934.252 308.426 934.252C307.81 934.252 307.259 934.42 306.774 934.756C306.307 935.092 305.934 935.559 305.654 936.156C305.392 936.735 305.262 937.388 305.262 938.116V945.396C305.262 946.18 305.383 946.712 305.626 946.992C305.868 947.272 306.288 947.412 306.886 947.412V948C306.568 947.981 306.092 947.963 305.458 947.944C304.823 947.907 304.179 947.888 303.526 947.888C302.835 947.888 302.135 947.907 301.426 947.944C300.716 947.963 300.184 947.981 299.83 948V947.412C300.52 947.412 301.006 947.272 301.286 946.992C301.584 946.712 301.734 946.18 301.734 945.396V936.576C301.734 935.736 301.594 935.12 301.314 934.728C301.052 934.317 300.558 934.112 299.83 934.112V933.524C300.427 933.58 301.006 933.608 301.566 933.608C302.256 933.608 302.91 933.58 303.526 933.524C304.16 933.449 304.739 933.347 305.262 933.216V936.016C305.728 934.952 306.372 934.205 307.194 933.776C308.015 933.347 308.911 933.132 309.882 933.132ZM323.921 933.132C325.563 933.132 326.851 933.627 327.785 934.616C328.718 935.605 329.185 937.183 329.185 939.348H319.749L319.721 938.816H325.937C325.974 937.901 325.918 937.061 325.769 936.296C325.619 935.512 325.377 934.887 325.041 934.42C324.723 933.953 324.303 933.72 323.781 933.72C323.071 933.72 322.455 934.14 321.933 934.98C321.41 935.801 321.083 937.155 320.953 939.04L321.065 939.208C321.027 939.451 320.999 939.712 320.981 939.992C320.981 940.272 320.981 940.552 320.981 940.832C320.981 942.12 321.167 943.184 321.541 944.024C321.914 944.864 322.399 945.48 322.997 945.872C323.594 946.264 324.21 946.46 324.845 946.46C325.274 946.46 325.713 946.395 326.161 946.264C326.609 946.133 327.047 945.891 327.477 945.536C327.906 945.181 328.298 944.677 328.653 944.024L329.185 944.248C328.979 944.901 328.634 945.555 328.149 946.208C327.682 946.843 327.075 947.365 326.329 947.776C325.582 948.187 324.705 948.392 323.697 948.392C322.427 948.392 321.307 948.112 320.337 947.552C319.366 946.992 318.61 946.161 318.069 945.06C317.527 943.94 317.257 942.577 317.257 940.972C317.257 939.273 317.537 937.845 318.097 936.688C318.675 935.531 319.469 934.653 320.477 934.056C321.485 933.44 322.633 933.132 323.921 933.132ZM350.18 933.524V934.112C349.825 934.187 349.489 934.383 349.172 934.7C348.873 935.017 348.584 935.577 348.304 936.38L344.02 948.084C343.796 948.065 343.572 948.056 343.348 948.056C343.124 948.056 342.89 948.065 342.648 948.084L337.608 935.68C337.328 934.971 337.038 934.532 336.74 934.364C336.441 934.196 336.189 934.112 335.984 934.112V933.524C336.506 933.561 337.048 933.599 337.608 933.636C338.168 933.655 338.784 933.664 339.456 933.664C340.034 933.664 340.641 933.655 341.276 933.636C341.929 933.599 342.536 933.561 343.096 933.524V934.112C342.685 934.112 342.312 934.14 341.976 934.196C341.658 934.252 341.444 934.401 341.332 934.644C341.22 934.868 341.266 935.269 341.472 935.848L344.832 944.556L344.58 944.864L347.128 937.948C347.445 937.071 347.576 936.361 347.52 935.82C347.464 935.279 347.258 934.868 346.904 934.588C346.568 934.308 346.082 934.149 345.448 934.112V933.524C345.765 933.543 346.064 933.561 346.344 933.58C346.642 933.599 346.932 933.617 347.212 933.636C347.51 933.636 347.79 933.636 348.052 933.636C348.444 933.636 348.826 933.627 349.2 933.608C349.592 933.589 349.918 933.561 350.18 933.524ZM357.851 933.216V945.228C357.851 946.087 358.019 946.665 358.355 946.964C358.691 947.263 359.27 947.412 360.091 947.412V948C359.718 947.981 359.167 947.963 358.439 947.944C357.73 947.907 356.992 947.888 356.227 947.888C355.294 947.888 354.398 947.907 353.539 947.944C352.699 947.963 352.046 947.981 351.579 948V947.412C352.438 947.412 353.11 947.263 353.595 946.964C354.08 946.647 354.323 946.031 354.323 945.116V938.284C354.323 937.388 354.239 936.725 354.071 936.296C353.903 935.867 353.604 935.587 353.175 935.456C352.746 935.325 352.158 935.26 351.411 935.26V934.644C352.923 934.607 354.174 934.485 355.163 934.28C356.171 934.075 357.067 933.72 357.851 933.216ZM364.512 944.304C365.147 944.304 365.67 944.491 366.08 944.864C366.491 945.237 366.696 945.732 366.696 946.348C366.696 946.964 366.491 947.459 366.08 947.832C365.67 948.205 365.147 948.392 364.512 948.392C363.859 948.392 363.327 948.205 362.916 947.832C362.524 947.459 362.328 946.964 362.328 946.348C362.328 945.732 362.524 945.237 362.916 944.864C363.327 944.491 363.859 944.304 364.512 944.304ZM377.159 933.132C378.597 933.132 379.866 933.44 380.967 934.056C382.069 934.672 382.927 935.531 383.543 936.632C384.178 937.733 384.495 939.031 384.495 940.524C384.495 942.017 384.169 943.361 383.515 944.556C382.881 945.751 381.994 946.693 380.855 947.384C379.717 948.056 378.382 948.392 376.851 948.392C375.451 948.392 374.191 948.093 373.071 947.496C371.97 946.88 371.102 946.012 370.467 944.892C369.833 943.772 369.515 942.465 369.515 940.972C369.515 939.497 369.833 938.172 370.467 936.996C371.102 935.82 371.989 934.887 373.127 934.196C374.285 933.487 375.629 933.132 377.159 933.132ZM376.907 933.636C375.843 933.636 374.966 934.28 374.275 935.568C373.585 936.837 373.239 938.611 373.239 940.888C373.239 942.568 373.417 943.921 373.771 944.948C374.126 945.975 374.602 946.721 375.199 947.188C375.797 947.655 376.431 947.888 377.103 947.888C378.186 947.888 379.063 947.244 379.735 945.956C380.426 944.668 380.771 942.885 380.771 940.608C380.771 938.928 380.594 937.584 380.239 936.576C379.885 935.549 379.418 934.803 378.839 934.336C378.261 933.869 377.617 933.636 376.907 933.636Z" fill="#373737"/>
<path d="M1782 943.24C1780.95 943.24 1780.01 942.947 1779.2 942.36C1778.4 941.773 1777.77 940.94 1777.32 939.86C1776.88 938.78 1776.66 937.493 1776.66 936C1776.66 934.507 1776.88 933.22 1777.32 932.14C1777.77 931.06 1778.4 930.227 1779.2 929.64C1780.01 929.053 1780.95 928.76 1782 928.76C1783.07 928.76 1784 929.053 1784.8 929.64C1785.6 930.227 1786.22 931.06 1786.66 932.14C1787.11 933.22 1787.34 934.507 1787.34 936C1787.34 937.493 1787.11 938.78 1786.66 939.86C1786.22 940.94 1785.6 941.773 1784.8 942.36C1784 942.947 1783.07 943.24 1782 943.24ZM1778.38 936C1778.38 936.907 1778.47 937.727 1778.66 938.46C1778.86 939.18 1779.13 939.787 1779.48 940.28L1783.36 930.66C1782.95 930.433 1782.49 930.32 1782 930.32C1781.29 930.32 1780.67 930.553 1780.12 931.02C1779.57 931.473 1779.15 932.127 1778.84 932.98C1778.53 933.82 1778.38 934.827 1778.38 936ZM1782 941.7C1782.71 941.7 1783.33 941.473 1783.88 941.02C1784.43 940.553 1784.85 939.893 1785.16 939.04C1785.47 938.187 1785.62 937.173 1785.62 936C1785.62 935.093 1785.52 934.28 1785.32 933.56C1785.13 932.827 1784.87 932.213 1784.52 931.72L1780.62 941.36C1781.05 941.587 1781.51 941.7 1782 941.7ZM1794.17 943.24C1793.25 943.24 1792.43 943.073 1791.69 942.74C1790.97 942.393 1790.39 941.893 1789.95 941.24C1789.51 940.587 1789.27 939.787 1789.23 938.84H1790.95C1790.98 939.64 1791.27 940.32 1791.83 940.88C1792.39 941.427 1793.17 941.7 1794.17 941.7C1795.15 941.7 1795.9 941.453 1796.43 940.96C1796.97 940.453 1797.23 939.767 1797.23 938.9C1797.23 938.3 1797.08 937.807 1796.77 937.42C1796.47 937.02 1796.05 936.727 1795.53 936.54C1795.03 936.34 1794.46 936.24 1793.83 936.24H1792.61V934.72H1793.67C1794.58 934.72 1795.3 934.527 1795.83 934.14C1796.38 933.753 1796.65 933.187 1796.65 932.44C1796.65 931.813 1796.43 931.3 1795.99 930.9C1795.57 930.5 1794.95 930.3 1794.15 930.3C1793.38 930.3 1792.75 930.52 1792.27 930.96C1791.79 931.387 1791.52 931.947 1791.45 932.64H1789.77C1789.8 931.88 1790 931.213 1790.37 930.64C1790.75 930.053 1791.25 929.593 1791.89 929.26C1792.55 928.927 1793.3 928.76 1794.15 928.76C1795.07 928.76 1795.84 928.92 1796.45 929.24C1797.08 929.56 1797.55 929.993 1797.87 930.54C1798.19 931.073 1798.35 931.667 1798.35 932.32C1798.35 933.013 1798.14 933.627 1797.71 934.16C1797.29 934.68 1796.78 935.047 1796.19 935.26V935.38C1796.98 935.62 1797.63 936.027 1798.15 936.6C1798.67 937.173 1798.93 937.94 1798.93 938.9C1798.93 939.713 1798.74 940.447 1798.35 941.1C1797.98 941.753 1797.43 942.273 1796.71 942.66C1796.01 943.047 1795.16 943.24 1794.17 943.24Z" fill="#373737"/>
</g>
<path d="M1920 1080V1072H0V1080V1088H1920V1080Z" fill="url(#paint0_linear_26_245)" mask="url(#path-1-inside-1_26_245)"/>
<defs>
<linearGradient id="paint0_linear_26_245" x1="0" y1="0" x2="922.967" y2="1640.83" gradientUnits="userSpaceOnUse">
<stop stop-color="#B07EF5"/>
<stop offset="0.5" stop-opacity="0"/>
<stop offset="1" stop-color="#FF8C76"/>
</linearGradient>
<clipPath id="clip0_26_245">
<path d="M0 0H1920V1080H0V0Z" fill="white"/>
</clipPath>
</defs>
</svg>
