<svg width="258" height="88" viewBox="0 0 258 88" fill="none" xmlns="http://www.w3.org/2000/svg">
<path d="M0 84V6C0 2.68629 2.68629 0 6 0H55C57.2091 0 59 1.79086 59 4V8C59 10.2091 57.2091 12 55 12H12V38H48.5C50.7091 38 52.5 39.7909 52.5 42V46C52.5 48.2091 50.7091 50 48.5 50H12V84C12 86.2091 10.2091 88 8 88H4C1.79086 88 0 86.2091 0 84Z" fill="#8A4BEB"/>
<path d="M69 76V4C69 1.79086 70.7909 0 73 0H77C79.2091 0 81 1.79086 81 4V71.5C81 80.5 91 74 91 78.5V83.4923C91 84.7557 90.4259 85.9891 89.3094 86.5803C86.8395 87.8881 84.5449 87.9029 81 88C73.5 88 69 82.5 69 76Z" fill="#8A4BEB"/>
<path d="M127 88C147 88 163 72 163 52C163 41.3031 158.423 31.7504 151.105 25.1779C146.248 20.816 139.113 17.1718 133.513 20.5266C131.11 21.9664 128.834 24.4681 126 28.0193C118.944 36.8616 118.318 42.4601 125.65 51.5697C125.835 51.7991 126.184 51.8174 126.392 51.6087C134.156 43.8126 135.833 39.0408 130.468 29.3289C130.273 28.9768 130.546 28.5453 130.946 28.5913C142.948 29.9733 151 39.5001 151 52C151 65.5 140.5 76 127 76C113.5 76 103 65.5 103 52C103 44.7459 106.032 38.3581 110.931 34C115.351 30.0693 124.67 27.587 126.889 16.5894C126.951 16.2852 126.713 15.9998 126.403 16.0048C106.683 16.3194 91 32.1994 91 52C91 72 107 88 127 88Z" fill="#8A4BEB"/>
<path d="M186.588 85.2649L167.755 28.7649C166.892 26.1748 168.819 23.5 171.55 23.5H176.524C177.401 23.5 178.176 24.0719 178.435 24.9104L192.5 70.5L207.047 26.3738C207.317 25.5539 208.083 25 208.947 25H215.553C216.417 25 217.183 25.5539 217.453 26.3738L232 70.5L245.574 24.929C245.827 24.0812 246.606 23.5 247.491 23.5H252.491C255.209 23.5 257.136 26.1534 256.294 28.7383L237.899 85.2383C237.363 86.8853 235.828 88 234.096 88H227.917C226.179 88 224.64 86.8775 224.108 85.2225L212 47.5L200.37 85.1797C199.853 86.8564 198.303 88 196.548 88H190.383C188.661 88 187.133 86.8983 186.588 85.2649Z" fill="#8A4BEB"/>
</svg>
