<svg width="72" height="72" viewBox="0 0 72 72" fill="none" xmlns="http://www.w3.org/2000/svg">
<path d="M36 72C56 72 72 56 72 36C72 25.3031 67.423 15.7504 60.1051 9.17793C55.2484 4.81604 48.1128 1.17181 42.5129 4.52663C40.1098 5.96636 37.8337 8.46807 35 12.0193C27.9443 20.8616 27.3184 26.4601 34.65 35.5697C34.8346 35.7991 35.1844 35.8174 35.3922 35.6087C43.1563 27.8126 44.8327 23.0408 39.468 13.3289C39.2735 12.9768 39.5463 12.5453 39.9459 12.5913C51.9479 13.9733 60 23.5001 60 36C60 49.5 49.5 60 36 60C22.5 60 12 49.5 12 36C12 28.7459 15.0317 22.3581 19.9315 18C24.3508 14.0693 33.67 11.587 35.8893 0.589428C35.9507 0.285165 35.7134 -0.000193515 35.4031 0.00475828C15.6826 0.319402 0 16.1994 0 36C0 56 16 72 36 72Z" fill="#E0CBFF"/>
</svg>
