<svg width="92" height="92" viewBox="0 0 92 92" fill="none" xmlns="http://www.w3.org/2000/svg">
<path fill-rule="evenodd" clip-rule="evenodd" d="M37.0798 19.4082C36.5478 19.5958 36.0672 19.9056 35.6768 20.3128C35.3093 20.6568 35.0162 21.0725 34.8157 21.5342C34.6152 21.9959 34.5116 22.4939 34.5112 22.9973C34.5109 23.5006 34.6138 23.9987 34.8136 24.4608C35.0135 24.9228 35.3059 25.3389 35.673 25.6833C36.8613 26.8678 36.455 26.8333 48.8252 26.8333H59.7233L40.4455 46.115C25.3882 61.18 21.1063 65.5462 20.8648 66.0867C20.5542 66.7961 20.4613 67.5818 20.5978 68.3441C20.7343 69.1064 21.094 69.811 21.6315 70.3685C22.1891 70.906 22.8937 71.2658 23.656 71.4023C24.4183 71.5387 25.2039 71.4458 25.9133 71.1352C26.4538 70.8937 30.82 66.6118 45.885 51.5545L65.1667 32.2767V43.2515C65.1667 55.6562 65.1207 55.1272 66.3397 56.35C67.0297 57.0362 68.0953 57.5 69 57.5C70.541 57.5 72.1702 56.304 72.5995 54.855C72.9522 53.6743 72.9522 22.9923 72.5995 21.8117C72.4099 21.2515 72.0937 20.7426 71.6755 20.3245C71.2574 19.9063 70.7485 19.5902 70.1883 19.4005C69.0422 19.0593 38.1877 19.067 37.0798 19.4082Z" fill="#ECEAE0"/>
</svg>
